<svg width="24" height="24" viewBox="0 0 24 24" fill="none" xmlns="http://www.w3.org/2000/svg">
<path d="M6.12774 14.2839H4.82799C3.82705 14.2839 3.01562 13.4769 3.01562 12.4814V4.80248C3.01562 3.807 3.82705 3 4.82799 3H12.4642C13.4651 3 14.2765 3.807 14.2765 4.80248V6.14958" stroke="#27272A" stroke-linecap="round"/>
<path d="M15.9307 15.9499L15.7702 15.4764C15.623 15.5263 15.5073 15.6418 15.4573 15.789L15.9307 15.9499ZM19.5461 20.2706C19.7414 20.4658 20.058 20.4657 20.2532 20.2704C20.4484 20.0751 20.4483 19.7585 20.253 19.5633L19.5461 20.2706ZM20.6177 14.3614L20.7782 14.8349L20.6177 14.3614ZM20.6361 13.3491L20.8137 12.8817L20.6361 13.3491ZM13.3259 20.6549L13.7928 20.4761L13.3259 20.6549ZM14.3376 20.6357L13.8642 20.4747L14.3376 20.6357ZM9.23606 9.97571L9.70299 9.79689L9.23606 9.97571ZM9.9295 9.28048L9.75189 9.74787L9.9295 9.28048ZM8.76913 10.1545L12.859 20.8337L13.7928 20.4761L9.70299 9.79689L8.76913 10.1545ZM14.811 20.7966L16.4041 16.1109L15.4573 15.789L13.8642 20.4747L14.811 20.7966ZM16.0912 16.4235L20.7782 14.8349L20.4572 13.8878L15.7702 15.4764L16.0912 16.4235ZM20.8137 12.8817L10.1071 8.81309L9.75189 9.74787L20.4585 13.8164L20.8137 12.8817ZM15.5772 16.3035L19.5461 20.2706L20.253 19.5633L16.2841 15.5963L15.5772 16.3035ZM20.7782 14.8349C21.7 14.5225 21.7235 13.2274 20.8137 12.8817L20.4585 13.8164C20.4681 13.8201 20.4725 13.8234 20.474 13.8246C20.4756 13.8259 20.4766 13.8271 20.4775 13.8285C20.4797 13.8319 20.4832 13.8402 20.483 13.8526C20.4827 13.865 20.4789 13.8732 20.4767 13.8764C20.4757 13.8778 20.4747 13.879 20.473 13.8802C20.4715 13.8814 20.467 13.8845 20.4572 13.8878L20.7782 14.8349ZM12.859 20.8337C13.2064 21.7409 14.4983 21.7163 14.811 20.7966L13.8642 20.4747C13.8609 20.4845 13.8577 20.489 13.8566 20.4905C13.8553 20.4921 13.8542 20.4932 13.8528 20.4941C13.8495 20.4964 13.8414 20.5002 13.829 20.5004C13.8166 20.5007 13.8083 20.4972 13.805 20.4951C13.8035 20.4942 13.8024 20.4932 13.801 20.4915C13.7998 20.4901 13.7965 20.4857 13.7928 20.4761L12.859 20.8337ZM9.70299 9.79689C9.69999 9.78906 9.69941 9.78427 9.69927 9.78209C9.69912 9.77977 9.69931 9.77785 9.69977 9.77587C9.70082 9.77147 9.70408 9.76403 9.71156 9.75654C9.71903 9.74905 9.72646 9.74576 9.73086 9.74471C9.73283 9.74424 9.73475 9.74404 9.73707 9.74419C9.73926 9.74432 9.74405 9.74489 9.75189 9.74787L10.1071 8.81309C9.26891 8.49457 8.44844 9.31716 8.76913 10.1545L9.70299 9.79689Z" fill="#27272A"/>
</svg>
