<svg width="24" height="24" viewBox="0 0 24 24" fill="none" xmlns="http://www.w3.org/2000/svg">
	<path
		d="M9.13421 10.2295C8.50721 10.2295 8.01221 10.7795 8.01221 11.4505C8.01221 12.1215 8.51821 12.6715 9.13421 12.6715C9.76121 12.6715 10.2562 12.1215 10.2562 11.4505C10.2672 10.7795 9.76121 10.2295 9.13421 10.2295ZM13.1492 10.2295C12.5222 10.2295 12.0272 10.7795 12.0272 11.4505C12.0272 12.1215 12.5332 12.6715 13.1492 12.6715C13.7762 12.6715 14.2712 12.1215 14.2712 11.4505C14.2712 10.7795 13.7762 10.2295 13.1492 10.2295Z"
		fill="white"
		fill-opacity="0.9"
	/>
	<path
		d="M18.495 1H3.755C2.512 1 1.5 2.012 1.5 3.266V18.138C1.5 19.392 2.512 20.404 3.755 20.404H16.229L15.646 18.369L17.054 19.678L18.385 20.91L20.75 23V3.266C20.75 2.012 19.738 1 18.495 1ZM14.249 15.366C14.249 15.366 13.853 14.893 13.523 14.475C14.964 14.068 15.514 13.166 15.514 13.166C15.063 13.463 14.634 13.672 14.249 13.815C13.699 14.046 13.171 14.2 12.654 14.288C11.7119 14.4615 10.7457 14.4577 9.805 14.277C9.25271 14.1689 8.71146 14.0106 8.188 13.804C7.91207 13.6979 7.64377 13.5729 7.385 13.43C7.352 13.408 7.319 13.397 7.286 13.375C7.264 13.364 7.253 13.353 7.242 13.342C7.044 13.232 6.934 13.155 6.934 13.155C6.934 13.155 7.462 14.035 8.859 14.453C8.529 14.871 8.122 15.366 8.122 15.366C5.691 15.289 4.767 13.694 4.767 13.694C4.767 10.152 6.351 7.281 6.351 7.281C7.935 6.093 9.442 6.126 9.442 6.126L9.552 6.258C7.572 6.83 6.659 7.699 6.659 7.699C6.659 7.699 6.901 7.567 7.308 7.38C8.485 6.863 9.42 6.72 9.805 6.687C9.871 6.676 9.926 6.665 9.992 6.665C11.8995 6.40682 13.8395 6.76936 15.525 7.699C15.525 7.699 14.656 6.874 12.786 6.302L12.94 6.126C12.94 6.126 14.447 6.093 16.031 7.281C16.031 7.281 17.615 10.152 17.615 13.694C17.615 13.694 16.68 15.289 14.249 15.366Z"
		fill="white"
		fill-opacity="0.9"
	/>
</svg>
