<svg width="150" height="38" viewBox="0 0 150 38" fill="none" xmlns="http://www.w3.org/2000/svg">
	<path
		d="M2.74724 13.1699C2.43416 13.483 2.05847 13.6395 1.62017 13.6395C1.18186 13.6395 0.798343 13.483 0.469613 13.1699C0.156538 12.8412 0 12.4576 0 12.0193C0 11.581 0.156538 11.2053 0.469613 10.8923C0.782689 10.5635 1.16621 10.3992 1.62017 10.3992C2.07413 10.3992 2.45764 10.5635 2.77072 10.8923C3.08379 11.2053 3.24033 11.581 3.24033 12.0193C3.24033 12.4576 3.07597 12.8412 2.74724 13.1699ZM0.35221 27.1409V15.4006H2.88812V27.1409H0.35221Z"
		fill="white"
		fill-opacity="0.9"
	/>
	<path
		d="M12.008 15.0953C13.3542 15.0953 14.4421 15.5258 15.2718 16.3867C16.1014 17.2477 16.5163 18.4296 16.5163 19.9323V27.1409H13.9804V20.1906C13.9804 19.314 13.7455 18.6409 13.2759 18.1713C12.8063 17.7017 12.1645 17.4668 11.3505 17.4668C10.4583 17.4668 9.73818 17.7486 9.19029 18.3122C8.64241 18.86 8.36847 19.7053 8.36847 20.8481V27.1409H5.83256V15.4006H8.36847V16.9033C9.13551 15.698 10.3487 15.0953 12.008 15.0953Z"
		fill="white"
		fill-opacity="0.9"
	/>
	<path
		d="M24.7882 27.4461C23.0194 27.4461 21.5401 26.8513 20.3504 25.6616C19.1764 24.4719 18.5893 23.0083 18.5893 21.2707C18.5893 19.5175 19.1764 18.0539 20.3504 16.8798C21.5401 15.6901 23.0194 15.0953 24.7882 15.0953C25.931 15.0953 26.9719 15.3692 27.9112 15.9171C28.8504 16.465 29.5548 17.2007 30.0244 18.1243L27.8407 19.3923C27.5746 18.8287 27.1676 18.3904 26.6197 18.0773C26.0875 17.7486 25.4692 17.5843 24.7648 17.5843C23.7316 17.5843 22.8628 17.9365 22.1584 18.6409C21.4696 19.3453 21.1253 20.2219 21.1253 21.2707C21.1253 22.3195 21.4696 23.1961 22.1584 23.9006C22.8628 24.605 23.7316 24.9572 24.7648 24.9572C25.4535 24.9572 26.0718 24.7928 26.6197 24.4641C27.1833 24.1354 27.6059 23.6971 27.8877 23.1492L30.0714 24.3936C29.5705 25.3329 28.8504 26.0764 27.9112 26.6243C26.9719 27.1722 25.931 27.4461 24.7882 27.4461Z"
		fill="white"
		fill-opacity="0.9"
	/>
	<path
		d="M34.5091 17.3729C35.1509 15.9171 36.3562 15.1892 38.1251 15.1892V17.9365C37.1545 17.8738 36.3092 18.1087 35.5892 18.6409C34.8691 19.1575 34.5091 20.0184 34.5091 21.2238V27.1409H31.9731V15.4006H34.5091V17.3729Z"
		fill="white"
		fill-opacity="0.9"
	/>
	<path
		d="M41.4443 22.3508C41.6321 23.2431 42.0626 23.9319 42.7357 24.4171C43.4088 24.8867 44.2307 25.1215 45.2012 25.1215C46.5474 25.1215 47.5571 24.6363 48.2302 23.6657L50.32 24.8867C49.1616 26.593 47.4475 27.4461 45.1777 27.4461C43.268 27.4461 41.7261 26.8669 40.552 25.7086C39.378 24.5345 38.791 23.0552 38.791 21.2707C38.791 19.5175 39.3702 18.0539 40.5285 16.8798C41.6869 15.6901 43.174 15.0953 44.9899 15.0953C46.7118 15.0953 48.1206 15.698 49.2164 16.9033C50.3278 18.1087 50.8835 19.5723 50.8835 21.2942C50.8835 21.5603 50.8522 21.9125 50.7896 22.3508H41.4443ZM41.4208 20.2845H48.3241C48.1519 19.3296 47.7528 18.6096 47.1266 18.1243C46.5161 17.639 45.796 17.3964 44.9664 17.3964C44.0272 17.3964 43.2445 17.6547 42.6183 18.1713C41.9922 18.6878 41.593 19.3923 41.4208 20.2845Z"
		fill="white"
		fill-opacity="0.9"
	/>
	<path
		d="M62.3445 10.7044H64.8804V27.1409H62.3445V25.4503C61.3896 26.7808 60.0199 27.4461 58.2353 27.4461C56.623 27.4461 55.2455 26.8513 54.1027 25.6616C52.96 24.4563 52.3887 22.9926 52.3887 21.2707C52.3887 19.5331 52.96 18.0695 54.1027 16.8798C55.2455 15.6901 56.623 15.0953 58.2353 15.0953C60.0199 15.0953 61.3896 15.7528 62.3445 17.0677V10.7044ZM55.9812 23.971C56.6856 24.6754 57.5701 25.0276 58.6345 25.0276C59.699 25.0276 60.5834 24.6754 61.2878 23.971C61.9923 23.2509 62.3445 22.3508 62.3445 21.2707C62.3445 20.1906 61.9923 19.2983 61.2878 18.5939C60.5834 17.8738 59.699 17.5138 58.6345 17.5138C57.5701 17.5138 56.6856 17.8738 55.9812 18.5939C55.2768 19.2983 54.9246 20.1906 54.9246 21.2707C54.9246 22.3508 55.2768 23.2509 55.9812 23.971Z"
		fill="white"
		fill-opacity="0.9"
	/>
	<path
		d="M70.2312 13.1699C69.9181 13.483 69.5424 13.6395 69.1041 13.6395C68.6658 13.6395 68.2823 13.483 67.9536 13.1699C67.6405 12.8412 67.484 12.4576 67.484 12.0193C67.484 11.581 67.6405 11.2053 67.9536 10.8923C68.2667 10.5635 68.6502 10.3992 69.1041 10.3992C69.5581 10.3992 69.9416 10.5635 70.2547 10.8923C70.5678 11.2053 70.7243 11.581 70.7243 12.0193C70.7243 12.4576 70.5599 12.8412 70.2312 13.1699ZM67.8362 27.1409V15.4006H70.3721V27.1409H67.8362Z"
		fill="white"
		fill-opacity="0.9"
	/>
	<path
		d="M79.9616 15.0953C81.5739 15.0953 82.9514 15.6901 84.0942 16.8798C85.2369 18.0695 85.8083 19.5331 85.8083 21.2707C85.8083 22.9926 85.2369 24.4563 84.0942 25.6616C82.9514 26.8513 81.5739 27.4461 79.9616 27.4461C78.177 27.4461 76.8073 26.7808 75.8524 25.4503V27.1409H73.3165V10.7044H75.8524V17.0677C76.8073 15.7528 78.177 15.0953 79.9616 15.0953ZM76.9091 23.971C77.6135 24.6754 78.4979 25.0276 79.5624 25.0276C80.6268 25.0276 81.5113 24.6754 82.2157 23.971C82.9201 23.2509 83.2723 22.3508 83.2723 21.2707C83.2723 20.1906 82.9201 19.2983 82.2157 18.5939C81.5113 17.8738 80.6268 17.5138 79.5624 17.5138C78.4979 17.5138 77.6135 17.8738 76.9091 18.5939C76.2047 19.2983 75.8524 20.1906 75.8524 21.2707C75.8524 22.3508 76.2047 23.2509 76.9091 23.971Z"
		fill="white"
		fill-opacity="0.9"
	/>
	<path d="M88.1066 27.1409V10H90.6425V27.1409H88.1066Z" fill="white" fill-opacity="0.9" />
	<path
		d="M95.5828 22.3508C95.7707 23.2431 96.2011 23.9319 96.8742 24.4171C97.5474 24.8867 98.3692 25.1215 99.3397 25.1215C100.686 25.1215 101.696 24.6363 102.369 23.6657L104.458 24.8867C103.3 26.593 101.586 27.4461 99.3162 27.4461C97.4065 27.4461 95.8646 26.8669 94.6906 25.7086C93.5165 24.5345 92.9295 23.0552 92.9295 21.2707C92.9295 19.5175 93.5087 18.0539 94.6671 16.8798C95.8255 15.6901 97.3126 15.0953 99.1284 15.0953C100.85 15.0953 102.259 15.698 103.355 16.9033C104.466 18.1087 105.022 19.5723 105.022 21.2942C105.022 21.5603 104.991 21.9125 104.928 22.3508H95.5828ZM95.5593 20.2845H102.463C102.29 19.3296 101.891 18.6096 101.265 18.1243C100.655 17.639 99.9346 17.3964 99.1049 17.3964C98.1657 17.3964 97.383 17.6547 96.7568 18.1713C96.1307 18.6878 95.7315 19.3923 95.5593 20.2845Z"
		fill="white"
		fill-opacity="0.9"
	/>
	<rect x="111.022" y="10" width="38" height="18" rx="2" fill="#383B40" />
	<path
		d="M120.884 17.1262V17.8362C120.504 17.3162 119.914 16.9962 119.134 16.9962C117.774 16.9962 116.644 18.1362 116.644 19.6262C116.644 21.1062 117.774 22.2562 119.134 22.2562C119.914 22.2562 120.504 21.9362 120.884 21.4062V22.1262H121.964V17.1262H120.884ZM119.304 21.2262C118.404 21.2262 117.724 20.5562 117.724 19.6262C117.724 18.6962 118.404 18.0262 119.304 18.0262C120.204 18.0262 120.884 18.6962 120.884 19.6262C120.884 20.5562 120.204 21.2262 119.304 21.2262Z"
		fill="#F9FAFB"
	/>
	<path d="M123.223 22.1262H124.303V14.8262H123.223V22.1262Z" fill="#F9FAFB" />
	<path
		d="M128.387 16.9962C127.607 16.9962 127.017 17.3162 126.637 17.8462V17.1262H125.557V24.1262H126.637V21.4162C127.017 21.9362 127.607 22.2562 128.387 22.2562C129.747 22.2562 130.877 21.1162 130.877 19.6262C130.877 18.1462 129.747 16.9962 128.387 16.9962ZM128.217 21.2262C127.317 21.2262 126.637 20.5562 126.637 19.6262C126.637 18.6962 127.317 18.0262 128.217 18.0262C129.117 18.0262 129.797 18.6962 129.797 19.6262C129.797 20.5562 129.117 21.2262 128.217 21.2262Z"
		fill="#F9FAFB"
	/>
	<path
		d="M134.486 16.9962C133.806 16.9962 133.266 17.2462 132.936 17.7662V15.1262H131.856V22.1262H132.936V19.4462C132.936 18.4262 133.496 18.0062 134.206 18.0062C134.886 18.0062 135.326 18.4062 135.326 19.1662V22.1262H136.406V19.0562C136.406 17.7562 135.606 16.9962 134.486 16.9962Z"
		fill="#F9FAFB"
	/>
	<path
		d="M141.529 17.1262V17.8362C141.149 17.3162 140.559 16.9962 139.779 16.9962C138.419 16.9962 137.289 18.1362 137.289 19.6262C137.289 21.1062 138.419 22.2562 139.779 22.2562C140.559 22.2562 141.149 21.9362 141.529 21.4062V22.1262H142.609V17.1262H141.529ZM139.949 21.2262C139.049 21.2262 138.369 20.5562 138.369 19.6262C138.369 18.6962 139.049 18.0262 139.949 18.0262C140.849 18.0262 141.529 18.6962 141.529 19.6262C141.529 20.5562 140.849 21.2262 139.949 21.2262Z"
		fill="#F9FAFB"
	/>
</svg>
