<svg width="24" height="24" viewBox="0 0 24 24" fill="none" xmlns="http://www.w3.org/2000/svg">
	<path
		d="M8.96168 0.740305C7.9746 -0.246768 6.37424 -0.246768 5.38717 0.740304L0.740312 5.38716C-0.24676 6.37423 -0.246761 7.9746 0.740312 8.96167L1.99139 10.2127C2.97846 11.1998 2.97846 12.8002 1.99139 13.7872L0.740304 15.0383C-0.246768 16.0254 -0.246768 17.6258 0.740304 18.6128L5.38716 23.2597C6.37423 24.2468 7.9746 24.2468 8.96167 23.2597L10.2127 22.0086C11.1998 21.0215 12.8002 21.0215 13.7873 22.0086L15.0383 23.2597C16.0254 24.2468 17.6258 24.2468 18.6128 23.2597L23.2597 18.6128C24.2468 17.6258 24.2468 16.0254 23.2597 15.0383L22.0086 13.7873C21.0215 12.8002 21.0215 11.1998 22.0086 10.2127L23.2597 8.96167C24.2468 7.9746 24.2468 6.37424 23.2597 5.38716L18.6128 0.740305C17.6258 -0.246767 16.0254 -0.246766 15.0383 0.740307L13.7873 1.99138C12.8002 2.97845 11.1998 2.97845 10.2127 1.99138L8.96168 0.740305Z"
		fill="url(#paint0_linear_2881:29758)"
	/>
	<defs>
		<linearGradient id="paint0_linear_2881:29758" x1="3.13253" y1="3.46988" x2="20.9639" y2="20.7229" gradientUnits="userSpaceOnUse">
			<stop stop-color="#4ADE80" />
			<stop offset="1" stop-color="#16A34A" />
		</linearGradient>
	</defs>
</svg>
