<svg width="19" height="15" viewBox="0 0 19 15" fill="none" xmlns="http://www.w3.org/2000/svg">
<path d="M1.94176 1.59091V4.5H1.41477V2.10369H1.39773L0.71733 2.53835V2.0554L1.44034 1.59091H1.94176Z" fill="#A1A1AA"/>
<path d="M6.49996 3.5L18.5 3.50091L18.5 2.50091L6.50004 2.5L6.49996 3.5Z" fill="#A1A1AA"/>
<path d="M0.758523 13.5V13.1193L1.76847 12.1293C1.86506 12.0317 1.94555 11.9451 2.00994 11.8693C2.07434 11.7936 2.12263 11.7202 2.15483 11.6491C2.18703 11.5781 2.20312 11.5024 2.20312 11.4219C2.20312 11.33 2.18229 11.2514 2.14062 11.1861C2.09896 11.1198 2.04167 11.0687 1.96875 11.0327C1.89583 10.9967 1.81297 10.9787 1.72017 10.9787C1.62453 10.9787 1.54072 10.9986 1.46875 11.0384C1.39678 11.0772 1.34091 11.1326 1.30114 11.2045C1.26231 11.2765 1.2429 11.3622 1.2429 11.4616H0.741477C0.741477 11.277 0.783617 11.1165 0.867898 10.9801C0.952178 10.8437 1.06818 10.7382 1.21591 10.6634C1.36458 10.5885 1.53504 10.5511 1.72727 10.5511C1.92235 10.5511 2.09375 10.5876 2.24148 10.6605C2.3892 10.7334 2.50379 10.8333 2.58523 10.9602C2.66761 11.0871 2.70881 11.232 2.70881 11.3949C2.70881 11.5038 2.68797 11.6108 2.64631 11.7159C2.60464 11.821 2.53125 11.9375 2.42614 12.0653C2.32197 12.1932 2.17566 12.348 1.98722 12.5298L1.4858 13.0398V13.0597H2.75284V13.5H0.758523Z" fill="#A1A1AA"/>
<path d="M6.49996 12.5L18.5 12.5009L18.5 11.5009L6.50004 11.5L6.49996 12.5Z" fill="#A1A1AA"/>
</svg>
