<svg width="82" height="24" viewBox="0 0 82 24" fill="none" xmlns="http://www.w3.org/2000/svg">
<path d="M9.46806 2.61692C8.6455 1.79436 7.31187 1.79436 6.48931 2.61692L2.61693 6.4893C1.79437 7.31186 1.79437 8.6455 2.61693 9.46806L3.65949 10.5106C4.48205 11.3332 4.48205 12.6668 3.65949 13.4894L2.61692 14.5319C1.79436 15.3545 1.79436 16.6881 2.61692 17.5107L6.4893 21.3831C7.31186 22.2056 8.6455 22.2056 9.46806 21.3831L10.5106 20.3405C11.3332 19.518 12.6668 19.518 13.4894 20.3405L14.5319 21.3831C15.3545 22.2056 16.6881 22.2056 17.5107 21.3831L21.3831 17.5107C22.2056 16.6881 22.2056 15.3545 21.3831 14.5319L20.3405 13.4894C19.518 12.6668 19.518 11.3332 20.3405 10.5106L21.3831 9.46806C22.2056 8.6455 22.2056 7.31186 21.3831 6.4893L17.5107 2.61692C16.6881 1.79436 15.3545 1.79436 14.5319 2.61692L13.4894 3.65948C12.6668 4.48204 11.3332 4.48204 10.5106 3.65948L9.46806 2.61692Z" fill="url(#paint0_linear_8818_33182)"/>
<path d="M28.3736 3.58494C28.2171 3.74148 28.0292 3.81975 27.8101 3.81975C27.5909 3.81975 27.3992 3.74148 27.2348 3.58494C27.0783 3.42058 27 3.22882 27 3.00967C27 2.79052 27.0783 2.60267 27.2348 2.44613C27.3913 2.28177 27.5831 2.19959 27.8101 2.19959C28.0371 2.19959 28.2288 2.28177 28.3854 2.44613C28.5419 2.60267 28.6202 2.79052 28.6202 3.00967C28.6202 3.22882 28.538 3.42058 28.3736 3.58494ZM27.1761 10.5704V4.70028H28.4441V10.5704H27.1761Z" fill="white" fill-opacity="0.9"/>
<path d="M33.004 4.54765C33.6771 4.54765 34.2211 4.76289 34.6359 5.19337C35.0507 5.62385 35.2581 6.21478 35.2581 6.96616V10.5704H33.9902V7.0953C33.9902 6.657 33.8728 6.32044 33.638 6.08564C33.4032 5.85083 33.0823 5.73342 32.6753 5.73342C32.2291 5.73342 31.8691 5.87431 31.5951 6.15608C31.3212 6.43002 31.1842 6.85267 31.1842 7.42403V10.5704H29.9163V4.70028H31.1842V5.45166C31.5678 4.84899 32.1743 4.54765 33.004 4.54765Z" fill="white" fill-opacity="0.9"/>
<path d="M39.3941 10.7231C38.5097 10.7231 37.77 10.4256 37.1752 9.8308C36.5882 9.23596 36.2947 8.50414 36.2947 7.63536C36.2947 6.75875 36.5882 6.02693 37.1752 5.43992C37.77 4.84507 38.5097 4.54765 39.3941 4.54765C39.9655 4.54765 40.486 4.68462 40.9556 4.95856C41.4252 5.2325 41.7774 5.60037 42.0122 6.06215L40.9204 6.69613C40.7873 6.41436 40.5838 6.19521 40.3099 6.03867C40.0438 5.87431 39.7346 5.79213 39.3824 5.79213C38.8658 5.79213 38.4314 5.96823 38.0792 6.32044C37.7348 6.67265 37.5626 7.11096 37.5626 7.63536C37.5626 8.15976 37.7348 8.59807 38.0792 8.95028C38.4314 9.30249 38.8658 9.47859 39.3824 9.47859C39.7268 9.47859 40.0359 9.39641 40.3099 9.23204C40.5916 9.06768 40.803 8.84853 40.9438 8.57459L42.0357 9.19682C41.7852 9.66644 41.4252 10.0382 40.9556 10.3122C40.486 10.5861 39.9655 10.7231 39.3941 10.7231Z" fill="white" fill-opacity="0.9"/>
<path d="M44.2545 5.68646C44.5754 4.95856 45.1781 4.59461 46.0625 4.59461V5.96823C45.5773 5.93692 45.1546 6.05433 44.7946 6.32044C44.4345 6.57873 44.2545 7.00921 44.2545 7.61188V10.5704H42.9866V4.70028H44.2545V5.68646Z" fill="white" fill-opacity="0.9"/>
<path d="M47.7221 8.17541C47.8161 8.62155 48.0313 8.96593 48.3679 9.20856C48.7044 9.44337 49.1153 9.56077 49.6006 9.56077C50.2737 9.56077 50.7785 9.31814 51.1151 8.83287L52.16 9.44337C51.5808 10.2965 50.7238 10.7231 49.5889 10.7231C48.634 10.7231 47.863 10.4335 47.276 9.85428C46.689 9.26727 46.3955 8.52762 46.3955 7.63536C46.3955 6.75875 46.6851 6.02693 47.2643 5.43992C47.8435 4.84507 48.587 4.54765 49.4949 4.54765C50.3559 4.54765 51.0603 4.84899 51.6082 5.45166C52.1639 6.05433 52.4418 6.78614 52.4418 7.6471C52.4418 7.78016 52.4261 7.95626 52.3948 8.17541H47.7221ZM47.7104 7.14226H51.1621C51.076 6.66482 50.8764 6.30479 50.5633 6.06215C50.2581 5.81952 49.898 5.6982 49.4832 5.6982C49.0136 5.6982 48.6222 5.82735 48.3092 6.08564C47.9961 6.34392 47.7965 6.69613 47.7104 7.14226Z" fill="white" fill-opacity="0.9"/>
<path d="M58.1722 2.35221H59.4402V10.5704H58.1722V9.72514C57.6948 10.3904 57.0099 10.7231 56.1177 10.7231C55.3115 10.7231 54.6227 10.4256 54.0514 9.8308C53.48 9.22813 53.1943 8.49632 53.1943 7.63536C53.1943 6.76657 53.48 6.03476 54.0514 5.43992C54.6227 4.84507 55.3115 4.54765 56.1177 4.54765C57.0099 4.54765 57.6948 4.87638 58.1722 5.53384V2.35221ZM54.9906 8.9855C55.3428 9.33771 55.785 9.51381 56.3173 9.51381C56.8495 9.51381 57.2917 9.33771 57.6439 8.9855C57.9961 8.62546 58.1722 8.17541 58.1722 7.63536C58.1722 7.0953 57.9961 6.64917 57.6439 6.29696C57.2917 5.93692 56.8495 5.75691 56.3173 5.75691C55.785 5.75691 55.3428 5.93692 54.9906 6.29696C54.6384 6.64917 54.4623 7.0953 54.4623 7.63536C54.4623 8.17541 54.6384 8.62546 54.9906 8.9855Z" fill="white" fill-opacity="0.9"/>
<path d="M62.1156 3.58494C61.9591 3.74148 61.7712 3.81975 61.5521 3.81975C61.3329 3.81975 61.1412 3.74148 60.9768 3.58494C60.8203 3.42058 60.742 3.22882 60.742 3.00967C60.742 2.79052 60.8203 2.60267 60.9768 2.44613C61.1333 2.28177 61.3251 2.19959 61.5521 2.19959C61.7791 2.19959 61.9708 2.28177 62.1273 2.44613C62.2839 2.60267 62.3622 2.79052 62.3622 3.00967C62.3622 3.22882 62.28 3.42058 62.1156 3.58494ZM60.9181 10.5704V4.70028H62.186V10.5704H60.9181Z" fill="white" fill-opacity="0.9"/>
<path d="M66.9808 4.54765C67.787 4.54765 68.4757 4.84507 69.0471 5.43992C69.6184 6.03476 69.9041 6.76657 69.9041 7.63536C69.9041 8.49632 69.6184 9.22813 69.0471 9.8308C68.4757 10.4256 67.787 10.7231 66.9808 10.7231C66.0885 10.7231 65.4037 10.3904 64.9262 9.72514V10.5704H63.6583V2.35221H64.9262V5.53384C65.4037 4.87638 66.0885 4.54765 66.9808 4.54765ZM65.4545 8.9855C65.8067 9.33771 66.249 9.51381 66.7812 9.51381C67.3134 9.51381 67.7556 9.33771 68.1079 8.9855C68.4601 8.62546 68.6362 8.17541 68.6362 7.63536C68.6362 7.0953 68.4601 6.64917 68.1079 6.29696C67.7556 5.93692 67.3134 5.75691 66.7812 5.75691C66.249 5.75691 65.8067 5.93692 65.4545 6.29696C65.1023 6.64917 64.9262 7.0953 64.9262 7.63536C64.9262 8.17541 65.1023 8.62546 65.4545 8.9855Z" fill="white" fill-opacity="0.9"/>
<path d="M71.0533 10.5704V2H72.3213V10.5704H71.0533Z" fill="white" fill-opacity="0.9"/>
<path d="M74.7914 8.17541C74.8853 8.62155 75.1006 8.96593 75.4371 9.20856C75.7737 9.44337 76.1846 9.56077 76.6699 9.56077C77.343 9.56077 77.8478 9.31814 78.1844 8.83287L79.2292 9.44337C78.6501 10.2965 77.793 10.7231 76.6581 10.7231C75.7032 10.7231 74.9323 10.4335 74.3453 9.85428C73.7583 9.26727 73.4647 8.52762 73.4647 7.63536C73.4647 6.75875 73.7543 6.02693 74.3335 5.43992C74.9127 4.84507 75.6563 4.54765 76.5642 4.54765C77.4252 4.54765 78.1296 4.84899 78.6775 5.45166C79.2332 6.05433 79.511 6.78614 79.511 7.6471C79.511 7.78016 79.4954 7.95626 79.4641 8.17541H74.7914ZM74.7797 7.14226H78.2313C78.1452 6.66482 77.9456 6.30479 77.6326 6.06215C77.3273 5.81952 76.9673 5.6982 76.5525 5.6982C76.0828 5.6982 75.6915 5.82735 75.3784 6.08564C75.0653 6.34392 74.8658 6.69613 74.7797 7.14226Z" fill="white" fill-opacity="0.9"/>
<path d="M27.7349 17.7416C27.7349 18.0018 27.8499 18.2057 28.08 18.3534C28.3101 18.5011 28.5922 18.6136 28.9262 18.6909C29.2602 18.7613 29.5906 18.8421 29.9172 18.9335C30.2512 19.025 30.5332 19.1797 30.7634 19.3977C30.9935 19.6086 31.1085 19.8935 31.1085 20.2521C31.1085 20.6881 30.9229 21.0468 30.5518 21.3281C30.1881 21.6094 29.7093 21.75 29.1155 21.75C28.5811 21.75 28.1283 21.6445 27.7571 21.4335C27.3934 21.2155 27.141 20.9307 27 20.5791L27.4788 20.3154C27.5827 20.6037 27.7757 20.8323 28.0577 21.0011C28.3472 21.1628 28.6998 21.2437 29.1155 21.2437C29.5312 21.2437 29.8726 21.1593 30.1398 20.9905C30.4145 20.8147 30.5518 20.5686 30.5518 20.2521C30.5518 19.9919 30.4368 19.7845 30.2066 19.6297C29.9765 19.475 29.6945 19.3625 29.3604 19.2922C29.0264 19.2148 28.6924 19.1305 28.3584 19.039C28.0318 18.9476 27.7534 18.7964 27.5233 18.5854C27.2932 18.3745 27.1781 18.0932 27.1781 17.7416C27.1781 17.3196 27.3526 16.9645 27.7015 16.6762C28.0577 16.3878 28.5142 16.2437 29.071 16.2437C29.5163 16.2437 29.9023 16.3386 30.2289 16.5285C30.5629 16.7184 30.8079 16.975 30.9638 17.2985L30.4961 17.5517C30.3848 17.2915 30.1992 17.0946 29.9394 16.961C29.6796 16.8203 29.3901 16.75 29.071 16.75C28.6924 16.75 28.3732 16.8414 28.1134 17.0243C27.861 17.2001 27.7349 17.4392 27.7349 17.7416Z" fill="white" fill-opacity="0.9"/>
<path d="M35.0887 16.8766H33.4297V20.3049C33.4297 20.6072 33.4891 20.8252 33.6079 20.9589C33.7266 21.0925 33.9085 21.1698 34.1534 21.1909C34.3984 21.205 34.7102 21.1944 35.0887 21.1593V21.634C34.339 21.7395 33.7786 21.6902 33.4075 21.4863C33.0437 21.2823 32.8619 20.8885 32.8619 20.3049V16.8766H31.6371V16.3597H32.8619V15.0411L33.4297 14.8829V16.3597H35.0887V16.8766Z" fill="white" fill-opacity="0.9"/>
<path d="M40.4329 16.3597H40.9896V21.634H40.4329V20.6319C40.032 21.3773 39.3677 21.75 38.4398 21.75C37.7792 21.75 37.2522 21.5601 36.8588 21.1804C36.4728 20.7936 36.2798 20.2802 36.2798 19.6403V16.3597H36.8477V19.6403C36.8477 20.1326 36.9887 20.5229 37.2708 20.8112C37.5602 21.0995 37.9648 21.2437 38.4844 21.2437C39.0559 21.2437 39.5236 21.0643 39.8873 20.7057C40.251 20.347 40.4329 19.8267 40.4329 19.1445V16.3597Z" fill="white" fill-opacity="0.9"/>
<path d="M47.6195 14.25H48.1762V21.634H47.6195V20.4103C47.3894 20.8252 47.0627 21.1523 46.6396 21.3914C46.224 21.6305 45.7526 21.75 45.2256 21.75C44.4239 21.75 43.7411 21.4863 43.1769 20.9589C42.6202 20.4244 42.3419 19.7704 42.3419 18.9968C42.3419 18.2233 42.6202 17.5728 43.1769 17.0454C43.7411 16.5109 44.4239 16.2437 45.2256 16.2437C45.7526 16.2437 46.224 16.3632 46.6396 16.6023C47.0627 16.8414 47.3894 17.1684 47.6195 17.5833V14.25ZM43.5778 20.5897C44.038 21.0257 44.5984 21.2437 45.259 21.2437C45.9196 21.2437 46.4763 21.0257 46.9291 20.5897C47.3894 20.1537 47.6195 19.6227 47.6195 18.9968C47.6195 18.371 47.3894 17.84 46.9291 17.404C46.4763 16.968 45.9196 16.75 45.259 16.75C44.5984 16.75 44.038 16.968 43.5778 17.404C43.125 17.84 42.8986 18.371 42.8986 18.9968C42.8986 19.6227 43.125 20.1537 43.5778 20.5897Z" fill="white" fill-opacity="0.9"/>
<path d="M50.4757 14.9673C50.3867 15.0447 50.2827 15.0833 50.164 15.0833C50.0452 15.0833 49.9413 15.0447 49.8522 14.9673C49.7631 14.8829 49.7186 14.7809 49.7186 14.6614C49.7186 14.5489 49.7631 14.4539 49.8522 14.3766C49.9413 14.2922 50.0452 14.25 50.164 14.25C50.2827 14.25 50.3867 14.2922 50.4757 14.3766C50.5648 14.4539 50.6093 14.5489 50.6093 14.6614C50.6093 14.7809 50.5648 14.8829 50.4757 14.9673ZM49.8856 21.634V16.3597H50.4423V21.634H49.8856Z" fill="white" fill-opacity="0.9"/>
<path d="M54.7078 21.75C53.8913 21.75 53.1973 21.4863 52.6258 20.9589C52.0616 20.4244 51.7796 19.7704 51.7796 18.9968C51.7796 18.2233 52.0616 17.5728 52.6258 17.0454C53.1973 16.5109 53.8913 16.2437 54.7078 16.2437C55.5169 16.2437 56.2035 16.5109 56.7677 17.0454C57.3392 17.5728 57.625 18.2233 57.625 18.9968C57.625 19.7704 57.3392 20.4244 56.7677 20.9589C56.2035 21.4863 55.5169 21.75 54.7078 21.75ZM53.0266 20.5897C53.4868 21.0257 54.0472 21.2437 54.7078 21.2437C55.3685 21.2437 55.9252 21.0257 56.378 20.5897C56.8308 20.1537 57.0572 19.6227 57.0572 18.9968C57.0572 18.371 56.8308 17.84 56.378 17.404C55.9252 16.968 55.3685 16.75 54.7078 16.75C54.0472 16.75 53.4868 16.968 53.0266 17.404C52.5738 17.84 52.3474 18.371 52.3474 18.9968C52.3474 19.6227 52.5738 20.1537 53.0266 20.5897Z" fill="white" fill-opacity="0.9"/>
<defs>
<linearGradient id="paint0_linear_8818_33182" x1="4.61044" y1="4.89157" x2="19.4699" y2="19.2691" gradientUnits="userSpaceOnUse">
<stop stop-color="#4ADE80"/>
<stop offset="1" stop-color="#16A34A"/>
</linearGradient>
</defs>
</svg>
