<svg width="199" height="40" fill="none" xmlns="http://www.w3.org/2000/svg">
    <path d="M14.936 1.234a4.213 4.213 0 0 0-5.957 0L1.234 8.979a4.213 4.213 0 0 0 0 5.957l2.085 2.085a4.213 4.213 0 0 1 0 5.958l-2.085 2.085a4.213 4.213 0 0 0 0 5.957l7.745 7.745a4.213 4.213 0 0 0 5.957 0l2.085-2.085a4.213 4.213 0 0 1 5.958 0l2.085 2.085a4.213 4.213 0 0 0 5.957 0l7.745-7.745a4.213 4.213 0 0 0 0-5.957l-2.085-2.085a4.213 4.213 0 0 1 0-5.958l2.085-2.085a4.212 4.212 0 0 0 0-5.957l-7.745-7.745a4.213 4.213 0 0 0-5.957 0l-2.085 2.085a4.213 4.213 0 0 1-5.958 0l-2.085-2.085z" fill="url(#a)"/>
    <path d="M52.747 14.447c-.313.313-.688.47-1.127.47-.438 0-.822-.157-1.15-.47a1.616 1.616 0 0 1-.47-1.15c0-.439.157-.814.47-1.127a1.528 1.528 0 0 1 1.15-.493c.454 0 .838.164 1.15.493.314.313.47.688.47 1.127 0 .438-.164.821-.493 1.15zm-2.395 13.971v-11.74h2.536v11.74h-2.536zM62.008 16.373c1.346 0 2.434.43 3.264 1.291.83.861 1.244 2.043 1.244 3.546v7.208H63.98v-6.95c0-.877-.234-1.55-.704-2.02-.47-.469-1.112-.704-1.926-.704-.892 0-1.612.282-2.16.846-.548.547-.822 1.393-.822 2.535v6.293h-2.535v-11.74h2.535v1.503c.767-1.206 1.98-1.808 3.64-1.808zM74.788 28.724c-1.769 0-3.248-.595-4.438-1.785-1.174-1.19-1.76-2.653-1.76-4.39 0-1.754.586-3.218 1.76-4.392 1.19-1.19 2.67-1.784 4.438-1.784 1.143 0 2.184.274 3.123.822.94.547 1.644 1.283 2.113 2.207l-2.183 1.268a2.918 2.918 0 0 0-1.221-1.315c-.532-.329-1.15-.493-1.855-.493-1.033 0-1.902.352-2.607 1.056-.688.705-1.033 1.581-1.033 2.63s.345 1.926 1.033 2.63c.705.704 1.574 1.056 2.607 1.056.689 0 1.307-.164 1.855-.493a3.199 3.199 0 0 0 1.268-1.314l2.183 1.244a5.585 5.585 0 0 1-2.16 2.23c-.94.549-1.98.823-3.123.823zM84.51 18.65c.64-1.455 1.846-2.183 3.615-2.183v2.747c-.97-.063-1.816.172-2.536.704-.72.517-1.08 1.378-1.08 2.583v5.917h-2.536v-11.74h2.536v1.972zM91.444 23.628c.188.892.619 1.581 1.292 2.067.673.47 1.495.704 2.465.704 1.346 0 2.356-.485 3.03-1.456l2.089 1.221c-1.158 1.706-2.872 2.56-5.142 2.56-1.91 0-3.452-.58-4.626-1.738-1.174-1.174-1.761-2.653-1.761-4.438 0-1.753.58-3.217 1.737-4.39 1.159-1.19 2.646-1.785 4.462-1.785 1.722 0 3.13.602 4.226 1.808 1.112 1.205 1.668 2.669 1.668 4.39 0 .267-.032.619-.094 1.057h-9.346zm-.023-2.066h6.903c-.172-.955-.571-1.675-1.197-2.16-.61-.486-1.331-.728-2.16-.728-.94 0-1.722.258-2.349.775-.626.516-1.025 1.22-1.197 2.113zM112.344 11.982h2.536v16.436h-2.536v-1.69c-.954 1.33-2.324 1.995-4.109 1.995-1.612 0-2.99-.594-4.132-1.784-1.143-1.205-1.714-2.669-1.714-4.39 0-1.738.571-3.202 1.714-4.392 1.142-1.19 2.52-1.784 4.132-1.784 1.785 0 3.155.657 4.109 1.972v-6.363zm-6.363 13.266c.705.705 1.589 1.057 2.654 1.057 1.064 0 1.948-.352 2.653-1.057.704-.72 1.056-1.62 1.056-2.7s-.352-1.972-1.056-2.677c-.705-.72-1.589-1.08-2.653-1.08-1.065 0-1.949.36-2.654 1.08-.704.705-1.056 1.597-1.056 2.677s.352 1.98 1.056 2.7zM120.231 14.447c-.313.313-.689.47-1.127.47-.438 0-.822-.157-1.15-.47a1.616 1.616 0 0 1-.47-1.15c0-.439.157-.814.47-1.127a1.526 1.526 0 0 1 1.15-.493c.454 0 .838.164 1.151.493.313.313.469.688.469 1.127 0 .438-.164.821-.493 1.15zm-2.395 13.971v-11.74h2.536v11.74h-2.536zM129.962 16.373c1.612 0 2.989.595 4.132 1.784 1.143 1.19 1.714 2.654 1.714 4.391 0 1.722-.571 3.186-1.714 4.39-1.143 1.19-2.52 1.786-4.132 1.786-1.785 0-3.155-.666-4.11-1.996v1.69h-2.535V11.982h2.535v6.363c.955-1.315 2.325-1.972 4.11-1.972zm-3.053 8.875c.704.705 1.589 1.057 2.653 1.057 1.065 0 1.949-.352 2.654-1.057.704-.72 1.056-1.62 1.056-2.7s-.352-1.972-1.056-2.677c-.705-.72-1.589-1.08-2.654-1.08-1.064 0-1.949.36-2.653 1.08-.704.705-1.057 1.597-1.057 2.677s.353 1.98 1.057 2.7zM138.107 28.418v-17.14h2.536v17.14h-2.536zM145.583 23.628c.188.892.618 1.581 1.291 2.067.673.47 1.495.704 2.466.704 1.346 0 2.356-.485 3.029-1.456l2.089 1.221c-1.158 1.706-2.872 2.56-5.142 2.56-1.91 0-3.451-.58-4.625-1.738-1.174-1.174-1.762-2.653-1.762-4.438 0-1.753.58-3.217 1.738-4.39 1.158-1.19 2.646-1.785 4.461-1.785 1.722 0 3.131.602 4.227 1.808 1.111 1.205 1.667 2.669 1.667 4.39 0 .267-.031.619-.094 1.057h-9.345zm-.024-2.066h6.904c-.173-.955-.572-1.675-1.198-2.16-.61-.486-1.33-.728-2.16-.728-.939 0-1.722.258-2.348.775-.626.516-1.025 1.22-1.198 2.113z" fill="#fff" fill-opacity=".9"/>
    <rect x="161" y="12" width="38" height="18" rx="2" fill="#383B40"/>
    <path d="M170.862 19.126v.71c-.38-.52-.97-.84-1.75-.84-1.36 0-2.49 1.14-2.49 2.63 0 1.48 1.13 2.63 2.49 2.63.78 0 1.37-.32 1.75-.85v.72h1.08v-5h-1.08zm-1.58 4.1c-.9 0-1.58-.67-1.58-1.6s.68-1.6 1.58-1.6 1.58.67 1.58 1.6-.68 1.6-1.58 1.6zM173.201 24.126h1.08v-7.3h-1.08v7.3zM178.365 18.996c-.78 0-1.37.32-1.75.85v-.72h-1.08v7h1.08v-2.71c.38.52.97.84 1.75.84 1.36 0 2.49-1.14 2.49-2.63 0-1.48-1.13-2.63-2.49-2.63zm-.17 4.23c-.9 0-1.58-.67-1.58-1.6s.68-1.6 1.58-1.6 1.58.67 1.58 1.6-.68 1.6-1.58 1.6zM184.464 18.996c-.68 0-1.22.25-1.55.77v-2.64h-1.08v7h1.08v-2.68c0-1.02.56-1.44 1.27-1.44.68 0 1.12.4 1.12 1.16v2.96h1.08v-3.07c0-1.3-.8-2.06-1.92-2.06zM191.507 19.126v.71c-.38-.52-.97-.84-1.75-.84-1.36 0-2.49 1.14-2.49 2.63 0 1.48 1.13 2.63 2.49 2.63.78 0 1.37-.32 1.75-.85v.72h1.08v-5h-1.08zm-1.58 4.1c-.9 0-1.58-.67-1.58-1.6s.68-1.6 1.58-1.6 1.58.67 1.58 1.6-.68 1.6-1.58 1.6z" fill="#F9FAFB"/>
    <defs>
        <linearGradient id="a" x1="5.221" y1="5.783" x2="34.94" y2="34.538" gradientUnits="userSpaceOnUse">
            <stop stop-color="#4ADE80"/>
            <stop offset="1" stop-color="#16A34A"/>
        </linearGradient>
    </defs>
</svg>
