<?xml version="1.0" standalone="no"?>
<!DOCTYPE svg PUBLIC "-//W3C//DTD SVG 20010904//EN"
 "http://www.w3.org/TR/2001/REC-SVG-20010904/DTD/svg10.dtd">
<svg version="1.0" xmlns="http://www.w3.org/2000/svg"
 width="748.000000pt" height="748.000000pt" viewBox="0 0 748.000000 748.000000"
 preserveAspectRatio="xMidYMid meet">
<metadata>
Created by potrace 1.14, written by Peter Selinger 2001-2017
</metadata>
<g transform="translate(0.000000,748.000000) scale(0.100000,-0.100000)"
fill="#000000" stroke="none">
<path d="M2075 7463 c-86 -18 -201 -66 -278 -117 -61 -41 -1549 -1520 -1634
-1624 -104 -128 -163 -311 -159 -496 3 -125 21 -205 71 -313 53 -115 86 -155
343 -413 257 -258 312 -324 362 -434 53 -119 70 -206 66 -341 -3 -132 -20
-209 -67 -312 -51 -112 -100 -171 -350 -424 -134 -135 -255 -258 -268 -274
-42 -50 -109 -187 -133 -270 -27 -96 -31 -294 -9 -385 8 -30 14 -57 14 -60 -1
-15 71 -158 104 -207 53 -81 1584 -1610 1660 -1659 148 -95 259 -127 438 -128
148 0 236 19 354 78 103 52 147 90 396 339 292 293 347 334 522 393 66 23 99
27 213 30 117 3 146 0 215 -20 193 -55 255 -99 560 -403 138 -137 271 -263
295 -280 71 -48 162 -91 247 -115 102 -29 304 -31 403 -4 88 23 216 86 279
136 97 77 1577 1565 1621 1630 89 131 131 259 135 415 5 151 -19 265 -83 392
-48 94 -90 142 -344 397 -239 240 -303 318 -353 430 -67 152 -83 365 -38 520
54 188 96 246 394 546 129 129 250 255 270 280 49 61 104 173 131 267 29 102
31 315 4 408 -27 91 -91 218 -140 278 -79 97 -1575 1585 -1629 1620 -68 45
-171 93 -227 107 -25 6 -54 13 -65 16 -11 3 -70 7 -130 9 -181 5 -324 -36
-475 -139 -25 -17 -153 -138 -285 -269 -267 -266 -316 -308 -425 -360 -108
-51 -207 -74 -330 -75 -176 -1 -323 43 -457 137 -37 27 -184 164 -326 305
-141 141 -261 256 -266 256 -5 0 -16 6 -24 14 -21 21 -133 76 -200 97 -124 40
-277 48 -402 22z"/>
</g>
</svg>
