<svg width="24" height="24" viewBox="0 0 24 24" fill="none" xmlns="http://www.w3.org/2000/svg">
<g clip-path="url(#clip0_7888_80471)">
<path d="M19.6361 4.4263C18.1933 3.75124 16.6669 3.27158 15.0974 3C14.9019 3.35346 14.6734 3.82887 14.5159 4.20708C12.8236 3.95262 11.1469 3.95262 9.48573 4.20708C9.32829 3.82895 9.09471 3.35346 8.8974 3C7.32628 3.2717 5.79863 3.75259 4.35517 4.42983C1.48279 8.77045 0.704111 13.0031 1.09341 17.1759C2.99856 18.5986 4.84484 19.4629 6.66001 20.0284C7.11113 19.4081 7.5099 18.7513 7.85222 18.0648C7.2005 17.8167 6.57221 17.511 5.97483 17.1512C6.13204 17.0346 6.28554 16.9132 6.43511 16.787C10.055 18.4802 13.9882 18.4802 17.5649 16.787C17.7151 16.9124 17.8686 17.0338 18.0251 17.1512C17.4267 17.5119 16.7973 17.8183 16.1443 18.0666C16.4885 18.7559 16.8866 19.4133 17.3365 20.0301C19.1534 19.4647 21.0014 18.6004 22.9065 17.1759C23.3634 12.3387 22.1262 8.14473 19.6361 4.42622V4.4263ZM8.34542 14.6097C7.25874 14.6097 6.36757 13.5952 6.36757 12.3599C6.36757 11.1245 7.23975 10.1083 8.34542 10.1083C9.45118 10.1083 10.3423 11.1227 10.3233 12.3599C10.325 13.5952 9.45118 14.6097 8.34542 14.6097ZM15.6545 14.6097C14.5678 14.6097 13.6767 13.5952 13.6767 12.3599C13.6767 11.1245 14.5488 10.1083 15.6545 10.1083C16.7603 10.1083 17.6513 11.1227 17.6323 12.3599C17.6323 13.5952 16.7603 14.6097 15.6545 14.6097Z" fill="#5865F2"/>
</g>
<defs>
<clipPath id="clip0_7888_80471">
<rect width="22" height="17.1016" fill="white" transform="translate(1 3)"/>
</clipPath>
</defs>
</svg>
