<svg width="25" height="24" viewBox="0 0 25 24" fill="none" xmlns="http://www.w3.org/2000/svg">
<g clip-path="url(#clip0_7888_80431)">
<g clip-path="url(#clip1_7888_80431)">
<path d="M23.0141 6.4127C22.8879 5.94636 22.6418 5.52122 22.3002 5.1796C21.9586 4.83799 21.5335 4.59182 21.0671 4.46561C19.3599 4 12.4888 4 12.4888 4C12.4888 4 5.61746 4.01409 3.91022 4.4797C3.44388 4.60592 3.01874 4.8521 2.67714 5.19373C2.33554 5.53536 2.08939 5.96052 1.96322 6.42688C1.44682 9.4603 1.2465 14.0825 1.9774 16.9946C2.10359 17.4609 2.34974 17.8861 2.69134 18.2277C3.03294 18.5693 3.45807 18.8155 3.9244 18.9417C5.63163 19.4073 12.5029 19.4073 12.5029 19.4073C12.5029 19.4073 19.374 19.4073 21.0811 18.9417C21.5475 18.8155 21.9726 18.5693 22.3143 18.2277C22.6559 17.8861 22.902 17.461 23.0282 16.9946C23.5729 13.9569 23.7407 9.33758 23.0141 6.41278V6.4127Z" fill="#FF0000"/>
<path d="M10.3027 15.0054L16.0028 11.7039L10.3027 8.40234V15.0054Z" fill="white"/>
</g>
</g>
<defs>
<clipPath id="clip0_7888_80431">
<rect width="22" height="17.1016" fill="white" transform="translate(1.5 3)"/>
</clipPath>
<clipPath id="clip1_7888_80431">
<rect width="22" height="15.4688" fill="white" transform="translate(1.5 4)"/>
</clipPath>
</defs>
</svg>
