<svg width="16" height="16" viewBox="0 0 16 16" fill="none" xmlns="http://www.w3.org/2000/svg">
<path d="M4.99999 9.64113L2.41561 10.8008C1.86561 11.0508 1.86561 11.4602 2.41561 11.7102L7.04061 13.8196C7.56842 14.0599 8.43717 14.0599 8.96499 13.8196L13.59 11.7102C14.14 11.4602 14.14 11.0508 13.59 10.8008L11.0919 9.59863" fill="#16A34A"/>
<path d="M4.99999 9.64113L2.41561 10.8008C1.86561 11.0508 1.86561 11.4602 2.41561 11.7102L7.04061 13.8196C7.56842 14.0599 8.43717 14.0599 8.96499 13.8196L13.59 11.7102C14.14 11.4602 14.14 11.0508 13.59 10.8008L11.0919 9.59863" stroke="#929397" stroke-width="0.5" stroke-linecap="round" stroke-linejoin="round"/>
<path d="M5 6.38965L2.4125 7.5509C1.8625 7.8009 1.8625 8.21027 2.4125 8.46027L7.0375 10.5693C7.56531 10.81 8.43406 10.81 8.96188 10.5693L13.5869 8.46027C14.14 8.21027 14.14 7.8009 13.59 7.5509L11 6.38965" fill="#1F2937"/>
<path d="M5 6.38965L2.4125 7.5509C1.8625 7.8009 1.8625 8.21027 2.4125 8.46027L7.0375 10.5693C7.56531 10.81 8.43406 10.81 8.96188 10.5693L13.5869 8.46027C14.14 8.21027 14.14 7.8009 13.59 7.5509L11 6.38965" stroke="#929397" stroke-width="0.5" stroke-linecap="round" stroke-linejoin="round"/>
<path d="M13.5875 4.30156L8.91999 2.17344C8.41405 1.94219 7.58593 1.94219 7.07999 2.17344L2.41561 4.30156C1.86561 4.55156 1.86561 4.96063 2.41561 5.21063L7.04061 7.32C7.56843 7.56063 8.43718 7.56063 8.96499 7.32L13.59 5.21063C14.1375 4.96063 14.1375 4.55125 13.5875 4.30156Z" fill="#F4F4F5" stroke="#929397" stroke-width="0.5" stroke-linecap="round" stroke-linejoin="round"/>
</svg>
