<svg width="24" height="24" viewBox="0 0 24 24" fill="none" xmlns="http://www.w3.org/2000/svg">
<mask id="path-1-inside-1_9618_32379" fill="white">
<path d="M21.3665 8.50897C22.0172 18.376 11.6212 17.0212 11.6212 17.0212C18.7608 17.1222 21.7717 3.59162 10.1875 2.17205C10.7858 2.05983 11.3928 2.00231 12.0012 2C16.2983 2 19.9516 4.71094 21.3665 8.50897Z"/>
</mask>
<path d="M21.3665 8.50897C22.0172 18.376 11.6212 17.0212 11.6212 17.0212C18.7608 17.1222 21.7717 3.59162 10.1875 2.17205C10.7858 2.05983 11.3928 2.00231 12.0012 2C16.2983 2 19.9516 4.71094 21.3665 8.50897Z" fill="white" fill-opacity="0.9"/>
<path d="M21.3665 8.50897L25.3834 8.24404L25.3446 7.65594L25.1388 7.10365L21.3665 8.50897ZM11.6212 17.0212L11.6781 12.9959L11.101 21.0131L11.6212 17.0212ZM10.1875 2.17205L9.44535 -1.78459L9.69784 6.1678L10.1875 2.17205ZM12.0012 2V-2.02564H11.9935L11.9859 -2.02561L12.0012 2ZM17.3496 8.7739C17.4647 10.5195 17.0764 11.3276 16.8213 11.6918C16.5445 12.0869 16.0976 12.4205 15.3899 12.6719C14.6616 12.9307 13.8355 13.0346 13.1221 13.0546C12.7807 13.0643 12.5007 13.0538 12.3189 13.0424C12.2289 13.0367 12.1657 13.031 12.1339 13.0279C12.1181 13.0263 12.1104 13.0254 12.1114 13.0255C12.1119 13.0256 12.1146 13.0259 12.1195 13.0265C12.122 13.0268 12.1251 13.0272 12.1287 13.0277C12.1305 13.0279 12.1325 13.0281 12.1346 13.0284C12.1357 13.0286 12.1374 13.0288 12.1379 13.0288C12.1396 13.0291 12.1414 13.0293 11.6212 17.0212C11.101 21.0131 11.1028 21.0133 11.1047 21.0136C11.1054 21.0136 11.1073 21.0139 11.1087 21.0141C11.1114 21.0144 11.1143 21.0148 11.1174 21.0152C11.1236 21.016 11.1304 21.0168 11.1379 21.0177C11.1528 21.0196 11.1704 21.0217 11.1906 21.024C11.2308 21.0286 11.2814 21.0341 11.3416 21.0401C11.4618 21.052 11.6213 21.0657 11.8143 21.0778C12.1985 21.102 12.7257 21.1203 13.3487 21.1027C14.5642 21.0685 16.2964 20.8943 18.0858 20.2584C19.8958 19.6152 21.9259 18.4374 23.4153 16.3115C24.9264 14.1546 25.5936 11.4319 25.3834 8.24404L17.3496 8.7739ZM11.5642 21.0464C18.0396 21.138 21.6746 15.2588 21.9452 10.3902C22.0925 7.73951 21.3672 4.86939 19.3816 2.51199C17.3734 0.127653 14.3847 -1.36937 10.6772 -1.8237L9.69784 6.1678C11.7824 6.42325 12.7614 7.1499 13.2236 7.69864C13.7084 8.27432 13.9562 9.04671 13.9063 9.94346C13.7826 12.1698 12.3424 13.0053 11.6781 12.9959L11.5642 21.0464ZM10.9297 6.12869C11.288 6.06148 11.6517 6.027 12.0164 6.02561L11.9859 -2.02561C11.1339 -2.02238 10.2836 -1.94182 9.44535 -1.78459L10.9297 6.12869ZM12.0012 6.02564C14.5578 6.02564 16.7452 7.63555 17.5941 9.91428L25.1388 7.10365C23.158 1.78633 18.0387 -2.02564 12.0012 -2.02564V6.02564Z" fill="#F4F4F5" mask="url(#path-1-inside-1_9618_32379)"/>
<mask id="path-3-inside-2_9618_32379" fill="white">
<path d="M16.9267 12.574C16.9267 12.574 19.382 2.24098 8.32974 2.70251C4.62359 4.16396 2 7.76362 2 11.9822C2.00342 12.4365 2.03778 12.8899 2.10282 13.3397C4.4288 1.6491 17.6801 5.43525 16.9267 12.5741L16.9267 12.574Z"/>
</mask>
<path d="M16.9267 12.574C16.9267 12.574 19.382 2.24098 8.32974 2.70251C4.62359 4.16396 2 7.76362 2 11.9822C2.00342 12.4365 2.03778 12.8899 2.10282 13.3397C4.4288 1.6491 17.6801 5.43525 16.9267 12.5741L16.9267 12.574Z" fill="#FAFAFA"/>
<path d="M16.9267 12.574L13.0101 11.6434L12.488 13.8406L14.0909 15.4314L16.9267 12.574ZM8.32974 2.70251L8.16178 -1.31962L7.48402 -1.29132L6.85297 -1.04248L8.32974 2.70251ZM2 11.9822H-2.02564V11.9974L-2.02553 12.0125L2 11.9822ZM2.10282 13.3397L-1.88137 13.9159L6.05107 14.1252L2.10282 13.3397ZM16.9267 12.5741L14.091 15.4315L20.0492 21.3446L20.9302 12.9966L16.9267 12.5741ZM16.9267 12.574C20.8432 13.5047 20.8437 13.5028 20.8442 13.5008C20.8443 13.5 20.8448 13.498 20.8452 13.4965C20.8459 13.4936 20.8466 13.4906 20.8473 13.4874C20.8488 13.4809 20.8505 13.4738 20.8523 13.466C20.8558 13.4504 20.86 13.4322 20.8645 13.4114C20.8737 13.3698 20.8848 13.3178 20.8973 13.2562C20.9222 13.1331 20.9527 12.9704 20.9846 12.7737C21.0479 12.3823 21.118 11.8445 21.1561 11.207C21.2302 9.96828 21.1953 8.17235 20.6244 6.29443C20.0383 4.36625 18.8512 2.25849 16.6053 0.725383C14.3794 -0.794052 11.536 -1.46053 8.16178 -1.31962L8.4977 6.72465C10.6496 6.63479 11.6439 7.08687 12.0661 7.37507C12.4683 7.64961 12.7396 8.03858 12.9212 8.63597C13.118 9.28362 13.1601 10.0421 13.1192 10.7264C13.0998 11.0505 13.0644 11.3163 13.0366 11.4882C13.0228 11.5731 13.0115 11.6319 13.0058 11.66C13.003 11.6739 13.0016 11.68 13.0022 11.6775C13.0025 11.6762 13.0032 11.6728 13.0045 11.6671C13.0052 11.6643 13.0059 11.6609 13.0069 11.657C13.0073 11.655 13.0078 11.6529 13.0084 11.6506C13.0086 11.6495 13.0091 11.6477 13.0092 11.6471C13.0096 11.6452 13.0101 11.6434 16.9267 12.574ZM6.85297 -1.04248C1.66891 1.00176 -2.02564 6.04663 -2.02564 11.9822H6.02564C6.02564 9.48061 7.57827 7.32617 9.8065 6.4475L6.85297 -1.04248ZM-2.02553 12.0125C-2.02073 12.6497 -1.97254 13.2855 -1.88137 13.9159L6.08701 12.7635C6.04809 12.4944 6.02757 12.2233 6.02553 11.952L-2.02553 12.0125ZM6.05107 14.1252C6.47785 11.9802 7.30515 10.9708 7.93387 10.4955C8.58233 10.0053 9.38239 9.80624 10.2389 9.8984C12.3701 10.1277 12.9882 11.5366 12.9233 12.1517L20.9302 12.9966C21.6186 6.47273 15.9878 2.41917 11.1002 1.89331C8.44726 1.60789 5.54546 2.2081 3.07867 4.07288C0.592129 5.95258 -1.10922 8.85385 -1.84543 12.5541L6.05107 14.1252ZM19.7625 9.71676L19.7624 9.71668L14.0909 15.4314L14.091 15.4315L19.7625 9.71676Z" fill="#FAFAFA" mask="url(#path-3-inside-2_9618_32379)"/>
<mask id="path-5-inside-3_9618_32379" fill="white">
<path d="M2.66198 15.6218C2.50241 4.3255 12.8803 7.21866 12.8803 7.21866C5.7571 6.18166 1.33104 19.1795 12.9752 21.9517C12.6515 21.9835 12.3231 22.0013 11.9906 22.0013C11.9821 22.0013 11.9737 22.0006 11.9654 21.9999C11.9571 21.9993 11.9487 21.9987 11.9403 21.9987C11.4993 21.9935 11.0591 21.9593 10.6226 21.8964C10.494 21.8791 10.3657 21.8595 10.2378 21.8376C9.8171 21.7667 9.40137 21.6684 8.99334 21.5439C8.94547 21.5289 8.89949 21.5111 8.85342 21.4934L8.85291 21.4932L8.85206 21.4928C8.81667 21.4792 8.78137 21.4655 8.74522 21.4533C8.40481 21.3365 8.07104 21.2013 7.74539 21.0481L7.67035 21.0129C7.58313 20.9726 7.49665 20.9307 7.41095 20.8873C7.03251 20.6946 6.66681 20.4778 6.31608 20.2384C6.2883 20.2192 6.26138 20.1985 6.23454 20.1777L6.23317 20.1769L6.23274 20.1764C6.21026 20.1593 6.1877 20.142 6.16454 20.1255C5.83301 19.8878 5.51629 19.6302 5.21616 19.354C5.19864 19.3377 5.18086 19.3217 5.16317 19.3058L5.16009 19.3031L5.15984 19.3029L5.15839 19.3016C5.13232 19.2781 5.10625 19.2548 5.08061 19.2306C4.01981 18.2194 3.19414 16.9874 2.66198 15.6218Z"/>
</mask>
<path d="M2.66198 15.6218C2.50241 4.3255 12.8803 7.21866 12.8803 7.21866C5.7571 6.18166 1.33104 19.1795 12.9752 21.9517C12.6515 21.9835 12.3231 22.0013 11.9906 22.0013C11.9821 22.0013 11.9737 22.0006 11.9654 21.9999C11.9571 21.9993 11.9487 21.9987 11.9403 21.9987C11.4993 21.9935 11.0591 21.9593 10.6226 21.8964C10.494 21.8791 10.3657 21.8595 10.2378 21.8376C9.8171 21.7667 9.40137 21.6684 8.99334 21.5439C8.94547 21.5289 8.89949 21.5111 8.85342 21.4934L8.85291 21.4932L8.85206 21.4928C8.81667 21.4792 8.78137 21.4655 8.74522 21.4533C8.40481 21.3365 8.07104 21.2013 7.74539 21.0481L7.67035 21.0129C7.58313 20.9726 7.49665 20.9307 7.41095 20.8873C7.03251 20.6946 6.66681 20.4778 6.31608 20.2384C6.2883 20.2192 6.26138 20.1985 6.23454 20.1777L6.23317 20.1769L6.23274 20.1764C6.21026 20.1593 6.1877 20.142 6.16454 20.1255C5.83301 19.8878 5.51629 19.6302 5.21616 19.354C5.19864 19.3377 5.18086 19.3217 5.16317 19.3058L5.16009 19.3031L5.15984 19.3029L5.15839 19.3016C5.13232 19.2781 5.10625 19.2548 5.08061 19.2306C4.01981 18.2194 3.19414 16.9874 2.66198 15.6218Z" fill="white" fill-opacity="0.9"/>
<path d="M12.8803 7.21866L12.3004 11.2023L13.9614 3.34089L12.8803 7.21866ZM12.9752 21.9517L13.3687 25.9581L13.9076 18.0355L12.9752 21.9517ZM11.9654 21.9999L12.2963 17.9879L12.2757 17.9862L12.2551 17.9847L11.9654 21.9999ZM11.9403 21.9987L11.8935 26.024L11.9169 26.0243H11.9403V21.9987ZM10.6226 21.8964L11.1967 17.9119L11.1789 17.9094L11.1612 17.907L10.6226 21.8964ZM10.2378 21.8376L10.9153 17.8694L10.9072 17.868L10.2378 21.8376ZM8.99334 21.5439L7.79259 25.3863L7.8054 25.3903L7.81824 25.3942L8.99334 21.5439ZM8.85342 21.4934L7.04944 25.0922L7.2259 25.1807L7.41017 25.2515L8.85342 21.4934ZM8.85291 21.4932L10.6569 17.8944L10.5049 17.8182L10.347 17.7551L8.85291 21.4932ZM8.85206 21.4928L10.3462 17.7547L10.3248 17.7462L10.3033 17.7379L8.85206 21.4928ZM8.74522 21.4533L7.4394 25.2612L7.44769 25.2641L7.45598 25.2669L8.74522 21.4533ZM7.74539 21.0481L9.45864 17.4053L9.45551 17.4038L7.74539 21.0481ZM7.67035 21.0129L9.38047 17.3686L9.36989 17.3636L9.35928 17.3587L7.67035 21.0129ZM7.41095 20.8873L5.58425 24.4746L5.59082 24.478L7.41095 20.8873ZM6.31608 20.2384L4.02464 23.5482L4.03543 23.5557L4.04626 23.5631L6.31608 20.2384ZM6.23454 20.1777L8.69831 16.9941L8.53863 16.8705L8.36739 16.7635L6.23454 20.1777ZM6.23317 20.1769L3.38553 23.0223L3.71045 23.3475L4.10032 23.5911L6.23317 20.1769ZM6.23274 20.1764L9.08039 17.331L8.88714 17.1376L8.66952 16.9721L6.23274 20.1764ZM6.16454 20.1255L3.8192 23.3974L3.82926 23.4046L6.16454 20.1255ZM5.21616 19.354L2.47966 22.3065L2.48996 22.316L5.21616 19.354ZM5.16317 19.3058L7.85379 16.3114L7.8457 16.3042L7.83758 16.297L5.16317 19.3058ZM5.16009 19.3031L7.83451 16.2942L7.62475 16.1078L7.39115 15.9523L5.16009 19.3031ZM5.15984 19.3029L2.40007 22.2337L2.64674 22.466L2.92878 22.6538L5.15984 19.3029ZM5.15839 19.3016L7.91816 16.3708L7.88379 16.3384L7.84868 16.3069L5.15839 19.3016ZM5.08061 19.2306L2.30289 22.1444L2.31054 22.1517L2.31823 22.1589L5.08061 19.2306ZM6.68722 15.565C6.65583 13.343 7.14631 12.3277 7.45584 11.8987C7.7474 11.4946 8.1474 11.2347 8.75169 11.073C9.40997 10.8969 10.1776 10.8821 10.8702 10.9497C11.198 10.9817 11.4666 11.0279 11.6405 11.0629C11.7264 11.0802 11.786 11.0941 11.8147 11.1011C11.8289 11.1045 11.8352 11.1062 11.8329 11.1056C11.8317 11.1053 11.8284 11.1044 11.8228 11.1029C11.8201 11.1022 11.8167 11.1012 11.8128 11.1002C11.8108 11.0996 11.8087 11.0991 11.8065 11.0984C11.8054 11.0981 11.8036 11.0976 11.803 11.0975C11.8012 11.097 11.7993 11.0964 12.8803 7.21866C13.9614 3.34089 13.9594 3.34035 13.9574 3.3398C13.9567 3.3396 13.9547 3.33903 13.9533 3.33863C13.9504 3.33784 13.9473 3.337 13.9441 3.33611C13.9377 3.33435 13.9306 3.33241 13.9228 3.33031C13.9073 3.32611 13.8891 3.32126 13.8683 3.31583C13.8267 3.30497 13.7747 3.29176 13.713 3.27679C13.5897 3.24688 13.4265 3.20966 13.229 3.1699C12.8359 3.0908 12.295 2.99925 11.6524 2.93652C10.4041 2.81466 8.58721 2.7826 6.67095 3.29524C4.7007 3.82233 2.53614 4.95714 0.926716 7.18768C-0.66474 9.39332 -1.41166 12.2525 -1.36326 15.6787L6.68722 15.565ZM13.4603 3.23502C7.01096 2.29612 2.67321 7.66548 1.91258 12.5355C1.50069 15.1727 1.97274 18.0987 3.74514 20.6383C5.52888 23.1941 8.3709 24.9937 12.0429 25.8679L13.9076 18.0355C11.7574 17.5236 10.7862 16.659 10.3475 16.0304C9.89742 15.3856 9.73791 14.6072 9.86742 13.778C10.1896 11.7153 11.6265 11.1042 12.3004 11.2023L13.4603 3.23502ZM12.5818 17.9454C12.3761 17.9656 12.1796 17.9757 11.9906 17.9757V26.0269C12.4666 26.0269 12.9268 26.0015 13.3687 25.9581L12.5818 17.9454ZM11.9906 17.9757C12.0921 17.9757 12.1738 17.9797 12.2234 17.9827C12.2684 17.9855 12.3057 17.9887 12.2963 17.9879L11.6345 26.012C11.6355 26.012 11.6482 26.0131 11.663 26.0142C11.6788 26.0154 11.703 26.0172 11.7324 26.019C11.7904 26.0226 11.8806 26.0269 11.9906 26.0269V17.9757ZM12.2551 17.9847C12.2566 17.9848 12.2582 17.985 12.2558 17.9848C12.2545 17.9847 12.2502 17.9844 12.245 17.984C12.2349 17.9833 12.2146 17.9819 12.1893 17.9804C12.1399 17.9775 12.051 17.973 11.9403 17.973V26.0243C11.838 26.0243 11.7575 26.0202 11.7165 26.0178C11.6954 26.0165 11.6792 26.0154 11.6733 26.015C11.6702 26.0147 11.668 26.0146 11.6687 26.0146C11.6689 26.0146 11.669 26.0146 11.6694 26.0147C11.6697 26.0147 11.6702 26.0147 11.6707 26.0148C11.6718 26.0149 11.6736 26.015 11.6756 26.0151L12.2551 17.9847ZM11.9872 17.9733C11.723 17.9702 11.459 17.9497 11.1967 17.9119L10.0485 25.8809C10.6593 25.9689 11.2756 26.0168 11.8935 26.024L11.9872 17.9733ZM11.1612 17.907C11.079 17.8959 10.997 17.8834 10.9153 17.8694L9.56029 25.8058C9.73439 25.8356 9.90897 25.8623 10.084 25.8859L11.1612 17.907ZM10.9072 17.868C10.6589 17.8262 10.412 17.7679 10.1684 17.6935L7.81824 25.3942C8.39072 25.5689 8.97533 25.7072 9.56838 25.8072L10.9072 17.868ZM10.1941 17.7015C10.2518 17.7195 10.2935 17.7346 10.3093 17.7404C10.3175 17.7434 10.3217 17.745 10.3192 17.744C10.3153 17.7425 10.3114 17.7411 10.2967 17.7354L7.41017 25.2515C7.42928 25.2588 7.59942 25.3259 7.79259 25.3863L10.1941 17.7015ZM10.6574 17.8946L10.6569 17.8944L7.04893 25.092L7.04944 25.0922L10.6574 17.8946ZM10.347 17.7551L10.3462 17.7547L7.35795 25.2309L7.35881 25.2313L10.347 17.7551ZM10.3033 17.7379C10.2839 17.7304 10.1667 17.6844 10.0345 17.6397L7.45598 25.2669C7.42014 25.2548 7.39485 25.2454 7.38668 25.2423C7.38237 25.2407 7.38063 25.24 7.38329 25.241C7.38668 25.2423 7.39049 25.2438 7.40086 25.2478L10.3033 17.7379ZM10.051 17.6453C9.84934 17.5761 9.65158 17.496 9.45864 17.4053L6.03214 24.691C6.4905 24.9066 6.96028 25.0969 7.4394 25.2612L10.051 17.6453ZM9.45551 17.4038L9.38047 17.3686L5.96023 24.6573L6.03527 24.6925L9.45551 17.4038ZM9.35928 17.3587C9.31617 17.3388 9.27343 17.3181 9.23108 17.2966L5.59082 24.478C5.71987 24.5434 5.85009 24.6064 5.98142 24.6671L9.35928 17.3587ZM9.23764 17.3C9.01237 17.1852 8.79468 17.0562 8.58589 16.9137L4.04626 23.5631C4.53894 23.8995 5.05265 24.2039 5.58425 24.4746L9.23764 17.3ZM8.60751 16.9285C8.64749 16.9562 8.67685 16.978 8.69072 16.9884C8.70321 16.9978 8.71031 17.0033 8.69831 16.9941L3.77076 23.3614C3.79426 23.3795 3.89844 23.4609 4.02464 23.5482L8.60751 16.9285ZM8.36739 16.7635L8.36602 16.7627L4.10032 23.5911L4.10168 23.5919L8.36739 16.7635ZM9.08081 17.3314L9.08039 17.331L3.3851 23.0219L3.38553 23.0223L9.08081 17.3314ZM8.66952 16.9721C8.63588 16.9465 8.69213 16.9893 8.65283 16.9594C8.64479 16.9533 8.63287 16.9442 8.61916 16.9339C8.59217 16.9136 8.55034 16.8824 8.49981 16.8464L3.82926 23.4046C3.8019 23.3851 3.78293 23.3708 3.77864 23.3676C3.77627 23.3658 3.77565 23.3653 3.77889 23.3678C3.78052 23.369 3.78229 23.3704 3.78532 23.3727C3.78799 23.3747 3.79188 23.3777 3.79597 23.3808L8.66952 16.9721ZM8.50986 16.8536C8.31147 16.7114 8.12196 16.5572 7.94236 16.3919L2.48996 22.316C2.91063 22.7032 3.35454 23.0643 3.81922 23.3974L8.50986 16.8536ZM7.95265 16.4014C7.90885 16.3608 7.86848 16.3246 7.85379 16.3114L2.47256 22.3002C2.47704 22.3043 2.48 22.3069 2.48263 22.3093C2.48513 22.3115 2.4865 22.3128 2.48716 22.3134C2.48864 22.3147 2.48552 22.3119 2.47967 22.3065L7.95265 16.4014ZM7.83758 16.297L7.83451 16.2942L2.48568 22.312L2.48876 22.3147L7.83758 16.297ZM7.39115 15.9523L7.3909 15.9521L2.92878 22.6538L2.92904 22.6539L7.39115 15.9523ZM7.91961 16.3722L7.91816 16.3708L2.39861 22.2323L2.40007 22.2337L7.91961 16.3722ZM7.84868 16.3069C7.84685 16.3052 7.84506 16.3036 7.84345 16.3022C7.84178 16.3007 7.84031 16.2994 7.83887 16.2981C7.83598 16.2955 7.8337 16.2934 7.83169 16.2916C7.8276 16.2879 7.8258 16.2863 7.8252 16.2858C7.82379 16.2845 7.83103 16.291 7.84299 16.3023L2.31823 22.1589C2.38703 22.2238 2.45345 22.2831 2.46809 22.2962L7.84868 16.3069ZM7.85832 16.3168C7.22435 15.7125 6.7309 14.9762 6.41287 14.1601L-1.08891 17.0835C-0.34263 18.9986 0.815264 20.7262 2.30289 22.1444L7.85832 16.3168Z" fill="#FAFAFA" mask="url(#path-5-inside-3_9618_32379)"/>
<path d="M15.4822 21.3312C4.33575 21.2423 7.11677 11.0137 7.11677 11.0137C5.97985 18.1061 19.0076 22.639 21.9524 11.0664C21.9797 11.3687 21.9988 11.6738 21.9988 11.9832C21.9988 12.0209 21.9962 12.0581 21.9935 12.0951V12.0964C21.9909 12.1295 21.9886 12.1626 21.9881 12.196C21.9821 12.4675 21.974 12.7385 21.9471 13.0043C21.5565 16.8456 18.9796 20.032 15.4821 21.3316L15.4822 21.3312Z" fill="#FAFAFA"/>
<path d="M14.8013 11.9836C14.8013 12.5366 14.637 13.0773 14.3292 13.5372C14.0211 13.9972 13.5836 14.3556 13.0719 14.5671C12.56 14.7786 11.9969 14.8339 11.4536 14.726C10.9104 14.6181 10.4113 14.3518 10.0194 13.9605C9.62769 13.5698 9.36093 13.0715 9.25293 12.5289C9.14494 11.9863 9.20057 11.4238 9.41278 10.9129C9.62516 10.4018 9.98432 9.96516 10.4448 9.65818C10.9058 9.35104 11.4473 9.18727 12.0012 9.1875C12.7437 9.18756 13.4558 9.48219 13.9813 10.0067C14.2413 10.2662 14.4475 10.5743 14.5882 10.9135C14.7289 11.2528 14.8014 11.6164 14.8014 11.9837L14.8013 11.9836Z" fill="white" fill-opacity="0.9"/>
</svg>
