<svg width="124" height="97" viewBox="0 0 124 97" fill="none" xmlns="http://www.w3.org/2000/svg">
<g clip-path="url(#clip0_4666_48591)">
<path d="M104.864 8.90137C96.7648 5.11189 88.1966 2.41929 79.3858 0.894775C78.2883 2.87894 77.0061 5.54764 76.1218 7.67073C66.6221 6.24231 57.2098 6.24231 47.8848 7.67073C47.001 5.54812 45.6898 2.87894 44.5822 0.894775C35.7627 2.42 27.1872 5.11945 19.0843 8.92115C2.96016 33.2873 -1.41098 57.0475 0.774348 80.4715C11.4689 88.4579 21.8331 93.3095 32.0226 96.4842C34.5549 93.0018 36.7935 89.3149 38.7151 85.4616C35.0566 84.0688 31.5297 82.3523 28.1763 80.3326C29.0588 79.6785 29.9205 78.9969 30.7601 78.2886C51.0803 87.7931 73.1593 87.7931 93.2373 78.2886C94.0806 78.9922 94.942 79.6737 95.8206 80.3326C92.4619 82.3576 88.9284 84.0775 85.2625 85.4717C87.1951 89.3407 89.4296 93.0311 91.955 96.4939C102.154 93.3196 112.528 88.468 123.223 80.4715C125.787 53.3175 118.842 29.7749 104.864 8.90089V8.90137ZM41.4837 66.0662C35.3836 66.0662 30.3809 60.3714 30.3809 53.4367C30.3809 46.502 35.2769 40.7975 41.4837 40.7975C47.6908 40.7975 52.693 46.4919 52.5864 53.4367C52.596 60.3714 47.6908 66.0662 41.4837 66.0662ZM82.5133 66.0662C76.4132 66.0662 71.411 60.3714 71.411 53.4367C71.411 46.502 76.3066 40.7975 82.5133 40.7975C88.7205 40.7975 93.7226 46.4919 93.616 53.4367C93.616 60.3714 88.7205 66.0662 82.5133 66.0662Z" fill="#F9FAFB"/>
</g>
<defs>
<clipPath id="clip0_4666_48591">
<rect width="123.497" height="96" fill="white" transform="translate(0.25 0.894775)"/>
</clipPath>
</defs>
</svg>
