<svg width="286" height="234" viewBox="0 0 286 234" fill="none" xmlns="http://www.w3.org/2000/svg">
<rect x="1.12109" y="33.1309" width="159" height="89" rx="7.5" fill="#F3F4F6" stroke="#D1D5DB"/>
<rect x="115.82" y="144.094" width="159" height="89" rx="7.5" fill="#F3F4F6" stroke="#D1D5DB"/>
<rect x="185.82" y="33.1309" width="89" height="89" rx="44.5" fill="#F3F4F6" stroke="#D1D5DB"/>
<rect x="1.12109" y="144.094" width="89" height="89" rx="44.5" fill="#F3F4F6" stroke="#D1D5DB"/>
<path d="M274.765 7.28027C274.92 6.81102 275.589 6.82667 275.722 7.30265L276.812 11.2172C276.955 11.7299 277.359 12.1285 277.874 12.2647L281.694 13.2755C282.186 13.4059 282.191 14.1038 281.7 14.2405L277.887 15.302C277.357 15.4496 276.95 15.8756 276.827 16.412L275.919 20.3755C275.808 20.8615 275.131 20.9029 274.962 20.4341L273.452 16.2674C273.284 15.8032 272.898 15.4515 272.42 15.3269L268.958 14.4243C268.477 14.299 268.454 13.625 268.925 13.4666L272.488 12.2682C272.936 12.1176 273.286 11.7649 273.434 11.3162L274.765 7.28027Z" stroke="#D1D5DB"/>
<circle cx="218.961" cy="4" r="3.5" stroke="#D1D5DB"/>
<circle cx="280.383" cy="47.2012" r="2.5" stroke="#D1D5DB"/>
</svg>
