<svg width="24" height="25" viewBox="0 0 24 25" fill="none" xmlns="http://www.w3.org/2000/svg">
<path d="M11.9841 5.75C8.33067 5.75 4.58301 7.86453 1.6327 12.0936C1.54849 12.2156 1.50234 12.3599 1.50009 12.5082C1.49783 12.6564 1.53958 12.802 1.62004 12.9266C3.88692 16.475 7.58442 19.25 11.9841 19.25C16.336 19.25 20.1094 16.4666 22.3805 12.9102C22.4591 12.7881 22.5009 12.6459 22.5009 12.5007C22.5009 12.3555 22.4591 12.2134 22.3805 12.0912C20.1043 8.57562 16.3032 5.75 11.9841 5.75Z" stroke="#4B5563" stroke-linecap="round" stroke-linejoin="round"/>
<path d="M12 16.25C14.0711 16.25 15.75 14.5711 15.75 12.5C15.75 10.4289 14.0711 8.75 12 8.75C9.92893 8.75 8.25 10.4289 8.25 12.5C8.25 14.5711 9.92893 16.25 12 16.25Z" stroke="#4B5563" stroke-miterlimit="10"/>
</svg>
