<svg width="24" height="25" viewBox="0 0 24 25" fill="none" xmlns="http://www.w3.org/2000/svg">
<g clip-path="url(#clip0_3212:31237)">
<path d="M5.4888 20.9343V11.7096L2.62792 9.0923L0.0625 7.63989V19.3064C0.0625 20.2072 0.792293 20.9343 1.69043 20.9343H5.4888Z" fill="#4285F4"/>
<path d="M18.5117 20.9344H22.3101C23.2109 20.9344 23.938 20.2045 23.938 19.3064V7.64001L21.0323 9.30357L18.5117 11.7096V20.9344Z" fill="#34A853"/>
<path d="M5.49085 11.7095L5.10156 8.10515L5.49085 4.6554L12.0024 9.53908L18.5139 4.6554L18.9494 7.9189L18.5139 11.7095L12.0024 16.5932L5.49085 11.7095Z" fill="#EA4335"/>
<path d="M18.5117 4.65542V11.7096L23.938 7.63987V5.46933C23.938 3.45623 21.64 2.30861 20.0312 3.51592L18.5117 4.65542Z" fill="#FBBC04"/>
<path d="M0.0625 7.63979L2.55816 9.51161L5.4888 11.7095V4.65534L3.96934 3.51584C2.35773 2.30844 0.0625 3.45615 0.0625 5.46916V7.6397V7.63979Z" fill="#C5221F"/>
</g>
<defs>
<clipPath id="clip0_3212:31237">
<rect width="23.8756" height="18" fill="white" transform="translate(0.0625 3.02295)"/>
</clipPath>
</defs>
</svg>
