<svg width="25" height="24" viewBox="0 0 25 24" fill="none" xmlns="http://www.w3.org/2000/svg">
<path fill-rule="evenodd" clip-rule="evenodd" d="M6.21571 14.6411C6.21593 14.917 6.16173 15.1902 6.05622 15.4452C5.95071 15.7001 5.79596 15.9317 5.60082 16.1268C5.40568 16.3219 5.17398 16.4765 4.919 16.5819C4.66402 16.6873 4.39075 16.7414 4.11483 16.7411C3.83906 16.7412 3.56597 16.687 3.31118 16.5815C3.05639 16.4759 2.82489 16.3212 2.62993 16.1262C2.43497 15.9312 2.28036 15.6996 2.17495 15.4448C2.06955 15.1899 2.01541 14.9168 2.01563 14.6411C2.01541 14.3652 2.06958 14.092 2.17503 13.8371C2.28049 13.5823 2.43517 13.3507 2.63022 13.1556C2.82527 12.9606 3.05687 12.8059 3.31176 12.7004C3.56664 12.595 3.83982 12.5408 4.11567 12.541H6.21654V14.6411H6.21571ZM7.26573 14.6411C7.26551 14.3652 7.31968 14.092 7.42514 13.8371C7.5306 13.5823 7.68528 13.3507 7.88033 13.1556C8.07538 12.9606 8.30697 12.8059 8.56186 12.7004C8.81675 12.595 9.08993 12.5408 9.36577 12.541C9.64162 12.5408 9.91479 12.595 10.1697 12.7004C10.4246 12.8059 10.6562 12.9606 10.8512 13.1556C11.0463 13.3507 11.2009 13.5823 11.3064 13.8371C11.4119 14.092 11.466 14.3652 11.4658 14.6411V19.892C11.466 20.1678 11.4119 20.441 11.3064 20.6959C11.2009 20.9508 11.0463 21.1824 10.8512 21.3774C10.6562 21.5725 10.4246 21.7272 10.1697 21.8326C9.91479 21.9381 9.64162 21.9923 9.36577 21.992C9.08993 21.9923 8.81675 21.9381 8.56186 21.8326C8.30697 21.7272 8.07538 21.5725 7.88033 21.3774C7.68528 21.1824 7.5306 20.9508 7.42514 20.6959C7.31968 20.441 7.26551 20.1678 7.26573 19.892V14.6411Z" fill="#E01E5A"/>
<path fill-rule="evenodd" clip-rule="evenodd" d="M9.36685 6.20873C9.09094 6.20895 8.81769 6.15476 8.56275 6.04924C8.30781 5.94373 8.07618 5.78898 7.88111 5.59384C7.68605 5.3987 7.53139 5.16701 7.42598 4.91202C7.32057 4.65704 7.26648 4.38377 7.26681 4.10785C7.26659 3.83201 7.32076 3.55883 7.42622 3.30394C7.53168 3.04906 7.68636 2.81746 7.88141 2.62241C8.07646 2.42736 8.30805 2.27268 8.56294 2.16722C8.81783 2.06176 9.09101 2.00759 9.36685 2.00781C9.6427 2.00759 9.91588 2.06176 10.1708 2.16722C10.4257 2.27268 10.6572 2.42736 10.8523 2.62241C11.0473 2.81746 11.202 3.04906 11.3075 3.30394C11.4129 3.55883 11.4671 3.83201 11.4669 4.10785V6.20957H9.36769L9.36685 6.20873ZM9.36685 7.27462C9.6427 7.27441 9.91588 7.32857 10.1708 7.43403C10.4257 7.53949 10.6572 7.69417 10.8523 7.88922C11.0473 8.08427 11.202 8.31587 11.3075 8.57076C11.4129 8.82564 11.4671 9.09882 11.4669 9.37467C11.4671 9.65051 11.4129 9.92369 11.3075 10.1786C11.202 10.4335 11.0473 10.6651 10.8523 10.8601C10.6572 11.0552 10.4257 11.2098 10.1708 11.3153C9.91588 11.4208 9.6427 11.4749 9.36685 11.4747H4.10004C3.82427 11.4749 3.55116 11.4208 3.29632 11.3154C3.04149 11.21 2.80993 11.0554 2.61489 10.8604C2.41985 10.6654 2.26516 10.4339 2.15965 10.1792C2.05414 9.92437 1.99989 9.65127 2 9.3755C1.99978 9.09966 2.05395 8.82648 2.15941 8.57159C2.26487 8.3167 2.41955 8.08511 2.6146 7.89006C2.80965 7.69501 3.04124 7.54033 3.29613 7.43487C3.55102 7.32941 3.8242 7.27524 4.10004 7.27546H9.36769L9.36685 7.27462Z" fill="#36C5F0"/>
<path fill-rule="evenodd" clip-rule="evenodd" d="M17.7861 9.37467C17.7859 9.09875 17.8401 8.82551 17.9456 8.57056C18.0511 8.31562 18.2059 8.08399 18.401 7.88893C18.5961 7.69387 18.8278 7.5392 19.0828 7.43379C19.3378 7.32838 19.6111 7.2743 19.887 7.27463C20.1628 7.27441 20.436 7.32858 20.6909 7.43403C20.9458 7.53949 21.1774 7.69417 21.3724 7.88922C21.5675 8.08428 21.7222 8.31587 21.8276 8.57076C21.9331 8.82564 21.9872 9.09883 21.987 9.37467C21.9872 9.65051 21.9331 9.92369 21.8276 10.1786C21.7222 10.4335 21.5675 10.6651 21.3724 10.8601C21.1774 11.0552 20.9458 11.2098 20.6909 11.3153C20.436 11.4208 20.1628 11.4749 19.887 11.4747H17.7861V9.3755V9.37467ZM16.7361 9.37467C16.7363 9.65051 16.6821 9.92369 16.5767 10.1786C16.4712 10.4335 16.3165 10.6651 16.1215 10.8601C15.9264 11.0552 15.6948 11.2098 15.4399 11.3153C15.1851 11.4208 14.9119 11.4749 14.636 11.4747C14.3601 11.475 14.0869 11.421 13.8319 11.3155C13.5769 11.2101 13.3452 11.0555 13.1501 10.8604C12.9549 10.6653 12.8002 10.4337 12.6946 10.1788C12.5891 9.92383 12.5349 9.65058 12.5352 9.37467V4.10786C12.5349 3.83194 12.5891 3.55869 12.6946 3.30375C12.8002 3.04881 12.9549 2.81718 13.1501 2.62212C13.3452 2.42705 13.5769 2.27239 13.8319 2.16698C14.0869 2.06157 14.3601 2.00748 14.636 2.00781C14.9119 2.00759 15.1851 2.06176 15.4399 2.16722C15.6948 2.27268 15.9264 2.42736 16.1215 2.62241C16.3165 2.81746 16.4712 3.04906 16.5767 3.30394C16.6821 3.55883 16.7363 3.83201 16.7361 4.10786V9.3755V9.37467Z" fill="#2EB67D"/>
<path fill-rule="evenodd" clip-rule="evenodd" d="M14.6352 17.7911C14.911 17.7909 15.1842 17.8451 15.4391 17.9505C15.694 18.056 15.9256 18.2107 16.1206 18.4057C16.3157 18.6008 16.4704 18.8324 16.5758 19.0873C16.6813 19.3421 16.7355 19.6153 16.7352 19.8912C16.7356 20.1671 16.6815 20.4403 16.5761 20.6953C16.4707 20.9503 16.316 21.182 16.1209 21.3771C15.9259 21.5723 15.6942 21.727 15.4393 21.8326C15.1844 21.9381 14.9111 21.9923 14.6352 21.992C14.3593 21.9923 14.086 21.9381 13.8311 21.8326C13.5762 21.727 13.3445 21.5723 13.1495 21.3771C12.9544 21.182 12.7997 20.9503 12.6943 20.6953C12.5889 20.4403 12.5348 20.1671 12.5352 19.8912V17.7911H14.6352ZM14.6352 16.7411C14.3594 16.7413 14.0862 16.6872 13.8313 16.5817C13.5764 16.4762 13.3448 16.3216 13.1498 16.1265C12.9547 15.9315 12.8 15.6999 12.6946 15.445C12.5891 15.1901 12.5349 14.9169 12.5352 14.6411C12.5349 14.3652 12.5891 14.092 12.6946 13.8371C12.8 13.5823 12.9547 13.3507 13.1498 13.1556C13.3448 12.9606 13.5764 12.8059 13.8313 12.7004C14.0862 12.595 14.3594 12.5408 14.6352 12.541H19.902C20.1779 12.5408 20.451 12.595 20.7059 12.7004C20.9608 12.8059 21.1924 12.9606 21.3875 13.1556C21.5825 13.3507 21.7372 13.5823 21.8426 13.8371C21.9481 14.092 22.0023 14.3652 22.0021 14.6411C22.0023 14.9169 21.9481 15.1901 21.8426 15.445C21.7372 15.6999 21.5825 15.9315 21.3875 16.1265C21.1924 16.3216 20.9608 16.4762 20.7059 16.5817C20.451 16.6872 20.1779 16.7413 19.902 16.7411H14.6352Z" fill="#ECB22E"/>
</svg>
