<svg width="195" height="56" viewBox="0 0 195 56" fill="none" xmlns="http://www.w3.org/2000/svg">
<path d="M35.9489 12.9871C34.6328 11.671 32.499 11.671 31.1829 12.9871L24.9871 19.1829C23.671 20.499 23.671 22.6328 24.9871 23.9489L26.6552 25.617C27.9713 26.9331 27.9713 29.0669 26.6552 30.383L24.9871 32.0511C23.671 33.3672 23.671 35.501 24.9871 36.8171L31.1829 43.0129C32.499 44.329 34.6328 44.329 35.9489 43.0129L37.617 41.3448C38.9331 40.0287 41.0669 40.0287 42.383 41.3448L44.0511 43.0129C45.3672 44.329 47.501 44.329 48.8171 43.0129L55.0129 36.8171C56.329 35.501 56.329 33.3672 55.0129 32.0511L53.3448 30.383C52.0287 29.0669 52.0287 26.9331 53.3448 25.617L55.0129 23.9489C56.329 22.6328 56.329 20.499 55.0129 19.1829L48.8171 12.9871C47.501 11.671 45.3672 11.671 44.0511 12.9871L42.383 14.6552C41.0669 15.9713 38.9331 15.9713 37.617 14.6552L35.9489 12.9871Z" fill="url(#paint0_linear)"/>
<path d="M66.1978 23.5359C65.9473 23.7864 65.6468 23.9116 65.2961 23.9116C64.9455 23.9116 64.6387 23.7864 64.3757 23.5359C64.1252 23.2729 64 22.9661 64 22.6155C64 22.2648 64.1252 21.9643 64.3757 21.7138C64.6262 21.4508 64.933 21.3193 65.2961 21.3193C65.6593 21.3193 65.9661 21.4508 66.2166 21.7138C66.467 21.9643 66.5923 22.2648 66.5923 22.6155C66.5923 22.9661 66.4608 23.2729 66.1978 23.5359ZM64.2818 34.7127V25.3204H66.3105V34.7127H64.2818Z" fill="#1F2937"/>
<path d="M73.6064 25.0762C74.6834 25.0762 75.5537 25.4206 76.2174 26.1094C76.8811 26.7982 77.213 27.7436 77.213 28.9459V34.7127H75.1843V29.1525C75.1843 28.4512 74.9964 27.9127 74.6207 27.537C74.2451 27.1613 73.7316 26.9735 73.0804 26.9735C72.3666 26.9735 71.7905 27.1989 71.3522 27.6497C70.9139 28.088 70.6948 28.7643 70.6948 29.6785V34.7127H68.666V25.3204H70.6948V26.5227C71.3084 25.5584 72.2789 25.0762 73.6064 25.0762Z" fill="#1F2937"/>
<path d="M83.8306 34.9569C82.4155 34.9569 81.2321 34.481 80.2803 33.5293C79.3411 32.5775 78.8715 31.4066 78.8715 30.0166C78.8715 28.614 79.3411 27.4431 80.2803 26.5039C81.2321 25.5521 82.4155 25.0762 83.8306 25.0762C84.7448 25.0762 85.5776 25.2954 86.3289 25.7337C87.0803 26.172 87.6439 26.7606 88.0195 27.4994L86.2726 28.5138C86.0597 28.063 85.7341 27.7123 85.2958 27.4619C84.87 27.1989 84.3753 27.0674 83.8118 27.0674C82.9853 27.0674 82.2903 27.3492 81.7267 27.9127C81.1757 28.4762 80.9002 29.1775 80.9002 30.0166C80.9002 30.8556 81.1757 31.5569 81.7267 32.1204C82.2903 32.684 82.9853 32.9657 83.8118 32.9657C84.3628 32.9657 84.8575 32.8343 85.2958 32.5713C85.7466 32.3083 86.0847 31.9576 86.3102 31.5193L88.0571 32.5149C87.6564 33.2663 87.0803 33.8611 86.3289 34.2994C85.5776 34.7378 84.7448 34.9569 83.8306 34.9569Z" fill="#1F2937"/>
<path d="M91.6072 26.8983C92.1207 25.7337 93.085 25.1514 94.5001 25.1514V27.3492C93.7236 27.2991 93.0474 27.4869 92.4713 27.9127C91.8953 28.326 91.6072 29.0147 91.6072 29.979V34.7127H89.5785V25.3204H91.6072V26.8983Z" fill="#1F2937"/>
<path d="M97.1554 30.8807C97.3057 31.5945 97.6501 32.1455 98.1886 32.5337C98.7271 32.9094 99.3845 33.0972 100.161 33.0972C101.238 33.0972 102.046 32.709 102.584 31.9326L104.256 32.9094C103.329 34.2744 101.958 34.9569 100.142 34.9569C98.6144 34.9569 97.3808 34.4936 96.4416 33.5669C95.5024 32.6276 95.0328 31.4442 95.0328 30.0166C95.0328 28.614 95.4961 27.4431 96.4228 26.5039C97.3495 25.5521 98.5392 25.0762 99.9919 25.0762C101.369 25.0762 102.496 25.5584 103.373 26.5227C104.262 27.4869 104.707 28.6578 104.707 30.0354C104.707 30.2483 104.682 30.53 104.632 30.8807H97.1554ZM97.1366 29.2276H102.659C102.522 28.4637 102.202 27.8877 101.701 27.4994C101.213 27.1112 100.637 26.9171 99.9731 26.9171C99.2217 26.9171 98.5956 27.1238 98.0947 27.537C97.5937 27.9503 97.2744 28.5138 97.1366 29.2276Z" fill="#1F2937"/>
<path d="M113.876 21.5635H115.904V34.7127H113.876V33.3602C113.112 34.4247 112.016 34.9569 110.588 34.9569C109.298 34.9569 108.196 34.481 107.282 33.5293C106.368 32.565 105.911 31.3941 105.911 30.0166C105.911 28.6265 106.368 27.4556 107.282 26.5039C108.196 25.5521 109.298 25.0762 110.588 25.0762C112.016 25.0762 113.112 25.6022 113.876 26.6541V21.5635ZM108.785 32.1768C109.348 32.7403 110.056 33.0221 110.908 33.0221C111.759 33.0221 112.467 32.7403 113.03 32.1768C113.594 31.6007 113.876 30.8807 113.876 30.0166C113.876 29.1525 113.594 28.4387 113.03 27.8751C112.467 27.2991 111.759 27.011 110.908 27.011C110.056 27.011 109.348 27.2991 108.785 27.8751C108.221 28.4387 107.94 29.1525 107.94 30.0166C107.94 30.8807 108.221 31.6007 108.785 32.1768Z" fill="#1F2937"/>
<path d="M120.185 23.5359C119.935 23.7864 119.634 23.9116 119.283 23.9116C118.933 23.9116 118.626 23.7864 118.363 23.5359C118.112 23.2729 117.987 22.9661 117.987 22.6155C117.987 22.2648 118.112 21.9643 118.363 21.7138C118.613 21.4508 118.92 21.3193 119.283 21.3193C119.646 21.3193 119.953 21.4508 120.204 21.7138C120.454 21.9643 120.579 22.2648 120.579 22.6155C120.579 22.9661 120.448 23.2729 120.185 23.5359ZM118.269 34.7127V25.3204H120.298V34.7127H118.269Z" fill="#1F2937"/>
<path d="M127.969 25.0762C129.259 25.0762 130.361 25.5521 131.275 26.5039C132.19 27.4556 132.647 28.6265 132.647 30.0166C132.647 31.3941 132.19 32.565 131.275 33.5293C130.361 34.481 129.259 34.9569 127.969 34.9569C126.542 34.9569 125.446 34.4247 124.682 33.3602V34.7127H122.653V21.5635H124.682V26.6541C125.446 25.6022 126.542 25.0762 127.969 25.0762ZM125.527 32.1768C126.091 32.7403 126.798 33.0221 127.65 33.0221C128.501 33.0221 129.209 32.7403 129.773 32.1768C130.336 31.6007 130.618 30.8807 130.618 30.0166C130.618 29.1525 130.336 28.4387 129.773 27.8751C129.209 27.2991 128.501 27.011 127.65 27.011C126.798 27.011 126.091 27.2991 125.527 27.8751C124.964 28.4387 124.682 29.1525 124.682 30.0166C124.682 30.8807 124.964 31.6007 125.527 32.1768Z" fill="#1F2937"/>
<path d="M134.485 34.7127V21H136.514V34.7127H134.485Z" fill="#1F2937"/>
<path d="M140.466 30.8807C140.617 31.5945 140.961 32.1455 141.499 32.5337C142.038 32.9094 142.695 33.0972 143.472 33.0972C144.549 33.0972 145.356 32.709 145.895 31.9326L147.567 32.9094C146.64 34.2744 145.269 34.9569 143.453 34.9569C141.925 34.9569 140.692 34.4936 139.752 33.5669C138.813 32.6276 138.344 31.4442 138.344 30.0166C138.344 28.614 138.807 27.4431 139.734 26.5039C140.66 25.5521 141.85 25.0762 143.303 25.0762C144.68 25.0762 145.807 25.5584 146.684 26.5227C147.573 27.4869 148.018 28.6578 148.018 30.0354C148.018 30.2483 147.993 30.53 147.942 30.8807H140.466ZM140.447 29.2276H145.97C145.832 28.4637 145.513 27.8877 145.012 27.4994C144.524 27.1112 143.948 26.9171 143.284 26.9171C142.533 26.9171 141.906 27.1238 141.405 27.537C140.905 27.9503 140.585 28.5138 140.447 29.2276Z" fill="#1F2937"/>
<defs>
<linearGradient id="paint0_linear" x1="28.1767" y1="16.6265" x2="51.9518" y2="39.6305" gradientUnits="userSpaceOnUse">
<stop stop-color="#4ADE80"/>
<stop offset="1" stop-color="#16A34A"/>
</linearGradient>
</defs>
</svg>
