<svg width="125" height="32" viewBox="0 0 125 32" fill="none" xmlns="http://www.w3.org/2000/svg">
<path d="M12.6052 0.987073C11.2891 -0.329024 9.15524 -0.329025 7.83914 0.987072L1.64333 7.18288C0.327236 8.49898 0.327236 10.6328 1.64333 11.9489L3.31143 13.617C4.62753 14.9331 4.62753 17.0669 3.31143 18.383L1.64332 20.0511C0.327226 21.3672 0.327226 23.501 1.64332 24.8171L7.83913 31.0129C9.15523 32.329 11.289 32.329 12.6051 31.0129L14.2732 29.3448C15.5893 28.0287 17.7232 28.0287 19.0393 29.3448L20.7074 31.0129C22.0235 32.329 24.1573 32.329 25.4734 31.0129L31.6692 24.8171C32.9853 23.501 32.9853 21.3672 31.6692 20.0511L30.0011 18.383C28.685 17.0669 28.685 14.9331 30.0011 13.617L31.6692 11.9489C32.9853 10.6328 32.9853 8.49898 31.6692 7.18289L25.4734 0.987074C24.1573 -0.329023 22.0234 -0.329021 20.7073 0.987076L19.0393 2.65517C17.7232 3.97127 15.5893 3.97127 14.2732 2.65517L12.6052 0.987073Z" fill="url(#paint0_linear)"/>
<path d="M42.854 11.5359C42.6036 11.7864 42.303 11.9116 41.9524 11.9116C41.6017 11.9116 41.2949 11.7864 41.0319 11.5359C40.7815 11.2729 40.6562 10.9661 40.6562 10.6155C40.6562 10.2648 40.7815 9.96427 41.0319 9.71381C41.2824 9.45083 41.5892 9.31934 41.9524 9.31934C42.3156 9.31934 42.6224 9.45083 42.8728 9.71381C43.1233 9.96427 43.2485 10.2648 43.2485 10.6155C43.2485 10.9661 43.117 11.2729 42.854 11.5359ZM40.938 22.7127V13.3204H42.9667V22.7127H40.938Z" fill="#FFFFFF"/>
<path d="M50.2626 13.0762C51.3396 13.0762 52.21 13.4206 52.8737 14.1094C53.5374 14.7982 53.8693 15.7436 53.8693 16.9459V22.7127H51.8405V17.1525C51.8405 16.4512 51.6527 15.9127 51.277 15.537C50.9013 15.1613 50.3879 14.9735 49.7367 14.9735C49.0229 14.9735 48.4468 15.1989 48.0085 15.6497C47.5702 16.088 47.351 16.7643 47.351 17.6785V22.7127H45.3223V13.3204H47.351V14.5227C47.9647 13.5584 48.9352 13.0762 50.2626 13.0762Z" fill="#FFFFFF"/>
<path d="M60.4868 22.9569C59.0717 22.9569 57.8883 22.481 56.9366 21.5293C55.9973 20.5775 55.5277 19.4066 55.5277 18.0166C55.5277 16.614 55.9973 15.4431 56.9366 14.5039C57.8883 13.5521 59.0717 13.0762 60.4868 13.0762C61.401 13.0762 62.2338 13.2954 62.9852 13.7337C63.7366 14.172 64.3001 14.7606 64.6758 15.4994L62.9288 16.5138C62.7159 16.063 62.3903 15.7123 61.952 15.4619C61.5263 15.1989 61.0316 15.0674 60.4681 15.0674C59.6415 15.0674 58.9465 15.3492 58.383 15.9127C57.832 16.4762 57.5565 17.1775 57.5565 18.0166C57.5565 18.8556 57.832 19.5569 58.383 20.1204C58.9465 20.684 59.6415 20.9657 60.4681 20.9657C61.0191 20.9657 61.5137 20.8343 61.952 20.5713C62.4029 20.3083 62.741 19.9576 62.9664 19.5193L64.7134 20.5149C64.3126 21.2663 63.7366 21.8611 62.9852 22.2994C62.2338 22.7378 61.401 22.9569 60.4868 22.9569Z" fill="#FFFFFF"/>
<path d="M68.2635 14.8983C68.7769 13.7337 69.7412 13.1514 71.1563 13.1514V15.3492C70.3799 15.2991 69.7036 15.4869 69.1276 15.9127C68.5515 16.326 68.2635 17.0147 68.2635 17.979V22.7127H66.2348V13.3204H68.2635V14.8983Z" fill="#FFFFFF"/>
<path d="M73.8117 18.8807C73.962 19.5945 74.3063 20.1455 74.8448 20.5337C75.3833 20.9094 76.0408 21.0972 76.8172 21.0972C77.8942 21.0972 78.7019 20.709 79.2404 19.9326L80.9122 20.9094C79.9855 22.2744 78.6143 22.9569 76.7984 22.9569C75.2706 22.9569 74.0371 22.4936 73.0979 21.5669C72.1586 20.6276 71.689 19.4442 71.689 18.0166C71.689 16.614 72.1524 15.4431 73.0791 14.5039C74.0058 13.5521 75.1955 13.0762 76.6481 13.0762C78.0257 13.0762 79.1527 13.5584 80.0294 14.5227C80.9185 15.4869 81.3631 16.6578 81.3631 18.0354C81.3631 18.2482 81.338 18.53 81.2879 18.8807H73.8117ZM73.7929 17.2276H79.3155C79.1778 16.4637 78.8585 15.8877 78.3575 15.4994C77.8691 15.1112 77.2931 14.9171 76.6294 14.9171C75.878 14.9171 75.2518 15.1238 74.7509 15.537C74.25 15.9503 73.9306 16.5138 73.7929 17.2276Z" fill="#FFFFFF"/>
<path d="M90.5318 9.56354H92.5606V22.7127H90.5318V21.3602C89.7679 22.4247 88.6722 22.9569 87.2445 22.9569C85.9547 22.9569 84.8526 22.481 83.9384 21.5293C83.0243 20.565 82.5672 19.3941 82.5672 18.0166C82.5672 16.6265 83.0243 15.4556 83.9384 14.5039C84.8526 13.5521 85.9547 13.0762 87.2445 13.0762C88.6722 13.0762 89.7679 13.6022 90.5318 14.6541V9.56354ZM85.4412 20.1768C86.0047 20.7403 86.7123 21.0221 87.5639 21.0221C88.4154 21.0221 89.123 20.7403 89.6865 20.1768C90.2501 19.6007 90.5318 18.8807 90.5318 18.0166C90.5318 17.1525 90.2501 16.4387 89.6865 15.8751C89.123 15.2991 88.4154 15.011 87.5639 15.011C86.7123 15.011 86.0047 15.2991 85.4412 15.8751C84.8777 16.4387 84.5959 17.1525 84.5959 18.0166C84.5959 18.8807 84.8777 19.6007 85.4412 20.1768Z" fill="#FFFFFF"/>
<path d="M96.8412 11.5359C96.5908 11.7864 96.2902 11.9116 95.9396 11.9116C95.5889 11.9116 95.2821 11.7864 95.0191 11.5359C94.7687 11.2729 94.6434 10.9661 94.6434 10.6155C94.6434 10.2648 94.7687 9.96427 95.0191 9.71381C95.2696 9.45083 95.5764 9.31934 95.9396 9.31934C96.3027 9.31934 96.6095 9.45083 96.86 9.71381C97.1105 9.96427 97.2357 10.2648 97.2357 10.6155C97.2357 10.9661 97.1042 11.2729 96.8412 11.5359ZM94.9252 22.7127V13.3204H96.9539V22.7127H94.9252Z" fill="#FFFFFF"/>
<path d="M104.626 13.0762C105.915 13.0762 107.017 13.5521 107.932 14.5039C108.846 15.4556 109.303 16.6265 109.303 18.0166C109.303 19.3941 108.846 20.565 107.932 21.5293C107.017 22.481 105.915 22.9569 104.626 22.9569C103.198 22.9569 102.102 22.4247 101.338 21.3602V22.7127H99.3095V9.56354H101.338V14.6541C102.102 13.6022 103.198 13.0762 104.626 13.0762ZM102.184 20.1768C102.747 20.7403 103.455 21.0221 104.306 21.0221C105.158 21.0221 105.865 20.7403 106.429 20.1768C106.992 19.6007 107.274 18.8807 107.274 18.0166C107.274 17.1525 106.992 16.4387 106.429 15.8751C105.865 15.2991 105.158 15.011 104.306 15.011C103.455 15.011 102.747 15.2991 102.184 15.8751C101.62 16.4387 101.338 17.1525 101.338 18.0166C101.338 18.8807 101.62 19.6007 102.184 20.1768Z" fill="#FFFFFF"/>
<path d="M111.142 22.7127V9H113.17V22.7127H111.142Z" fill="#FFFFFF"/>
<path d="M117.122 18.8807C117.273 19.5945 117.617 20.1455 118.156 20.5337C118.694 20.9094 119.352 21.0972 120.128 21.0972C121.205 21.0972 122.013 20.709 122.551 19.9326L124.223 20.9094C123.296 22.2744 121.925 22.9569 120.109 22.9569C118.581 22.9569 117.348 22.4936 116.409 21.5669C115.469 20.6276 115 19.4442 115 18.0166C115 16.614 115.463 15.4431 116.39 14.5039C117.317 13.5521 118.506 13.0762 119.959 13.0762C121.336 13.0762 122.464 13.5584 123.34 14.5227C124.229 15.4869 124.674 16.6578 124.674 18.0354C124.674 18.2482 124.649 18.53 124.599 18.8807H117.122ZM117.104 17.2276H122.626C122.489 16.4637 122.169 15.8877 121.668 15.4994C121.18 15.1112 120.604 14.9171 119.94 14.9171C119.189 14.9171 118.563 15.1238 118.062 15.537C117.561 15.9503 117.241 16.5138 117.104 17.2276Z" fill="#FFFFFF"/>
<defs>
<linearGradient id="paint0_linear" x1="4.83296" y1="4.62651" x2="28.6081" y2="27.6305" gradientUnits="userSpaceOnUse">
<stop stop-color="#4ADE80"/>
<stop offset="1" stop-color="#16A34A"/>
</linearGradient>
</defs>
</svg>