<svg width="89" height="24" viewBox="0 0 89 24" fill="none" xmlns="http://www.w3.org/2000/svg">
<path d="M9.77564 0.741129C8.78857 -0.245944 7.18821 -0.245944 6.20113 0.741128L1.55428 5.38799C0.567205 6.37506 0.567204 7.97542 1.55428 8.96249L2.80535 10.2136C3.79242 11.2006 3.79242 12.801 2.80535 13.7881L1.55427 15.0392C0.567197 16.0262 0.567197 17.6266 1.55427 18.6137L6.20113 23.2605C7.1882 24.2476 8.78856 24.2476 9.77563 23.2605L11.0267 22.0094C12.0138 21.0224 13.6141 21.0224 14.6012 22.0094L15.8523 23.2605C16.8394 24.2476 18.4397 24.2476 19.4268 23.2605L24.0737 18.6137C25.0607 17.6266 25.0607 16.0262 24.0737 15.0392L22.8226 13.7881C21.8355 12.801 21.8355 11.2006 22.8226 10.2136L24.0737 8.9625C25.0607 7.97542 25.0607 6.37506 24.0737 5.38799L19.4268 0.741129C18.4397 -0.245943 16.8394 -0.245942 15.8523 0.741131L14.6012 1.9922C13.6141 2.97927 12.0138 2.97928 11.0267 1.9922L9.77564 0.741129Z" fill="#F9FAFB" fill-opacity="0.8"/>
<path d="M31.6567 8.80299C31.4811 8.98328 31.2705 9.07342 31.0247 9.07342C30.779 9.07342 30.5639 8.98328 30.3796 8.80299C30.2041 8.61369 30.1163 8.39284 30.1163 8.14043C30.1163 7.88803 30.2041 7.67169 30.3796 7.4914C30.5552 7.3021 30.7702 7.20745 31.0247 7.20745C31.2793 7.20745 31.4943 7.3021 31.6698 7.4914C31.8454 7.67169 31.9331 7.88803 31.9331 8.14043C31.9331 8.39284 31.841 8.61369 31.6567 8.80299ZM30.3138 16.8483V10.0875H31.7356V16.8483H30.3138Z" fill="#F9FAFB" fill-opacity="0.8"/>
<path d="M36.849 9.91176C37.6038 9.91176 38.2137 10.1597 38.6789 10.6554C39.1441 11.1512 39.3767 11.8318 39.3767 12.6972V16.8483H37.9548V12.8459C37.9548 12.3411 37.8232 11.9535 37.5599 11.6831C37.2966 11.4126 36.9367 11.2774 36.4803 11.2774C35.9801 11.2774 35.5763 11.4397 35.2691 11.7642C34.962 12.0797 34.8084 12.5665 34.8084 13.2245V16.8483H33.3865V10.0875H34.8084V10.9529C35.2384 10.2588 35.9186 9.91176 36.849 9.91176Z" fill="#F9FAFB" fill-opacity="0.8"/>
<path d="M44.0146 17.0241C43.0228 17.0241 42.1934 16.6815 41.5264 15.9965C40.8681 15.3114 40.539 14.4685 40.539 13.4679C40.539 12.4583 40.8681 11.6155 41.5264 10.9394C42.1934 10.2543 43.0228 9.91176 44.0146 9.91176C44.6553 9.91176 45.239 10.0695 45.7656 10.385C46.2922 10.7005 46.6871 11.1242 46.9504 11.656L45.7261 12.3862C45.5769 12.0617 45.3487 11.8093 45.0415 11.629C44.7431 11.4397 44.3964 11.345 44.0014 11.345C43.4222 11.345 42.9351 11.5479 42.5401 11.9535C42.1539 12.3592 41.9608 12.864 41.9608 13.4679C41.9608 14.0719 42.1539 14.5767 42.5401 14.9823C42.9351 15.388 43.4222 15.5908 44.0014 15.5908C44.3876 15.5908 44.7343 15.4962 45.0415 15.3069C45.3574 15.1176 45.5944 14.8652 45.7524 14.5496L46.9767 15.2663C46.6959 15.8072 46.2922 16.2353 45.7656 16.5508C45.239 16.8663 44.6553 17.0241 44.0146 17.0241Z" fill="#F9FAFB" fill-opacity="0.8"/>
<path d="M49.4649 10.9443C50.0289 10.2458 50.507 10.1054 51.4923 10.1054V11.4781C50.9481 11.442 50.4742 11.647 50.0705 11.9535C49.6667 12.251 49.4649 12.7468 49.4649 13.4409V16.8483H48.043V10.0875H49.4649V10.9443Z" fill="#F9FAFB" fill-opacity="0.8"/>
<path d="M53.3533 14.0899C53.4586 14.6037 53.7 15.0004 54.0774 15.2798C54.4548 15.5502 54.9156 15.6855 55.4597 15.6855C56.2145 15.6855 56.7806 15.406 57.158 14.8471L58.3297 15.5502C57.6802 16.5328 56.7192 17.0241 55.4466 17.0241C54.3758 17.0241 53.5113 16.6906 52.853 16.0235C52.1948 15.3474 51.8656 14.4956 51.8656 13.4679C51.8656 12.4583 52.1904 11.6155 52.8399 10.9394C53.4893 10.2543 54.3231 9.91176 55.3412 9.91176C56.3067 9.91176 57.0966 10.2588 57.711 10.9529C58.3341 11.647 58.6457 12.4899 58.6457 13.4814C58.6457 13.6347 58.6281 13.8375 58.593 14.0899H53.3533ZM53.3401 12.9H57.2107C57.1141 12.3501 56.8903 11.9355 56.5393 11.656C56.197 11.3766 55.7932 11.2369 55.3281 11.2369C54.8015 11.2369 54.3626 11.3856 54.0116 11.6831C53.6605 11.9806 53.4367 12.3862 53.3401 12.9Z" fill="#F9FAFB" fill-opacity="0.8"/>
<path d="M65.0716 7.38323H66.4934V16.8483H65.0716V15.8748C64.5362 16.641 63.7683 17.0241 62.7677 17.0241C61.8637 17.0241 61.0913 16.6815 60.4506 15.9965C59.8099 15.3023 59.4896 14.4595 59.4896 13.4679C59.4896 12.4673 59.8099 11.6245 60.4506 10.9394C61.0913 10.2543 61.8637 9.91176 62.7677 9.91176C63.7683 9.91176 64.5362 10.2904 65.0716 11.0476V7.38323ZM61.5039 15.0229C61.8988 15.4285 62.3947 15.6314 62.9915 15.6314C63.5883 15.6314 64.0842 15.4285 64.4792 15.0229C64.8741 14.6082 65.0716 14.0899 65.0716 13.4679C65.0716 12.8459 64.8741 12.3321 64.4792 11.9265C64.0842 11.5118 63.5883 11.3045 62.9915 11.3045C62.3947 11.3045 61.8988 11.5118 61.5039 11.9265C61.1089 12.3321 60.9114 12.8459 60.9114 13.4679C60.9114 14.0899 61.1089 14.6082 61.5039 15.0229Z" fill="#F9FAFB" fill-opacity="0.8"/>
<path d="M69.4935 8.80299C69.318 8.98328 69.1074 9.07342 68.8616 9.07342C68.6159 9.07342 68.4008 8.98328 68.2165 8.80299C68.041 8.61369 67.9532 8.39284 67.9532 8.14043C67.9532 7.88803 68.041 7.67169 68.2165 7.4914C68.3921 7.3021 68.6071 7.20745 68.8616 7.20745C69.1161 7.20745 69.3312 7.3021 69.5067 7.4914C69.6822 7.67169 69.77 7.88803 69.77 8.14043C69.77 8.39284 69.6779 8.61369 69.4935 8.80299ZM68.1507 16.8483V10.0875H69.5725V16.8483H68.1507Z" fill="#F9FAFB" fill-opacity="0.8"/>
<path d="M74.9492 9.91176C75.8532 9.91176 76.6255 10.2543 77.2662 10.9394C77.9069 11.6245 78.2273 12.4673 78.2273 13.4679C78.2273 14.4595 77.9069 15.3023 77.2662 15.9965C76.6255 16.6815 75.8532 17.0241 74.9492 17.0241C73.9486 17.0241 73.1806 16.641 72.6453 15.8748V16.8483H71.2234V7.38323H72.6453V11.0476C73.1806 10.2904 73.9486 9.91176 74.9492 9.91176ZM73.2377 15.0229C73.6326 15.4285 74.1285 15.6314 74.7253 15.6314C75.3222 15.6314 75.8181 15.4285 76.213 15.0229C76.608 14.6082 76.8054 14.0899 76.8054 13.4679C76.8054 12.8459 76.608 12.3321 76.213 11.9265C75.8181 11.5118 75.3222 11.3045 74.7253 11.3045C74.1285 11.3045 73.6326 11.5118 73.2377 11.9265C72.8427 12.3321 72.6453 12.8459 72.6453 13.4679C72.6453 14.0899 72.8427 14.6082 73.2377 15.0229Z" fill="#F9FAFB" fill-opacity="0.8"/>
<path d="M79.5159 16.8483V6.97758H80.9377V16.8483H79.5159Z" fill="#F9FAFB" fill-opacity="0.8"/>
<path d="M83.7077 14.0899C83.813 14.6037 84.0544 15.0004 84.4318 15.2798C84.8092 15.5502 85.2699 15.6855 85.8141 15.6855C86.5689 15.6855 87.135 15.406 87.5124 14.8471L88.6841 15.5502C88.0346 16.5328 87.0736 17.0241 85.8009 17.0241C84.7302 17.0241 83.8657 16.6906 83.2074 16.0235C82.5491 15.3474 82.22 14.4956 82.22 13.4679C82.22 12.4583 82.5448 11.6155 83.1942 10.9394C83.8437 10.2543 84.6775 9.91176 85.6956 9.91176C86.661 9.91176 87.451 10.2588 88.0653 10.9529C88.6885 11.647 89.0001 12.4899 89.0001 13.4814C89.0001 13.6347 88.9825 13.8375 88.9474 14.0899H83.7077ZM83.6945 12.9H87.5651C87.4685 12.3501 87.2447 11.9355 86.8936 11.656C86.5513 11.3766 86.1476 11.2369 85.6824 11.2369C85.1558 11.2369 84.717 11.3856 84.3659 11.6831C84.0149 11.9806 83.791 12.3862 83.6945 12.9Z" fill="#F9FAFB" fill-opacity="0.8"/>
</svg>