<svg width="125" height="32" viewBox="0 0 125 32" fill="none" xmlns="http://www.w3.org/2000/svg">
<path d="M11.9489 0.987073C10.6328 -0.329024 8.49899 -0.329025 7.18289 0.987072L0.987083 7.18288C-0.329014 8.49898 -0.329015 10.6328 0.987082 11.9489L2.65518 13.617C3.97128 14.9331 3.97128 17.0669 2.65518 18.383L0.987072 20.0511C-0.329024 21.3672 -0.329024 23.501 0.987073 24.8171L7.18288 31.0129C8.49898 32.329 10.6328 32.329 11.9489 31.0129L13.617 29.3448C14.9331 28.0287 17.0669 28.0287 18.383 29.3448L20.0511 31.0129C21.3672 32.329 23.501 32.329 24.8171 31.0129L31.0129 24.8171C32.329 23.501 32.329 21.3672 31.0129 20.0511L29.3448 18.383C28.0287 17.0669 28.0287 14.9331 29.3448 13.617L31.0129 11.9489C32.329 10.6328 32.329 8.49898 31.0129 7.18289L24.8171 0.987074C23.501 -0.329023 21.3672 -0.329021 20.0511 0.987076L18.383 2.65517C17.0669 3.97127 14.9331 3.97127 13.617 2.65517L11.9489 0.987073Z" fill="#1F2937"/>
<path d="M11.9489 0.987073C10.6328 -0.329024 8.49899 -0.329025 7.18289 0.987072L0.987083 7.18288C-0.329014 8.49898 -0.329015 10.6328 0.987082 11.9489L2.65518 13.617C3.97128 14.9331 3.97128 17.0669 2.65518 18.383L0.987072 20.0511C-0.329024 21.3672 -0.329024 23.501 0.987073 24.8171L7.18288 31.0129C8.49898 32.329 10.6328 32.329 11.9489 31.0129L13.617 29.3448C14.9331 28.0287 17.0669 28.0287 18.383 29.3448L20.0511 31.0129C21.3672 32.329 23.501 32.329 24.8171 31.0129L31.0129 24.8171C32.329 23.501 32.329 21.3672 31.0129 20.0511L29.3448 18.383C28.0287 17.0669 28.0287 14.9331 29.3448 13.617L31.0129 11.9489C32.329 10.6328 32.329 8.49898 31.0129 7.18289L24.8171 0.987074C23.501 -0.329023 21.3672 -0.329021 20.0511 0.987076L18.383 2.65517C17.0669 3.97127 14.9331 3.97127 13.617 2.65517L11.9489 0.987073Z" fill="url(#paint0_linear)"/>
<path d="M42.1978 11.5359C41.9473 11.7864 41.6468 11.9116 41.2961 11.9116C40.9455 11.9116 40.6387 11.7864 40.3757 11.5359C40.1252 11.2729 40 10.9661 40 10.6155C40 10.2648 40.1252 9.96427 40.3757 9.71381C40.6262 9.45083 40.933 9.31934 41.2961 9.31934C41.6593 9.31934 41.9661 9.45083 42.2166 9.71381C42.467 9.96427 42.5923 10.2648 42.5923 10.6155C42.5923 10.9661 42.4608 11.2729 42.1978 11.5359ZM40.2818 22.7127V13.3204H42.3105V22.7127H40.2818Z" fill="#1F2937"/>
<path d="M49.6064 13.0762C50.6834 13.0762 51.5537 13.4206 52.2174 14.1094C52.8811 14.7982 53.213 15.7436 53.213 16.9459V22.7127H51.1843V17.1525C51.1843 16.4512 50.9964 15.9127 50.6207 15.537C50.2451 15.1613 49.7316 14.9735 49.0804 14.9735C48.3666 14.9735 47.7905 15.1989 47.3522 15.6497C46.9139 16.088 46.6948 16.7643 46.6948 17.6785V22.7127H44.666V13.3204H46.6948V14.5227C47.3084 13.5584 48.2789 13.0762 49.6064 13.0762Z" fill="#1F2937"/>
<path d="M59.8306 22.9569C58.4155 22.9569 57.2321 22.481 56.2803 21.5293C55.3411 20.5775 54.8715 19.4066 54.8715 18.0166C54.8715 16.614 55.3411 15.4431 56.2803 14.5039C57.2321 13.5521 58.4155 13.0762 59.8306 13.0762C60.7448 13.0762 61.5776 13.2954 62.3289 13.7337C63.0803 14.172 63.6439 14.7606 64.0195 15.4994L62.2726 16.5138C62.0597 16.063 61.7341 15.7123 61.2958 15.4619C60.87 15.1989 60.3753 15.0674 59.8118 15.0674C58.9853 15.0674 58.2903 15.3492 57.7267 15.9127C57.1757 16.4762 56.9002 17.1775 56.9002 18.0166C56.9002 18.8556 57.1757 19.5569 57.7267 20.1204C58.2903 20.684 58.9853 20.9657 59.8118 20.9657C60.3628 20.9657 60.8575 20.8343 61.2958 20.5713C61.7466 20.3083 62.0847 19.9576 62.3102 19.5193L64.0571 20.5149C63.6564 21.2663 63.0803 21.8611 62.3289 22.2994C61.5776 22.7378 60.7448 22.9569 59.8306 22.9569Z" fill="#1F2937"/>
<path d="M67.6072 14.8983C68.1207 13.7337 69.085 13.1514 70.5001 13.1514V15.3492C69.7236 15.2991 69.0474 15.4869 68.4713 15.9127C67.8953 16.326 67.6072 17.0147 67.6072 17.979V22.7127H65.5785V13.3204H67.6072V14.8983Z" fill="#1F2937"/>
<path d="M73.1554 18.8807C73.3057 19.5945 73.6501 20.1455 74.1886 20.5337C74.7271 20.9094 75.3845 21.0972 76.161 21.0972C77.2379 21.0972 78.0457 20.709 78.5842 19.9326L80.256 20.9094C79.3293 22.2744 77.958 22.9569 76.1422 22.9569C74.6144 22.9569 73.3808 22.4936 72.4416 21.5669C71.5024 20.6276 71.0328 19.4442 71.0328 18.0166C71.0328 16.614 71.4961 15.4431 72.4228 14.5039C73.3495 13.5521 74.5392 13.0762 75.9919 13.0762C77.3694 13.0762 78.4965 13.5584 79.3731 14.5227C80.2622 15.4869 80.7068 16.6578 80.7068 18.0354C80.7068 18.2483 80.6818 18.53 80.6317 18.8807H73.1554ZM73.1366 17.2276H78.6593C78.5215 16.4637 78.2022 15.8877 77.7013 15.4994C77.2129 15.1112 76.6368 14.9171 75.9731 14.9171C75.2217 14.9171 74.5956 15.1238 74.0947 15.537C73.5937 15.9503 73.2744 16.5138 73.1366 17.2276Z" fill="#1F2937"/>
<path d="M89.8756 9.56354H91.9043V22.7127H89.8756V21.3602C89.1117 22.4247 88.0159 22.9569 86.5883 22.9569C85.2984 22.9569 84.1964 22.481 83.2822 21.5293C82.368 20.565 81.9109 19.3941 81.9109 18.0166C81.9109 16.6265 82.368 15.4556 83.2822 14.5039C84.1964 13.5521 85.2984 13.0762 86.5883 13.0762C88.0159 13.0762 89.1117 13.6022 89.8756 14.6541V9.56354ZM84.785 20.1768C85.3485 20.7403 86.056 21.0221 86.9076 21.0221C87.7592 21.0221 88.4667 20.7403 89.0303 20.1768C89.5938 19.6007 89.8756 18.8807 89.8756 18.0166C89.8756 17.1525 89.5938 16.4387 89.0303 15.8751C88.4667 15.2991 87.7592 15.011 86.9076 15.011C86.056 15.011 85.3485 15.2991 84.785 15.8751C84.2214 16.4387 83.9397 17.1525 83.9397 18.0166C83.9397 18.8807 84.2214 19.6007 84.785 20.1768Z" fill="#1F2937"/>
<path d="M96.185 11.5359C95.9345 11.7864 95.634 11.9116 95.2833 11.9116C94.9327 11.9116 94.6259 11.7864 94.3629 11.5359C94.1124 11.2729 93.9872 10.9661 93.9872 10.6155C93.9872 10.2648 94.1124 9.96427 94.3629 9.71381C94.6133 9.45083 94.9201 9.31934 95.2833 9.31934C95.6465 9.31934 95.9533 9.45083 96.2038 9.71381C96.4542 9.96427 96.5794 10.2648 96.5794 10.6155C96.5794 10.9661 96.448 11.2729 96.185 11.5359ZM94.2689 22.7127V13.3204H96.2977V22.7127H94.2689Z" fill="#1F2937"/>
<path d="M103.969 13.0762C105.259 13.0762 106.361 13.5521 107.275 14.5039C108.19 15.4556 108.647 16.6265 108.647 18.0166C108.647 19.3941 108.19 20.565 107.275 21.5293C106.361 22.481 105.259 22.9569 103.969 22.9569C102.542 22.9569 101.446 22.4247 100.682 21.3602V22.7127H98.6532V9.56354H100.682V14.6541C101.446 13.6022 102.542 13.0762 103.969 13.0762ZM101.527 20.1768C102.091 20.7403 102.798 21.0221 103.65 21.0221C104.501 21.0221 105.209 20.7403 105.773 20.1768C106.336 19.6007 106.618 18.8807 106.618 18.0166C106.618 17.1525 106.336 16.4387 105.773 15.8751C105.209 15.2991 104.501 15.011 103.65 15.011C102.798 15.011 102.091 15.2991 101.527 15.8751C100.964 16.4387 100.682 17.1525 100.682 18.0166C100.682 18.8807 100.964 19.6007 101.527 20.1768Z" fill="#1F2937"/>
<path d="M110.485 22.7127V9H112.514V22.7127H110.485Z" fill="#1F2937"/>
<path d="M116.466 18.8807C116.617 19.5945 116.961 20.1455 117.499 20.5337C118.038 20.9094 118.695 21.0972 119.472 21.0972C120.549 21.0972 121.356 20.709 121.895 19.9326L123.567 20.9094C122.64 22.2744 121.269 22.9569 119.453 22.9569C117.925 22.9569 116.692 22.4936 115.752 21.5669C114.813 20.6276 114.344 19.4442 114.344 18.0166C114.344 16.614 114.807 15.4431 115.734 14.5039C116.66 13.5521 117.85 13.0762 119.303 13.0762C120.68 13.0762 121.807 13.5584 122.684 14.5227C123.573 15.4869 124.018 16.6578 124.018 18.0354C124.018 18.2483 123.993 18.53 123.942 18.8807H116.466ZM116.447 17.2276H121.97C121.832 16.4637 121.513 15.8877 121.012 15.4994C120.524 15.1112 119.948 14.9171 119.284 14.9171C118.533 14.9171 117.906 15.1238 117.405 15.537C116.905 15.9503 116.585 16.5138 116.447 17.2276Z" fill="#1F2937"/>
<defs>
<linearGradient id="paint0_linear" x1="4.17671" y1="4.62651" x2="27.9518" y2="27.6305" gradientUnits="userSpaceOnUse">
<stop stop-color="#4ADE80"/>
<stop offset="1" stop-color="#16A34A"/>
</linearGradient>
</defs>
</svg>
