<svg width="16" height="10" viewBox="0 0 16 10" fill="none" xmlns="http://www.w3.org/2000/svg">
<path d="M10.5 4.625L11.0715 6.33925L12.5 6.875L11.0715 7.41075L10.5 9.125L9.9285 7.41075L8.5 6.875L9.9285 6.33925L10.5 4.625Z" fill="#9CA3AF"/>
<path d="M8.5 4.625V5.625M8 5.125H9M8.75 8.125V9.125M8.25 8.625H9.25M10.5 4.625L11.0715 6.33925L12.5 6.875L11.0715 7.41075L10.5 9.125L9.9285 7.41075L8.5 6.875L9.9285 6.33925L10.5 4.625Z" stroke="#9CA3AF" stroke-width="0.5" stroke-linecap="round" stroke-linejoin="round"/>
<path fill-rule="evenodd" clip-rule="evenodd" d="M2 1.875H14C14.2761 1.875 14.5 2.09886 14.5 2.375V6.875C14.5 7.15114 14.2761 7.375 14 7.375H13.2353V8.375H14C14.8284 8.375 15.5 7.70343 15.5 6.875V2.375C15.5 1.54657 14.8284 0.875 14 0.875H2C1.17157 0.875 0.5 1.54657 0.5 2.375V6.875C0.5 7.70343 1.17157 8.375 2 8.375H6.48284V7.375H2C1.72386 7.375 1.5 7.15114 1.5 6.875V2.375C1.5 2.09886 1.72386 1.875 2 1.875Z" fill="#9CA3AF"/>
</svg>
