<svg width="504" height="196" viewBox="0 0 504 196" fill="none" xmlns="http://www.w3.org/2000/svg">
<rect width="41.1252" height="41.1252" rx="20.5626" transform="matrix(1 0 0 -1 0.21875 196)" fill="#374151"/>
<rect width="41.1252" height="41.1252" rx="20.5626" transform="matrix(1 0 0 -1 154.438 196)" fill="#374151"/>
<rect width="41.1252" height="41.1252" rx="20.5626" transform="matrix(1 0 0 -1 205.844 196)" fill="#86EFAC"/>
<rect width="41.1252" height="41.1252" rx="20.5626" transform="matrix(1 0 0 -1 257.25 196)" fill="#4B5563"/>
<rect width="41.1252" height="41.1252" rx="20.5626" transform="matrix(1 0 0 -1 308.656 196)" fill="#86EFAC"/>
<rect width="41.1252" height="41.1252" rx="20.5626" transform="matrix(1 0 0 -1 360.066 196)" fill="#111827"/>
<rect width="41.1252" height="41.1252" rx="20.5626" transform="matrix(1 0 0 -1 411.469 196)" fill="#374151"/>
<rect width="41.1252" height="41.1252" rx="20.5626" transform="matrix(1 0 0 -1 462.875 196)" fill="#374151"/>
<rect width="41.1252" height="41.1252" rx="20.5626" transform="matrix(1 0 0 -1 0.21875 144.594)" fill="#4ADE80"/>
<rect x="4.46245" y="-4.46245" width="32.2003" height="32.2003" rx="16.1001" transform="matrix(1 0 0 -1 51.625 135.669)" stroke="#BBF7D0" stroke-width="8.9249"/>
<rect width="41.1252" height="41.1252" rx="20.5626" transform="matrix(1 0 0 -1 103.031 144.594)" fill="#111827"/>
<rect width="41.1252" height="41.1252" rx="20.5626" transform="matrix(1 0 0 -1 154.438 144.594)" fill="#86EFAC"/>
<rect width="41.1252" height="41.1252" rx="20.5626" transform="matrix(1 0 0 -1 205.844 144.594)" fill="#86EFAC"/>
<rect width="41.1252" height="41.1252" rx="20.5626" transform="matrix(1 0 0 -1 257.25 144.594)" fill="#BBF7D0"/>
<rect width="41.1252" height="41.1252" rx="20.5626" transform="matrix(1 0 0 -1 308.656 144.594)" fill="#86EFAC"/>
<rect width="41.1252" height="41.1252" rx="20.5626" transform="matrix(1 0 0 -1 360.066 144.594)" fill="#86EFAC"/>
<rect x="4.46245" y="-4.46245" width="32.2003" height="32.2003" rx="16.1001" transform="matrix(1 0 0 -1 462.875 135.669)" stroke="#4ADE80" stroke-width="8.9249"/>
<rect width="41.1252" height="41.1252" rx="20.5626" transform="matrix(1 0 0 -1 205.844 93.1873)" fill="#374151"/>
<rect width="41.1252" height="41.1252" rx="20.5626" transform="matrix(1 0 0 -1 257.25 93.1873)" fill="#111827"/>
<rect width="41.1252" height="41.1252" rx="20.5626" transform="matrix(1 0 0 -1 308.656 93.1873)" fill="#4B5563"/>
<rect width="41.1252" height="41.1252" rx="20.5626" transform="matrix(1 0 0 -1 360.066 93.1873)" fill="#16A34A"/>
<rect width="41.1252" height="41.1252" rx="20.5626" transform="matrix(1 0 0 -1 411.469 93.1873)" fill="#4B5563"/>
<rect width="41.1252" height="41.1252" rx="20.5626" transform="matrix(1 0 0 -1 462.875 93.1873)" fill="#111827"/>
<rect width="41.1252" height="41.1252" rx="20.5626" transform="matrix(1 0 0 -1 257.25 41.7803)" fill="#374151"/>
<rect width="41.1252" height="41.1252" rx="20.5626" transform="matrix(1 0 0 -1 308.656 41.7803)" fill="#111827"/>
<rect width="41.1252" height="41.1252" rx="20.5626" transform="matrix(1 0 0 -1 462.875 41.7803)" fill="#374151"/>
</svg>
