<svg width="195" height="60" viewBox="0 0 195 60" fill="none" xmlns="http://www.w3.org/2000/svg">
<path d="M35.9489 14.9871C34.6328 13.671 32.499 13.671 31.1829 14.9871L24.9871 21.1829C23.671 22.499 23.671 24.6328 24.9871 25.9489L26.6552 27.617C27.9713 28.9331 27.9713 31.0669 26.6552 32.383L24.9871 34.0511C23.671 35.3672 23.671 37.501 24.9871 38.8171L31.1829 45.0129C32.499 46.329 34.6328 46.329 35.9489 45.0129L37.617 43.3448C38.9331 42.0287 41.0669 42.0287 42.383 43.3448L44.0511 45.0129C45.3672 46.329 47.501 46.329 48.8171 45.0129L55.0129 38.8171C56.329 37.501 56.329 35.3672 55.0129 34.0511L53.3448 32.383C52.0287 31.0669 52.0287 28.9331 53.3448 27.617L55.0129 25.9489C56.329 24.6328 56.329 22.499 55.0129 21.1829L48.8171 14.9871C47.501 13.671 45.3672 13.671 44.0511 14.9871L42.383 16.6552C41.0669 17.9713 38.9331 17.9713 37.617 16.6552L35.9489 14.9871Z" fill="#1F2937"/>
<path d="M35.9489 14.9871C34.6328 13.671 32.499 13.671 31.1829 14.9871L24.9871 21.1829C23.671 22.499 23.671 24.6328 24.9871 25.9489L26.6552 27.617C27.9713 28.9331 27.9713 31.0669 26.6552 32.383L24.9871 34.0511C23.671 35.3672 23.671 37.501 24.9871 38.8171L31.1829 45.0129C32.499 46.329 34.6328 46.329 35.9489 45.0129L37.617 43.3448C38.9331 42.0287 41.0669 42.0287 42.383 43.3448L44.0511 45.0129C45.3672 46.329 47.501 46.329 48.8171 45.0129L55.0129 38.8171C56.329 37.501 56.329 35.3672 55.0129 34.0511L53.3448 32.383C52.0287 31.0669 52.0287 28.9331 53.3448 27.617L55.0129 25.9489C56.329 24.6328 56.329 22.499 55.0129 21.1829L48.8171 14.9871C47.501 13.671 45.3672 13.671 44.0511 14.9871L42.383 16.6552C41.0669 17.9713 38.9331 17.9713 37.617 16.6552L35.9489 14.9871Z" fill="url(#paint0_linear)"/>
<path d="M66.1978 25.5359C65.9473 25.7864 65.6468 25.9116 65.2961 25.9116C64.9455 25.9116 64.6387 25.7864 64.3757 25.5359C64.1252 25.2729 64 24.9661 64 24.6155C64 24.2648 64.1252 23.9643 64.3757 23.7138C64.6262 23.4508 64.933 23.3193 65.2961 23.3193C65.6593 23.3193 65.9661 23.4508 66.2166 23.7138C66.467 23.9643 66.5923 24.2648 66.5923 24.6155C66.5923 24.9661 66.4608 25.2729 66.1978 25.5359ZM64.2818 36.7127V27.3204H66.3105V36.7127H64.2818Z" fill="#1F2937"/>
<path d="M73.6064 27.0762C74.6834 27.0762 75.5537 27.4206 76.2174 28.1094C76.8811 28.7982 77.213 29.7436 77.213 30.9459V36.7127H75.1843V31.1525C75.1843 30.4512 74.9964 29.9127 74.6207 29.537C74.2451 29.1613 73.7316 28.9735 73.0804 28.9735C72.3666 28.9735 71.7905 29.1989 71.3522 29.6497C70.9139 30.088 70.6948 30.7643 70.6948 31.6785V36.7127H68.666V27.3204H70.6948V28.5227C71.3084 27.5584 72.2789 27.0762 73.6064 27.0762Z" fill="#1F2937"/>
<path d="M83.8306 36.9569C82.4155 36.9569 81.2321 36.481 80.2803 35.5293C79.3411 34.5775 78.8715 33.4066 78.8715 32.0166C78.8715 30.614 79.3411 29.4431 80.2803 28.5039C81.2321 27.5521 82.4155 27.0762 83.8306 27.0762C84.7448 27.0762 85.5776 27.2954 86.3289 27.7337C87.0803 28.172 87.6439 28.7606 88.0195 29.4994L86.2726 30.5138C86.0597 30.063 85.7341 29.7123 85.2958 29.4619C84.87 29.1989 84.3753 29.0674 83.8118 29.0674C82.9853 29.0674 82.2903 29.3492 81.7267 29.9127C81.1757 30.4762 80.9002 31.1775 80.9002 32.0166C80.9002 32.8556 81.1757 33.5569 81.7267 34.1204C82.2903 34.684 82.9853 34.9657 83.8118 34.9657C84.3628 34.9657 84.8575 34.8343 85.2958 34.5713C85.7466 34.3083 86.0847 33.9576 86.3102 33.5193L88.0571 34.5149C87.6564 35.2663 87.0803 35.8611 86.3289 36.2994C85.5776 36.7378 84.7448 36.9569 83.8306 36.9569Z" fill="#1F2937"/>
<path d="M91.6072 28.8983C92.1207 27.7337 93.085 27.1514 94.5001 27.1514V29.3492C93.7236 29.2991 93.0474 29.4869 92.4713 29.9127C91.8953 30.326 91.6072 31.0147 91.6072 31.979V36.7127H89.5785V27.3204H91.6072V28.8983Z" fill="#1F2937"/>
<path d="M97.1554 32.8807C97.3057 33.5945 97.6501 34.1455 98.1886 34.5337C98.7271 34.9094 99.3845 35.0972 100.161 35.0972C101.238 35.0972 102.046 34.709 102.584 33.9326L104.256 34.9094C103.329 36.2744 101.958 36.9569 100.142 36.9569C98.6144 36.9569 97.3808 36.4936 96.4416 35.5669C95.5024 34.6276 95.0328 33.4442 95.0328 32.0166C95.0328 30.614 95.4961 29.4431 96.4228 28.5039C97.3495 27.5521 98.5392 27.0762 99.9919 27.0762C101.369 27.0762 102.496 27.5584 103.373 28.5227C104.262 29.4869 104.707 30.6578 104.707 32.0354C104.707 32.2482 104.682 32.53 104.632 32.8807H97.1554ZM97.1366 31.2276H102.659C102.522 30.4637 102.202 29.8877 101.701 29.4994C101.213 29.1112 100.637 28.9171 99.9731 28.9171C99.2217 28.9171 98.5956 29.1238 98.0947 29.537C97.5937 29.9503 97.2744 30.5138 97.1366 31.2276Z" fill="#1F2937"/>
<path d="M113.876 23.5635H115.904V36.7127H113.876V35.3602C113.112 36.4247 112.016 36.9569 110.588 36.9569C109.298 36.9569 108.196 36.481 107.282 35.5293C106.368 34.565 105.911 33.3941 105.911 32.0166C105.911 30.6265 106.368 29.4556 107.282 28.5039C108.196 27.5521 109.298 27.0762 110.588 27.0762C112.016 27.0762 113.112 27.6022 113.876 28.6541V23.5635ZM108.785 34.1768C109.348 34.7403 110.056 35.0221 110.908 35.0221C111.759 35.0221 112.467 34.7403 113.03 34.1768C113.594 33.6007 113.876 32.8807 113.876 32.0166C113.876 31.1525 113.594 30.4387 113.03 29.8751C112.467 29.2991 111.759 29.011 110.908 29.011C110.056 29.011 109.348 29.2991 108.785 29.8751C108.221 30.4387 107.94 31.1525 107.94 32.0166C107.94 32.8807 108.221 33.6007 108.785 34.1768Z" fill="#1F2937"/>
<path d="M120.185 25.5359C119.935 25.7864 119.634 25.9116 119.283 25.9116C118.933 25.9116 118.626 25.7864 118.363 25.5359C118.112 25.2729 117.987 24.9661 117.987 24.6155C117.987 24.2648 118.112 23.9643 118.363 23.7138C118.613 23.4508 118.92 23.3193 119.283 23.3193C119.646 23.3193 119.953 23.4508 120.204 23.7138C120.454 23.9643 120.579 24.2648 120.579 24.6155C120.579 24.9661 120.448 25.2729 120.185 25.5359ZM118.269 36.7127V27.3204H120.298V36.7127H118.269Z" fill="#1F2937"/>
<path d="M127.969 27.0762C129.259 27.0762 130.361 27.5521 131.275 28.5039C132.19 29.4556 132.647 30.6265 132.647 32.0166C132.647 33.3941 132.19 34.565 131.275 35.5293C130.361 36.481 129.259 36.9569 127.969 36.9569C126.542 36.9569 125.446 36.4247 124.682 35.3602V36.7127H122.653V23.5635H124.682V28.6541C125.446 27.6022 126.542 27.0762 127.969 27.0762ZM125.527 34.1768C126.091 34.7403 126.798 35.0221 127.65 35.0221C128.501 35.0221 129.209 34.7403 129.773 34.1768C130.336 33.6007 130.618 32.8807 130.618 32.0166C130.618 31.1525 130.336 30.4387 129.773 29.8751C129.209 29.2991 128.501 29.011 127.65 29.011C126.798 29.011 126.091 29.2991 125.527 29.8751C124.964 30.4387 124.682 31.1525 124.682 32.0166C124.682 32.8807 124.964 33.6007 125.527 34.1768Z" fill="#1F2937"/>
<path d="M134.485 36.7127V23H136.514V36.7127H134.485Z" fill="#1F2937"/>
<path d="M140.466 32.8807C140.617 33.5945 140.961 34.1455 141.499 34.5337C142.038 34.9094 142.695 35.0972 143.472 35.0972C144.549 35.0972 145.356 34.709 145.895 33.9326L147.567 34.9094C146.64 36.2744 145.269 36.9569 143.453 36.9569C141.925 36.9569 140.692 36.4936 139.752 35.5669C138.813 34.6276 138.344 33.4442 138.344 32.0166C138.344 30.614 138.807 29.4431 139.734 28.5039C140.66 27.5521 141.85 27.0762 143.303 27.0762C144.68 27.0762 145.807 27.5584 146.684 28.5227C147.573 29.4869 148.018 30.6578 148.018 32.0354C148.018 32.2482 147.993 32.53 147.942 32.8807H140.466ZM140.447 31.2276H145.97C145.832 30.4637 145.513 29.8877 145.012 29.4994C144.524 29.1112 143.948 28.9171 143.284 28.9171C142.533 28.9171 141.906 29.1238 141.405 29.537C140.905 29.9503 140.585 30.5138 140.447 31.2276Z" fill="#1F2937"/>
<defs>
<linearGradient id="paint0_linear" x1="28.1767" y1="18.6265" x2="51.9518" y2="41.6305" gradientUnits="userSpaceOnUse">
<stop stop-color="#4ADE80"/>
<stop offset="1" stop-color="#16A34A"/>
</linearGradient>
</defs>
</svg>
