<svg width="83" height="64" viewBox="0 0 83 64" fill="none" xmlns="http://www.w3.org/2000/svg">
<path d="M34.2846 10.7102L23.6021 11.833L27.971 2.02022L34.2846 10.7102Z" fill="#FBFBFB"/>
<path d="M25.204 31.1056L14.5214 32.2284L18.8903 22.4157L25.204 31.1056Z" fill="#FBFBFB"/>
<path d="M29.7443 20.9079L19.0618 22.0307L23.4307 12.2179L29.7443 20.9079Z" fill="#FBFBFB"/>
<path d="M20.6637 41.3034L9.98111 42.4261L14.35 32.6134L20.6637 41.3034Z" fill="#FBFBFB"/>
<path d="M16.1234 51.5011L5.44083 52.6238L9.80975 42.8111L16.1234 51.5011Z" fill="#FBFBFB"/>
<path d="M23.5164 12.0255L34.1989 10.9027L29.83 20.7154L23.5164 12.0255Z" fill="#E5E5E5"/>
<path d="M14.4358 32.4209L25.1183 31.2981L20.7494 41.1109L14.4358 32.4209Z" fill="#E5E5E5"/>
<path d="M18.976 22.2232L29.6586 21.1004L25.2897 30.9131L18.976 22.2232Z" fill="#E5E5E5"/>
<path d="M9.89541 42.6186L20.578 41.4958L16.2091 51.3086L9.89541 42.6186Z" fill="#E5E5E5"/>
<path d="M5.3551 52.8163L16.0377 51.6935L11.6687 61.5063L5.3551 52.8163Z" fill="#E5E5E5"/>
<path d="M40.4489 51.9569L49.7513 46.5862V57.3276L40.4489 51.9569Z" fill="#FBFBFB"/>
<path d="M60.2939 40.484L69.5962 35.1133V45.8547L60.2939 40.484Z" fill="#FBFBFB"/>
<path d="M50.3714 46.0654L59.6737 40.6947V51.4361L50.3714 46.0654Z" fill="#FBFBFB"/>
<path d="M70.2164 34.5925L79.5187 29.2218V39.9632L70.2164 34.5925Z" fill="#FBFBFB"/>
<path d="M50.3714 23.1197L59.6737 17.749V28.4904L50.3714 23.1197Z" fill="#FBFBFB"/>
<path d="M60.2939 29.0111L69.5962 23.6404V34.3818L60.2939 29.0111Z" fill="#FBFBFB"/>
<path d="M40.4489 17.5383L49.7513 12.1676V22.909L40.4489 17.5383Z" fill="#FBFBFB"/>
<path d="M49.4412 57.5383L40.1388 62.909V52.1676L49.4412 57.5383Z" fill="#E5E5E5"/>
<path d="M69.2861 46.0654L59.9838 51.4361V40.6947L69.2861 46.0654Z" fill="#E5E5E5"/>
<path d="M69.2861 23.4298L59.9838 28.8005V18.0591L69.2861 23.4298Z" fill="#E5E5E5"/>
<path d="M49.4412 11.9569L40.1388 17.3276V6.58619L49.4412 11.9569Z" fill="#E5E5E5"/>
<path d="M59.3637 51.6468L50.0614 57.0175V46.2761L59.3637 51.6468Z" fill="#E5E5E5"/>
<path d="M79.2086 40.1739L69.9063 45.5446V34.8032L79.2086 40.1739Z" fill="#E5E5E5"/>
<path d="M79.2086 29.0112L69.9063 34.3818V23.6405L79.2086 29.0112Z" fill="#E5E5E5"/>
<path d="M59.3637 17.5383L50.0614 22.909V12.1676L59.3637 17.5383Z" fill="#E5E5E5"/>
</svg>
