<svg width="125" height="32" viewBox="0 0 125 32" fill="none" xmlns="http://www.w3.org/2000/svg">
<path d="M12.4489 0.987073C11.1328 -0.329024 8.99899 -0.329025 7.68289 0.987072L1.48708 7.18288C0.170986 8.49898 0.170986 10.6328 1.48708 11.9489L3.15518 13.617C4.47128 14.9331 4.47128 17.0669 3.15518 18.383L1.48707 20.0511C0.170976 21.3672 0.170976 23.501 1.48707 24.8171L7.68288 31.0129C8.99898 32.329 11.1328 32.329 12.4489 31.0129L14.117 29.3448C15.4331 28.0287 17.5669 28.0287 18.883 29.3448L20.5511 31.0129C21.8672 32.329 24.001 32.329 25.3171 31.0129L31.5129 24.8171C32.829 23.501 32.829 21.3672 31.5129 20.0511L29.8448 18.383C28.5287 17.0669 28.5287 14.9331 29.8448 13.617L31.5129 11.9489C32.829 10.6328 32.829 8.49898 31.5129 7.18289L25.3171 0.987074C24.001 -0.329023 21.8672 -0.329021 20.5511 0.987076L18.883 2.65517C17.5669 3.97127 15.4331 3.97127 14.117 2.65517L12.4489 0.987073Z" fill="url(#paint0_linear)"/>
<path d="M42.6978 2.53591C42.4473 2.78637 42.1468 2.9116 41.7961 2.9116C41.4455 2.9116 41.1387 2.78637 40.8757 2.53591C40.6252 2.27293 40.5 1.96611 40.5 1.61547C40.5 1.26482 40.6252 0.964272 40.8757 0.713812C41.1262 0.450828 41.433 0.319336 41.7961 0.319336C42.1593 0.319336 42.4661 0.450828 42.7166 0.713812C42.967 0.964272 43.0923 1.26482 43.0923 1.61547C43.0923 1.96611 42.9608 2.27293 42.6978 2.53591ZM40.7818 13.7127V4.32044H42.8105V13.7127H40.7818Z" fill="#1F2937"/>
<path d="M50.1064 4.07624C51.1834 4.07624 52.0537 4.42063 52.7174 5.10939C53.3811 5.79816 53.713 6.74365 53.713 7.94586V13.7127H51.6843V8.15249C51.6843 7.4512 51.4964 6.91271 51.1207 6.53702C50.7451 6.16133 50.2316 5.97348 49.5804 5.97348C48.8666 5.97348 48.2905 6.19889 47.8522 6.64972C47.4139 7.08803 47.1948 7.76427 47.1948 8.67845V13.7127H45.166V4.32044H47.1948V5.52265C47.8084 4.55838 48.7789 4.07624 50.1064 4.07624Z" fill="#1F2937"/>
<path d="M60.3306 13.9569C58.9155 13.9569 57.7321 13.481 56.7803 12.5293C55.8411 11.5775 55.3715 10.4066 55.3715 9.01657C55.3715 7.614 55.8411 6.44309 56.7803 5.50387C57.7321 4.55212 58.9155 4.07624 60.3306 4.07624C61.2448 4.07624 62.0776 4.2954 62.8289 4.7337C63.5803 5.17201 64.1439 5.76059 64.5195 6.49945L62.7726 7.51381C62.5597 7.06298 62.2341 6.71234 61.7958 6.46188C61.37 6.19889 60.8753 6.0674 60.3118 6.0674C59.4853 6.0674 58.7903 6.34917 58.2267 6.91271C57.6757 7.47624 57.4002 8.17753 57.4002 9.01657C57.4002 9.85562 57.6757 10.5569 58.2267 11.1204C58.7903 11.684 59.4853 11.9657 60.3118 11.9657C60.8628 11.9657 61.3575 11.8343 61.7958 11.5713C62.2466 11.3083 62.5847 10.9576 62.8102 10.5193L64.5571 11.5149C64.1564 12.2663 63.5803 12.8611 62.8289 13.2994C62.0776 13.7378 61.2448 13.9569 60.3306 13.9569Z" fill="#1F2937"/>
<path d="M68.1072 5.89834C68.6207 4.7337 69.585 4.15138 71.0001 4.15138V6.34917C70.2236 6.29908 69.5474 6.48692 68.9713 6.91271C68.3953 7.32597 68.1072 8.01473 68.1072 8.979V13.7127H66.0785V4.32044H68.1072V5.89834Z" fill="#1F2937"/>
<path d="M73.6554 9.88066C73.8057 10.5945 74.1501 11.1455 74.6886 11.5337C75.2271 11.9094 75.8845 12.0972 76.661 12.0972C77.7379 12.0972 78.5457 11.709 79.0842 10.9326L80.756 11.9094C79.8293 13.2744 78.458 13.9569 76.6422 13.9569C75.1144 13.9569 73.8808 13.4936 72.9416 12.5669C72.0024 11.6276 71.5328 10.4442 71.5328 9.01657C71.5328 7.614 71.9961 6.44309 72.9228 5.50387C73.8495 4.55212 75.0392 4.07624 76.4919 4.07624C77.8694 4.07624 78.9965 4.55838 79.8731 5.52265C80.7622 6.48692 81.2068 7.65783 81.2068 9.03536C81.2068 9.24825 81.1818 9.53002 81.1317 9.88066H73.6554ZM73.6366 8.22762H79.1593C79.0215 7.46372 78.7022 6.88766 78.2013 6.49945C77.7129 6.11123 77.1368 5.91713 76.4731 5.91713C75.7217 5.91713 75.0956 6.12376 74.5947 6.53702C74.0937 6.95028 73.7744 7.51381 73.6366 8.22762Z" fill="#1F2937"/>
<path d="M90.3756 0.563535H92.4043V13.7127H90.3756V12.3602C89.6117 13.4247 88.5159 13.9569 87.0883 13.9569C85.7984 13.9569 84.6964 13.481 83.7822 12.5293C82.868 11.565 82.4109 10.3941 82.4109 9.01657C82.4109 7.62652 82.868 6.45562 83.7822 5.50387C84.6964 4.55212 85.7984 4.07624 87.0883 4.07624C88.5159 4.07624 89.6117 4.60221 90.3756 5.65414V0.563535ZM85.285 11.1768C85.8485 11.7403 86.5561 12.0221 87.4076 12.0221C88.2592 12.0221 88.9667 11.7403 89.5303 11.1768C90.0938 10.6007 90.3756 9.88066 90.3756 9.01657C90.3756 8.15249 90.0938 7.43867 89.5303 6.87514C88.9667 6.29908 88.2592 6.01105 87.4076 6.01105C86.5561 6.01105 85.8485 6.29908 85.285 6.87514C84.7214 7.43867 84.4397 8.15249 84.4397 9.01657C84.4397 9.88066 84.7214 10.6007 85.285 11.1768Z" fill="#1F2937"/>
<path d="M96.685 2.53591C96.4345 2.78637 96.134 2.9116 95.7833 2.9116C95.4327 2.9116 95.1259 2.78637 94.8629 2.53591C94.6124 2.27293 94.4872 1.96611 94.4872 1.61547C94.4872 1.26482 94.6124 0.964272 94.8629 0.713812C95.1133 0.450828 95.4201 0.319336 95.7833 0.319336C96.1465 0.319336 96.4533 0.450828 96.7038 0.713812C96.9542 0.964272 97.0794 1.26482 97.0794 1.61547C97.0794 1.96611 96.948 2.27293 96.685 2.53591ZM94.7689 13.7127V4.32044H96.7977V13.7127H94.7689Z" fill="#1F2937"/>
<path d="M104.469 4.07624C105.759 4.07624 106.861 4.55212 107.775 5.50387C108.69 6.45562 109.147 7.62652 109.147 9.01657C109.147 10.3941 108.69 11.565 107.775 12.5293C106.861 13.481 105.759 13.9569 104.469 13.9569C103.042 13.9569 101.946 13.4247 101.182 12.3602V13.7127H99.1532V0.563535H101.182V5.65414C101.946 4.60221 103.042 4.07624 104.469 4.07624ZM102.027 11.1768C102.591 11.7403 103.298 12.0221 104.15 12.0221C105.001 12.0221 105.709 11.7403 106.273 11.1768C106.836 10.6007 107.118 9.88066 107.118 9.01657C107.118 8.15249 106.836 7.43867 106.273 6.87514C105.709 6.29908 105.001 6.01105 104.15 6.01105C103.298 6.01105 102.591 6.29908 102.027 6.87514C101.464 7.43867 101.182 8.15249 101.182 9.01657C101.182 9.88066 101.464 10.6007 102.027 11.1768Z" fill="#1F2937"/>
<path d="M110.985 13.7127V0H113.014V13.7127H110.985Z" fill="#1F2937"/>
<path d="M116.966 9.88066C117.117 10.5945 117.461 11.1455 117.999 11.5337C118.538 11.9094 119.195 12.0972 119.972 12.0972C121.049 12.0972 121.856 11.709 122.395 10.9326L124.067 11.9094C123.14 13.2744 121.769 13.9569 119.953 13.9569C118.425 13.9569 117.192 13.4936 116.252 12.5669C115.313 11.6276 114.844 10.4442 114.844 9.01657C114.844 7.614 115.307 6.44309 116.234 5.50387C117.16 4.55212 118.35 4.07624 119.803 4.07624C121.18 4.07624 122.307 4.55838 123.184 5.52265C124.073 6.48692 124.518 7.65783 124.518 9.03536C124.518 9.24825 124.493 9.53002 124.442 9.88066H116.966ZM116.947 8.22762H122.47C122.332 7.46372 122.013 6.88766 121.512 6.49945C121.024 6.11123 120.448 5.91713 119.784 5.91713C119.033 5.91713 118.406 6.12376 117.905 6.53702C117.405 6.95028 117.085 7.51381 116.947 8.22762Z" fill="#1F2937"/>
<path d="M41.6758 25.1881C41.6758 25.6044 41.8599 25.9307 42.228 26.167C42.5962 26.4033 43.0475 26.5833 43.5819 26.707C44.1164 26.8196 44.6449 26.949 45.1674 27.0952C45.7019 27.2415 46.1532 27.489 46.5214 27.8378C46.8895 28.1754 47.0736 28.6311 47.0736 29.2049C47.0736 29.9025 46.7767 30.4764 46.1829 30.9265C45.6009 31.3765 44.8349 31.6016 43.8848 31.6016C43.0297 31.6016 42.3052 31.4328 41.7114 31.0952C41.1295 30.7464 40.7257 30.2907 40.5 29.7281L41.266 29.3062C41.4323 29.7675 41.7411 30.1332 42.1924 30.4033C42.6556 30.662 43.2197 30.7914 43.8848 30.7914C44.5499 30.7914 45.0962 30.6564 45.5237 30.3864C45.9632 30.1051 46.1829 29.7113 46.1829 29.2049C46.1829 28.7886 45.9988 28.4567 45.6306 28.2092C45.2625 27.9616 44.8112 27.7816 44.2767 27.6691C43.7423 27.5453 43.2078 27.4103 42.6734 27.264C42.1508 27.1177 41.7055 26.8758 41.3373 26.5383C40.9691 26.2007 40.785 25.7506 40.785 25.1881C40.785 24.513 41.0641 23.9447 41.6223 23.4834C42.1924 23.0221 42.9228 22.7914 43.8135 22.7914C44.5261 22.7914 45.1437 22.9433 45.6663 23.2471C46.2007 23.5509 46.5926 23.9616 46.842 24.4792L46.0938 24.8843C45.9157 24.4679 45.6188 24.1529 45.2031 23.9391C44.7874 23.7141 44.3242 23.6016 43.8135 23.6016C43.2078 23.6016 42.6971 23.7478 42.2815 24.0404C41.8777 24.3217 41.6758 24.7042 41.6758 25.1881Z" fill="#1F2937"/>
<path d="M53.442 23.8041H50.7876V29.2893C50.7876 29.7732 50.8826 30.122 51.0726 30.3357C51.2626 30.5495 51.5536 30.6733 51.9455 30.707C52.3374 30.7296 52.8363 30.7127 53.442 30.6564V31.4159C52.2424 31.5847 51.3458 31.5059 50.7519 31.1796C50.17 30.8533 49.879 30.2232 49.879 29.2893V23.8041H47.9194V22.9771H49.879V20.8674L50.7876 20.6142V22.9771H53.442V23.8041Z" fill="#1F2937"/>
<path d="M61.9926 22.9771H62.8833V31.4159H61.9926V29.8125C61.3513 31.0052 60.2883 31.6016 58.8038 31.6016C57.7468 31.6016 56.9035 31.2978 56.2741 30.6902C55.6565 30.0713 55.3477 29.2499 55.3477 28.226V22.9771H56.2563V28.226C56.2563 29.0137 56.4819 29.6381 56.9332 30.0995C57.3964 30.5608 58.0437 30.7914 58.875 30.7914C59.7895 30.7914 60.5377 30.5045 61.1197 29.9307C61.7016 29.3568 61.9926 28.5242 61.9926 27.4328V22.9771Z" fill="#1F2937"/>
<path d="M73.4911 19.6016H74.3819V31.4159H73.4911V29.4581C73.123 30.122 72.6004 30.6452 71.9234 31.0277C71.2584 31.4103 70.5042 31.6016 69.661 31.6016C68.3783 31.6016 67.2857 31.1796 66.3831 30.3357C65.4923 29.4806 65.047 28.4342 65.047 27.1965C65.047 25.9588 65.4923 24.918 66.3831 24.0741C67.2857 23.219 68.3783 22.7914 69.661 22.7914C70.5042 22.7914 71.2584 22.9827 71.9234 23.3653C72.6004 23.7478 73.123 24.271 73.4911 24.9349V19.6016ZM67.0244 29.745C67.7607 30.4426 68.6574 30.7914 69.7144 30.7914C70.7714 30.7914 71.6622 30.4426 72.3866 29.745C73.123 29.0474 73.4911 28.1979 73.4911 27.1965C73.4911 26.1951 73.123 25.3456 72.3866 24.648C71.6622 23.9504 70.7714 23.6016 69.7144 23.6016C68.6574 23.6016 67.7607 23.9504 67.0244 24.648C66.2999 25.3456 65.9377 26.1951 65.9377 27.1965C65.9377 28.1979 66.2999 29.0474 67.0244 29.745Z" fill="#1F2937"/>
<path d="M78.0612 20.7492C77.9186 20.873 77.7524 20.9349 77.5623 20.9349C77.3723 20.9349 77.2061 20.873 77.0635 20.7492C76.921 20.6142 76.8498 20.4511 76.8498 20.2598C76.8498 20.0798 76.921 19.9279 77.0635 19.8041C77.2061 19.6691 77.3723 19.6016 77.5623 19.6016C77.7524 19.6016 77.9186 19.6691 78.0612 19.8041C78.2037 19.9279 78.2749 20.0798 78.2749 20.2598C78.2749 20.4511 78.2037 20.6142 78.0612 20.7492ZM77.117 31.4159V22.9771H78.0077V31.4159H77.117Z" fill="#1F2937"/>
<path d="M84.8326 31.6016C83.5261 31.6016 82.4157 31.1796 81.5012 30.3357C80.5986 29.4806 80.1473 28.4342 80.1473 27.1965C80.1473 25.9588 80.5986 24.918 81.5012 24.0741C82.4157 23.219 83.5261 22.7914 84.8326 22.7914C86.1271 22.7914 87.2257 23.219 88.1283 24.0741C89.0428 24.918 89.5 25.9588 89.5 27.1965C89.5 28.4342 89.0428 29.4806 88.1283 30.3357C87.2257 31.1796 86.1271 31.6016 84.8326 31.6016ZM82.1425 29.745C82.8789 30.4426 83.7755 30.7914 84.8326 30.7914C85.8896 30.7914 86.7803 30.4426 87.5047 29.745C88.2292 29.0474 88.5914 28.1979 88.5914 27.1965C88.5914 26.1951 88.2292 25.3456 87.5047 24.648C86.7803 23.9504 85.8896 23.6016 84.8326 23.6016C83.7755 23.6016 82.8789 23.9504 82.1425 24.648C81.4181 25.3456 81.0558 26.1951 81.0558 27.1965C81.0558 28.1979 81.4181 29.0474 82.1425 29.745Z" fill="#1F2937"/>
<defs>
<linearGradient id="paint0_linear" x1="4.67671" y1="4.62651" x2="28.4518" y2="27.6305" gradientUnits="userSpaceOnUse">
<stop stop-color="#4ADE80"/>
<stop offset="1" stop-color="#16A34A"/>
</linearGradient>
</defs>
</svg>
