<svg width="24" height="24" viewBox="0 0 24 24" fill="none" xmlns="http://www.w3.org/2000/svg">
<path d="M22 5.79711C21.2641 6.12344 20.4733 6.34398 19.6433 6.4432C20.4905 5.93539 21.1411 5.13125 21.4474 4.17312C20.642 4.65108 19.7608 4.98783 18.8419 5.16883C18.0934 4.37141 17.027 3.87305 15.8468 3.87305C13.5807 3.87305 11.7434 5.71023 11.7434 7.97617C11.7434 8.29781 11.7798 8.61094 11.8497 8.91133C8.43953 8.74016 5.41609 7.10664 3.39227 4.62414C3.03914 5.23016 2.8368 5.93508 2.8368 6.68695C2.8368 8.11055 3.56125 9.36641 4.66219 10.1023C4.01059 10.0819 3.37332 9.90587 2.80359 9.58898C2.80336 9.60617 2.80336 9.62336 2.80336 9.64062C2.80336 11.6287 4.21773 13.2871 6.09477 13.6641C5.49054 13.8284 4.85674 13.8524 4.2418 13.7344C4.76391 15.3645 6.2793 16.5508 8.07477 16.584C6.67047 17.6845 4.90117 18.3405 2.97883 18.3405C2.64758 18.3405 2.32102 18.321 2 18.2831C3.81586 19.4473 5.97266 20.1266 8.28984 20.1266C15.8373 20.1266 19.9644 13.8742 19.9644 8.45203C19.9644 8.27406 19.9605 8.09711 19.9525 7.92117C20.7558 7.34046 21.4492 6.62118 22 5.79711Z" fill="#55ACEE"/>
</svg>
