<svg width="32" height="32" viewBox="0 0 32 32" fill="none" xmlns="http://www.w3.org/2000/svg">
<path d="M11.9489 0.987073C10.6328 -0.329024 8.49899 -0.329025 7.18289 0.987072L0.987083 7.18288C-0.329014 8.49898 -0.329015 10.6328 0.987082 11.9489L2.65518 13.617C3.97128 14.9331 3.97128 17.0669 2.65518 18.383L0.987072 20.0511C-0.329024 21.3672 -0.329024 23.501 0.987073 24.8171L7.18288 31.0129C8.49898 32.329 10.6328 32.329 11.9489 31.0129L13.617 29.3448C14.9331 28.0287 17.0669 28.0287 18.383 29.3448L20.0511 31.0129C21.3672 32.329 23.501 32.329 24.8171 31.0129L31.0129 24.8171C32.329 23.501 32.329 21.3672 31.0129 20.0511L29.3448 18.383C28.0287 17.0669 28.0287 14.9331 29.3448 13.617L31.0129 11.9489C32.329 10.6328 32.329 8.49898 31.0129 7.18289L24.8171 0.987074C23.501 -0.329023 21.3672 -0.329021 20.0511 0.987076L18.383 2.65517C17.0669 3.97127 14.9331 3.97127 13.617 2.65517L11.9489 0.987073Z" fill="#1F2937"/>
<path d="M11.9489 0.987073C10.6328 -0.329024 8.49899 -0.329025 7.18289 0.987072L0.987083 7.18288C-0.329014 8.49898 -0.329015 10.6328 0.987082 11.9489L2.65518 13.617C3.97128 14.9331 3.97128 17.0669 2.65518 18.383L0.987072 20.0511C-0.329024 21.3672 -0.329024 23.501 0.987073 24.8171L7.18288 31.0129C8.49898 32.329 10.6328 32.329 11.9489 31.0129L13.617 29.3448C14.9331 28.0287 17.0669 28.0287 18.383 29.3448L20.0511 31.0129C21.3672 32.329 23.501 32.329 24.8171 31.0129L31.0129 24.8171C32.329 23.501 32.329 21.3672 31.0129 20.0511L29.3448 18.383C28.0287 17.0669 28.0287 14.9331 29.3448 13.617L31.0129 11.9489C32.329 10.6328 32.329 8.49898 31.0129 7.18289L24.8171 0.987074C23.501 -0.329023 21.3672 -0.329021 20.0511 0.987076L18.383 2.65517C17.0669 3.97127 14.9331 3.97127 13.617 2.65517L11.9489 0.987073Z" fill="url(#paint0_linear)"/>
<defs>
<linearGradient id="paint0_linear" x1="4.17671" y1="4.62651" x2="27.9518" y2="27.6305" gradientUnits="userSpaceOnUse">
<stop stop-color="#4ADE80"/>
<stop offset="1" stop-color="#16A34A"/>
</linearGradient>
</defs>
</svg>
