<svg width="24" height="25" viewBox="0 0 24 25" fill="none" xmlns="http://www.w3.org/2000/svg">
<path d="M14.6094 5.97571V10.0835L16.0464 10.9872C16.0983 10.9986 16.152 10.9986 16.2039 10.9872L22.3824 6.82171C22.3779 6.61954 22.3039 6.4251 22.1729 6.27103C22.0419 6.11697 21.8619 6.01269 21.6631 5.97571H14.6094Z" fill="#0072C6"/>
<path d="M14.6101 11.6157L15.9204 12.5157C15.9817 12.553 16.0522 12.5728 16.124 12.5728C16.1958 12.5728 16.2663 12.553 16.3276 12.5157C16.1026 12.6514 22.3824 8.48218 22.3824 8.48218V16.0317C22.3988 16.1847 22.3815 16.3394 22.3318 16.485C22.2822 16.6306 22.2013 16.7636 22.0948 16.8747C21.9884 16.9858 21.859 17.0723 21.7156 17.1281C21.5722 17.1839 21.4184 17.2078 21.2649 17.1979H14.6094V11.6157H14.6101Z" fill="#0072C6"/>
<path d="M7.82674 9.72196C7.60904 9.72092 7.39511 9.77878 7.20762 9.88943C7.02013 10.0001 6.86606 10.1594 6.76174 10.3505C6.47683 10.857 6.34012 11.4334 6.36724 12.014C6.33763 12.5933 6.47453 13.169 6.76174 13.673C6.86562 13.8562 7.0159 14.0088 7.19746 14.1156C7.37903 14.2223 7.58549 14.2794 7.7961 14.2811C8.00672 14.2827 8.21406 14.229 8.3973 14.1251C8.58054 14.0213 8.73322 13.871 8.83999 13.6895C9.12408 13.1878 9.25814 12.6151 9.22624 12.0395C9.25877 11.4458 9.12914 10.8544 8.85124 10.3287C8.75193 10.1439 8.60401 9.98965 8.42346 9.88271C8.24291 9.77578 8.03658 9.7202 7.82674 9.72196Z" fill="#0072C6"/>
<path d="M1.60938 3.8892V19.9594L13.8344 22.5229V1.52295L1.60938 3.8892ZM9.79037 14.6412C9.56169 14.9636 9.25761 15.2251 8.90465 15.4031C8.55169 15.581 8.16056 15.6699 7.76538 15.6619C7.38014 15.6688 6.99894 15.5825 6.65421 15.4104C6.30948 15.2383 6.01142 14.9855 5.78537 14.6734C5.24926 13.925 4.98108 13.0176 5.02412 12.0979C4.97852 11.1332 5.25155 10.1802 5.80112 9.38595C6.0327 9.0574 6.34155 8.79086 6.70045 8.60985C7.05935 8.42883 7.45726 8.33889 7.85913 8.34795C8.24157 8.34028 8.62006 8.4266 8.96136 8.59934C9.30266 8.77208 9.59634 9.02596 9.81662 9.3387C10.3474 10.1034 10.611 11.0219 10.5666 11.9517C10.6134 12.9095 10.3403 13.8556 9.79037 14.6412Z" fill="#0072C6"/>
</svg>
