<svg width="24" height="25" viewBox="0 0 24 25" fill="none" xmlns="http://www.w3.org/2000/svg">
<path d="M11 5.50016H6C5.46957 5.50016 4.96086 5.71088 4.58579 6.08595C4.21071 6.46102 4 6.96973 4 7.50016V18.5002C4 19.0306 4.21071 19.5393 4.58579 19.9144C4.96086 20.2894 5.46957 20.5002 6 20.5002H17C17.5304 20.5002 18.0391 20.2894 18.4142 19.9144C18.7893 19.5393 19 19.0306 19 18.5002V13.5002M17.586 4.08616C17.7705 3.89514 17.9912 3.74278 18.2352 3.63796C18.4792 3.53314 18.7416 3.47797 19.0072 3.47566C19.2728 3.47335 19.5361 3.52396 19.7819 3.62452C20.0277 3.72508 20.251 3.87359 20.4388 4.06137C20.6266 4.24916 20.7751 4.47246 20.8756 4.71825C20.9762 4.96405 21.0268 5.22741 21.0245 5.49296C21.0222 5.75852 20.967 6.02096 20.8622 6.26497C20.7574 6.50898 20.605 6.72967 20.414 6.91416L11.828 15.5002H9V12.6722L17.586 4.08616Z" stroke="#4B5563" stroke-linecap="round" stroke-linejoin="round"/>
</svg>
