<svg width="24" height="24" viewBox="0 0 24 24" fill="none" xmlns="http://www.w3.org/2000/svg">
<circle cx="12" cy="12" r="12" fill="#DC2626" fill-opacity="0.1"/>
<path d="M12 6.5L14.2222 8.72222L12 10.9444" stroke="#DC2626" stroke-linecap="round" stroke-linejoin="round"/>
<path d="M13.7769 8.94454C13.7769 8.94454 14.4536 8.61121 11.9991 8.61121C11.1201 8.61121 10.2608 8.87187 9.52993 9.36023C8.79905 9.84859 8.22939 10.5427 7.893 11.3548C7.55661 12.167 7.4686 13.0606 7.64009 13.9227C7.81158 14.7849 8.23487 15.5768 8.85644 16.1983C9.478 16.8199 10.2699 17.2432 11.1321 17.4147C11.9942 17.5862 12.8878 17.4982 13.6999 17.1618C14.5121 16.8254 15.2062 16.2557 15.6946 15.5248C16.1829 14.794 16.4436 13.9347 16.4436 13.0556" stroke="#DC2626" stroke-miterlimit="10" stroke-linecap="round"/>
</svg>
