<svg width="32" height="32" viewBox="0 0 32 32" fill="none" xmlns="http://www.w3.org/2000/svg">
<g clip-path="url(#clip0_5178_26536)">
<rect x="5.33398" y="4" width="21.3333" height="24" rx="2" fill="#16A34A"/>
<g filter="url(#filter0_dd_5178_26536)">
<rect x="2.66602" y="6.66675" width="26.6667" height="18.6667" rx="2" fill="#F0FDF4"/>
</g>
<g filter="url(#filter1_dd_5178_26536)">
<rect x="2.66602" y="6.66675" width="26.6667" height="18.6667" rx="2" fill="#F0FDF4"/>
</g>
<path d="M2.66602 23.3086L2.85216 23.6929C3.18633 24.3829 3.88552 24.8212 4.65217 24.8212H27.3623C28.1558 24.8212 28.8742 24.3521 29.1934 23.6256L29.3327 23.3086V23.3331C29.3327 24.4377 28.4373 25.3331 27.3327 25.3331H4.66601C3.56144 25.3331 2.66602 24.4377 2.66602 23.3331V23.3086Z" fill="#DCFCE7"/>
<path d="M2.66602 8.50391L2.85216 8.11955C3.18633 7.42956 3.88552 6.99132 4.65217 6.99132H27.3623C28.1558 6.99132 28.8742 7.4604 29.1934 8.18687L29.3327 8.50391V8.47936C29.3327 7.37479 28.4373 6.47936 27.3327 6.47936H4.66601C3.56144 6.47936 2.66602 7.37479 2.66602 8.47936V8.50391Z" fill="white"/>
<path d="M7.34079 13.453L7.72729 12.3351L8.03898 13.402L8.51892 13.2618L8.03898 13.402C8.12744 13.7047 8.37229 13.9261 8.66598 14.0002L9.60448 14.237L8.66754 14.4858C8.36483 14.5662 8.11701 14.8033 8.04067 15.121L7.78434 16.1878L7.34419 15.0291C7.24062 14.7565 7.00832 14.5615 6.73547 14.4937L5.88733 14.2828L6.78071 13.9962C7.0375 13.9138 7.24951 13.717 7.34079 13.453ZM7.69474 16.5606C7.69475 16.5606 7.69476 16.5605 7.69478 16.5605L7.69474 16.5606Z" stroke="#16A34A"/>
<path d="M13.0592 11.3463C13.0592 11.8065 12.6861 12.1796 12.2259 12.1796C11.7657 12.1796 11.3926 11.8065 11.3926 11.3463C11.3926 10.886 11.7657 10.5129 12.2259 10.5129C12.6861 10.5129 13.0592 10.886 13.0592 11.3463Z" stroke="#16A34A"/>
<mask id="path-8-inside-1_5178_26536" fill="white">
<ellipse cx="10.528" cy="18.2585" rx="0.666667" ry="0.666667"/>
</mask>
<ellipse cx="10.528" cy="18.2585" rx="0.666667" ry="0.666667" fill="#16A34A"/>
<path d="M10.1947 18.2585C10.1947 18.0744 10.3439 17.9251 10.528 17.9251V19.9251C11.4485 19.9251 12.1947 19.1789 12.1947 18.2585H10.1947ZM10.528 17.9251C10.7121 17.9251 10.8613 18.0744 10.8613 18.2585H8.86133C8.86133 19.1789 9.60752 19.9251 10.528 19.9251V17.9251ZM10.8613 18.2585C10.8613 18.4426 10.7121 18.5918 10.528 18.5918V16.5918C9.60752 16.5918 8.86133 17.338 8.86133 18.2585H10.8613ZM10.528 18.5918C10.3439 18.5918 10.1947 18.4426 10.1947 18.2585H12.1947C12.1947 17.338 11.4485 16.5918 10.528 16.5918V18.5918Z" fill="#16A34A" mask="url(#path-8-inside-1_5178_26536)"/>
</g>
<defs>
<filter id="filter0_dd_5178_26536" x="-0.333984" y="4.66675" width="32.666" height="24.6667" filterUnits="userSpaceOnUse" color-interpolation-filters="sRGB">
<feFlood flood-opacity="0" result="BackgroundImageFix"/>
<feColorMatrix in="SourceAlpha" type="matrix" values="0 0 0 0 0 0 0 0 0 0 0 0 0 0 0 0 0 0 127 0" result="hardAlpha"/>
<feOffset dy="1"/>
<feGaussianBlur stdDeviation="1.5"/>
<feColorMatrix type="matrix" values="0 0 0 0 0 0 0 0 0 0 0 0 0 0 0 0 0 0 0.1 0"/>
<feBlend mode="normal" in2="BackgroundImageFix" result="effect1_dropShadow_5178_26536"/>
<feColorMatrix in="SourceAlpha" type="matrix" values="0 0 0 0 0 0 0 0 0 0 0 0 0 0 0 0 0 0 127 0" result="hardAlpha"/>
<feOffset dy="1"/>
<feGaussianBlur stdDeviation="1"/>
<feColorMatrix type="matrix" values="0 0 0 0 0 0 0 0 0 0 0 0 0 0 0 0 0 0 0.06 0"/>
<feBlend mode="normal" in2="effect1_dropShadow_5178_26536" result="effect2_dropShadow_5178_26536"/>
<feBlend mode="normal" in="SourceGraphic" in2="effect2_dropShadow_5178_26536" result="shape"/>
</filter>
<filter id="filter1_dd_5178_26536" x="-7.33398" y="-2.33325" width="46.666" height="38.6667" filterUnits="userSpaceOnUse" color-interpolation-filters="sRGB">
<feFlood flood-opacity="0" result="BackgroundImageFix"/>
<feColorMatrix in="SourceAlpha" type="matrix" values="0 0 0 0 0 0 0 0 0 0 0 0 0 0 0 0 0 0 127 0" result="hardAlpha"/>
<feOffset dy="1"/>
<feGaussianBlur stdDeviation="5"/>
<feColorMatrix type="matrix" values="0 0 0 0 0.0862745 0 0 0 0 0.639216 0 0 0 0 0.290196 0 0 0 0.05 0"/>
<feBlend mode="normal" in2="BackgroundImageFix" result="effect1_dropShadow_5178_26536"/>
<feColorMatrix in="SourceAlpha" type="matrix" values="0 0 0 0 0 0 0 0 0 0 0 0 0 0 0 0 0 0 127 0" result="hardAlpha"/>
<feOffset dy="1"/>
<feGaussianBlur stdDeviation="5"/>
<feColorMatrix type="matrix" values="0 0 0 0 0.346052 0 0 0 0 0.579167 0 0 0 0 0.455473 0 0 0 0.05 0"/>
<feBlend mode="normal" in2="effect1_dropShadow_5178_26536" result="effect2_dropShadow_5178_26536"/>
<feBlend mode="normal" in="SourceGraphic" in2="effect2_dropShadow_5178_26536" result="shape"/>
</filter>
<clipPath id="clip0_5178_26536">
<rect width="32" height="32" fill="white"/>
</clipPath>
</defs>
</svg>
