<svg width="304" height="24" viewBox="0 0 304 24" fill="none" xmlns="http://www.w3.org/2000/svg">
<g clip-path="url(#clip0)">
<path fill-rule="evenodd" clip-rule="evenodd" d="M161.856 7.45271C162.142 7.53595 162.425 7.62662 162.706 7.72433C165.557 8.72033 167.4 10.2805 167.4 11.8937C167.4 13.576 165.431 15.2209 162.404 16.2384C162.244 16.2921 162.081 16.3438 161.914 16.3939C161.972 16.6313 162.025 16.8701 162.072 17.11C162.669 20.1721 162.209 22.6893 160.793 23.5209C159.422 24.3262 157.206 23.5352 154.962 21.5761C154.718 21.3627 154.48 21.1423 154.249 20.9154C154.069 21.0917 153.886 21.2635 153.698 21.4306C151.381 23.4851 149.003 24.3375 147.585 23.5083C146.213 22.7051 145.782 20.3622 146.334 17.4114C146.394 17.0908 146.463 16.7719 146.541 16.4552C146.302 16.3857 146.063 16.3101 145.827 16.2285C142.916 15.219 141 13.5539 141 11.8937C141 10.2862 142.785 8.73652 145.58 7.74776C145.903 7.63426 146.228 7.53034 146.557 7.43614C146.485 7.14204 146.42 6.84614 146.362 6.54871C145.783 3.54586 146.19 1.14605 147.566 0.337858C149.001 -0.504999 151.391 0.400144 153.775 2.54795C153.923 2.68186 154.069 2.81843 154.212 2.95805C154.426 2.74842 154.645 2.54429 154.87 2.34586C157.144 0.337287 159.397 -0.503094 160.774 0.30281C162.21 1.14319 162.631 3.69595 161.988 6.86452C161.947 7.06139 161.904 7.25748 161.856 7.45271ZM161.606 15.2927C161.755 15.2482 161.903 15.2014 162.05 15.1521H162.05C164.663 14.2735 166.272 12.9293 166.272 11.8937C166.272 10.9215 164.782 9.65976 162.339 8.80643C162.08 8.71607 161.818 8.63224 161.554 8.555C161.23 9.62167 160.796 10.7481 160.269 11.8994C160.821 13.0784 161.272 14.2196 161.606 15.2929V15.2927ZM161.092 20.8676C161.267 19.9106 161.23 18.6862 160.965 17.3323C160.923 17.1152 160.875 16.899 160.823 16.6841C159.729 16.9407 158.523 17.1285 157.247 17.2434C156.522 18.3091 155.778 19.2689 155.034 20.0946C155.25 20.3055 155.471 20.5102 155.698 20.7087C157.617 22.3841 159.396 23.0192 160.228 22.5306C160.619 22.3009 160.935 21.7276 161.092 20.8676ZM148.149 22.5169C148.54 22.7457 149.187 22.7375 150 22.4462C150.905 22.1219 151.931 21.4775 152.956 20.5689C153.127 20.4165 153.295 20.2598 153.459 20.099C152.688 19.2596 151.923 18.3009 151.192 17.258C149.913 17.1527 148.716 16.978 147.635 16.7354C147.562 17.03 147.498 17.3267 147.442 17.6249C146.97 20.1481 147.316 22.0297 148.149 22.5169ZM143.113 13.486C143.842 14.119 144.905 14.6994 146.192 15.1457C146.408 15.2201 146.625 15.2891 146.844 15.3527C147.177 14.2497 147.617 13.0914 148.147 11.9215C147.624 10.7687 147.19 9.62871 146.86 8.53843C146.554 8.62611 146.251 8.72285 145.951 8.82852C143.561 9.67424 142.128 10.9182 142.128 11.8937C142.128 12.352 142.458 12.9169 143.113 13.486ZM148.131 1.32833C147.302 1.81519 146.973 3.75614 147.469 6.3291V6.32891C147.522 6.60551 147.583 6.8807 147.65 7.15424C148.743 6.903 149.931 6.71557 151.173 6.59881C151.897 5.56186 152.655 4.61043 153.422 3.77481C153.292 3.6487 153.16 3.525 153.026 3.40376C150.968 1.54929 149.014 0.809477 148.131 1.32833ZM158.054 7.84262C158.331 8.2833 158.599 8.72994 158.857 9.18224C159.119 9.64174 159.372 10.1065 159.616 10.5761C159.95 9.783 160.234 9.00929 160.461 8.26948C159.666 8.08714 158.863 7.94468 158.054 7.84262H158.054ZM155.766 6.49557C155.254 5.80281 154.733 5.16433 154.212 4.59271C153.66 5.20052 153.137 5.83531 152.646 6.49481C153.686 6.44544 154.727 6.4457 155.766 6.49557ZM148.794 10.5754C149.269 9.63973 149.788 8.72711 150.348 7.84052C149.511 7.94662 148.708 8.08624 147.955 8.25729C148.184 9.00776 148.465 9.7849 148.794 10.5754ZM147.939 15.6316C148.692 15.7979 149.508 15.9306 150.372 16.0285C149.804 15.1334 149.278 14.2118 148.795 13.2666C148.46 14.074 148.172 14.8678 147.939 15.6316H147.939ZM152.655 17.3466C153.176 18.043 153.709 18.6902 154.244 19.2756C154.76 18.6984 155.28 18.05 155.794 17.3411C155.27 17.3647 154.738 17.3769 154.2 17.3769C153.676 17.3769 153.161 17.3668 152.655 17.3466ZM160.513 15.582C160.277 14.8312 159.98 14.0417 159.627 13.2255C159.382 13.7043 159.127 14.1775 158.861 14.6449C158.6 15.1046 158.33 15.5591 158.051 16.008C158.921 15.902 159.748 15.7592 160.513 15.582ZM156.617 16.1466C157.062 15.4695 157.484 14.7779 157.884 14.0731C158.288 13.3642 158.666 12.641 159.019 11.9049C158.662 11.1762 158.283 10.4594 157.881 9.75557C157.481 9.05371 157.056 8.3663 156.608 7.69462C155.007 7.57161 153.398 7.57136 151.796 7.69386C151.344 8.3666 150.917 9.05643 150.516 9.76186V9.76148C150.115 10.4669 149.741 11.1873 149.393 11.9211C150.092 13.3921 150.9 14.8078 151.81 16.1561C152.579 16.2068 153.379 16.2327 154.2 16.2327C155.025 16.2327 155.834 16.2034 156.617 16.1466ZM160.883 6.63348C161.439 3.89767 161.095 1.81157 160.211 1.29424C159.381 0.808525 157.559 1.48814 155.61 3.2091C155.403 3.39237 155.2 3.58081 155.003 3.77424C155.757 4.599 156.509 5.55214 157.234 6.60033C158.48 6.71881 159.669 6.90967 160.764 7.16605C160.807 6.98929 160.847 6.81176 160.883 6.63348Z" fill="#67DAF9"/>
<path fill-rule="evenodd" clip-rule="evenodd" d="M151.56 10.0952H152.847V11.3432H151.56V10.0952ZM151.56 12.5853V13.7143H152.847V12.5853H151.56ZM153.935 12.5853V13.7143H157.029V12.5853H153.935ZM157.029 11.3432V10.0952H153.935V11.3432H157.029Z" fill="#67DAF9"/>
</g>
<path fill-rule="evenodd" clip-rule="evenodd" d="M31.9681 18.9978C30.9441 18.9978 29.9585 18.8602 29.0113 18.585C28.0641 18.3098 27.2769 17.929 26.6497 17.4426L27.6097 15.3114C28.9153 16.2202 30.3809 16.6746 32.0065 16.6746C32.8513 16.6746 33.5009 16.537 33.9553 16.2618C34.4097 15.9866 34.6369 15.6058 34.6369 15.1194C34.6369 14.6842 34.4289 14.345 34.0129 14.1018C33.5969 13.8586 32.8577 13.6218 31.7953 13.3914C30.6049 13.1482 29.6545 12.8538 28.9441 12.5082C28.2337 12.1626 27.7153 11.737 27.3889 11.2314C27.0625 10.7258 26.8993 10.1018 26.8993 9.35941C26.8993 8.54021 27.1265 7.81061 27.5809 7.17061C28.0353 6.53061 28.6721 6.02821 29.4913 5.66341C30.3105 5.29861 31.2577 5.11621 32.3329 5.11621C33.2929 5.11621 34.2177 5.25701 35.1073 5.53861C35.9969 5.82021 36.7041 6.19781 37.2289 6.67141L36.2689 8.80261C35.0273 7.89381 33.7217 7.43941 32.3521 7.43941C31.5713 7.43941 30.9569 7.58981 30.5089 7.89061C30.0609 8.19141 29.8369 8.60421 29.8369 9.12901C29.8369 9.43621 29.9233 9.68901 30.0961 9.88741C30.2689 10.0858 30.5569 10.2618 30.9601 10.4154C31.3633 10.569 31.9361 10.729 32.6785 10.8954C34.4193 11.2794 35.6705 11.7722 36.4321 12.3738C37.1937 12.9754 37.5745 13.8074 37.5745 14.8698C37.5745 16.1498 37.0817 17.1578 36.0961 17.8938C35.1105 18.6298 33.7345 18.9978 31.9681 18.9978ZM44.5249 16.8474C44.8193 16.8474 45.1265 16.8282 45.4465 16.7898L45.2929 18.9018C44.9217 18.953 44.5505 18.9786 44.1793 18.9786C42.7457 18.9786 41.6993 18.665 41.0401 18.0378C40.3809 17.4106 40.0513 16.457 40.0513 15.177V11.5674H38.2657V9.39781H40.0513V6.63301H42.9505V9.39781H45.3121V11.5674H42.9505V15.1578C42.9505 16.2842 43.4753 16.8474 44.5249 16.8474ZM51.2641 18.9786C50.2656 18.9786 49.3889 18.777 48.6337 18.3738C47.8785 17.9706 47.2961 17.401 46.8865 16.665C46.4769 15.929 46.2721 15.0618 46.2721 14.0634C46.2721 13.065 46.4769 12.1978 46.8865 11.4618C47.2961 10.7258 47.8785 10.1594 48.6337 9.76261C49.3889 9.36581 50.2656 9.16741 51.2641 9.16741C52.2625 9.16741 53.1392 9.36581 53.8945 9.76261C54.6497 10.1594 55.2321 10.7258 55.6417 11.4618C56.0513 12.1978 56.2561 13.065 56.2561 14.0634C56.2561 15.0618 56.0513 15.929 55.6417 16.665C55.2321 17.401 54.6497 17.9706 53.8945 18.3738C53.1392 18.777 52.2625 18.9786 51.2641 18.9786ZM51.2641 16.7706C52.6721 16.7706 53.3761 15.8682 53.3761 14.0634C53.3761 13.1546 53.1937 12.4762 52.8289 12.0282C52.4641 11.5802 51.9425 11.3562 51.2641 11.3562C49.856 11.3562 49.1521 12.2586 49.1521 14.0634C49.1521 15.8682 49.856 16.7706 51.2641 16.7706ZM64.2817 11.5482L62.6497 11.721C61.8433 11.7978 61.2737 12.025 60.9409 12.4026C60.6081 12.7802 60.4417 13.2826 60.4417 13.9098V18.825H57.5425V9.39781H60.3265V10.9914C60.8001 9.90341 61.7792 9.30821 63.2641 9.20581L64.1089 9.14821L64.2817 11.5482ZM72.7057 9.41701H75.5473L69.8641 22.281H66.9265L68.7313 18.3066L64.8529 9.41701H67.8673L70.2481 15.4074L72.7057 9.41701ZM82.2673 9.16741C83.0865 9.16741 83.8096 9.36581 84.4368 9.76261C85.064 10.1594 85.5536 10.7258 85.9056 11.4618C86.2576 12.1978 86.4336 13.0522 86.4336 14.025C86.4336 14.9978 86.2576 15.8586 85.9056 16.6074C85.5536 17.3562 85.0609 17.9386 84.4273 18.3546C83.7936 18.7706 83.0737 18.9786 82.2673 18.9786C81.6144 18.9786 81.0257 18.841 80.5009 18.5658C79.976 18.2906 79.5728 17.9098 79.2912 17.4234V18.825H76.4305V5.28901H79.3297V10.665C79.6113 10.1914 80.0112 9.82341 80.5297 9.56101C81.0481 9.29861 81.6272 9.16741 82.2673 9.16741ZM81.4224 16.7706C82.1008 16.7706 82.6256 16.5306 82.9968 16.0506C83.3681 15.5706 83.5536 14.8954 83.5536 14.025C83.5536 13.1674 83.3681 12.5114 82.9968 12.057C82.6256 11.6026 82.1008 11.3754 81.4224 11.3754C80.744 11.3754 80.2193 11.609 79.848 12.0762C79.4768 12.5434 79.2912 13.2058 79.2912 14.0634C79.2912 14.9338 79.4768 15.6026 79.848 16.0698C80.2193 16.537 80.744 16.7706 81.4224 16.7706ZM92.7312 18.9786C91.7328 18.9786 90.856 18.777 90.1008 18.3738C89.3456 17.9706 88.7632 17.401 88.3536 16.665C87.944 15.929 87.7392 15.0618 87.7392 14.0634C87.7392 13.065 87.944 12.1978 88.3536 11.4618C88.7632 10.7258 89.3456 10.1594 90.1008 9.76261C90.856 9.36581 91.7328 9.16741 92.7312 9.16741C93.7297 9.16741 94.6064 9.36581 95.3616 9.76261C96.1169 10.1594 96.6992 10.7258 97.1088 11.4618C97.5185 12.1978 97.7232 13.065 97.7232 14.0634C97.7232 15.0618 97.5185 15.929 97.1088 16.665C96.6992 17.401 96.1169 17.9706 95.3616 18.3738C94.6064 18.777 93.7297 18.9786 92.7312 18.9786ZM92.7312 16.7706C94.1393 16.7706 94.8433 15.8682 94.8433 14.0634C94.8433 13.1546 94.6609 12.4762 94.2961 12.0282C93.9312 11.5802 93.4097 11.3562 92.7312 11.3562C91.3232 11.3562 90.6192 12.2586 90.6192 14.0634C90.6192 15.8682 91.3232 16.7706 92.7312 16.7706ZM103.541 18.9786C102.542 18.9786 101.666 18.777 100.91 18.3738C100.155 17.9706 99.5729 17.401 99.1632 16.665C98.7536 15.929 98.5489 15.0618 98.5489 14.0634C98.5489 13.065 98.7536 12.1978 99.1632 11.4618C99.5729 10.7258 100.155 10.1594 100.91 9.76261C101.666 9.36581 102.542 9.16741 103.541 9.16741C104.539 9.16741 105.416 9.36581 106.171 9.76261C106.926 10.1594 107.509 10.7258 107.918 11.4618C108.328 12.1978 108.533 13.065 108.533 14.0634C108.533 15.0618 108.328 15.929 107.918 16.665C107.509 17.401 106.926 17.9706 106.171 18.3738C105.416 18.777 104.539 18.9786 103.541 18.9786ZM103.541 16.7706C104.949 16.7706 105.653 15.8682 105.653 14.0634C105.653 13.1546 105.47 12.4762 105.106 12.0282C104.741 11.5802 104.219 11.3562 103.541 11.3562C102.133 11.3562 101.429 12.2586 101.429 14.0634C101.429 15.8682 102.133 16.7706 103.541 16.7706ZM120 18.825H116.448L112.838 14.6202V18.825H109.939V5.28901H112.838V13.4298L116.314 9.41701H119.77L115.814 13.9098L120 18.825Z" fill="#333333"/>
<mask id="mask0" mask-type="alpha" maskUnits="userSpaceOnUse" x="0" y="0" width="20" height="24">
<path d="M0.744335 22.1152L0.000864114 2.30507C-0.0236898 1.65082 0.477966 1.09635 1.1314 1.05551L17.9813 0.00239082C18.6464 -0.0391792 19.2193 0.466308 19.2609 1.13143C19.2625 1.15649 19.2632 1.18159 19.2632 1.2067V22.7933C19.2632 23.4598 18.723 24 18.0566 24C18.0385 24 18.0205 23.9996 18.0024 23.9988L1.896 23.2754C1.26872 23.2472 0.767884 22.7427 0.744335 22.1152Z" fill="white"/>
</mask>
<g mask="url(#mask0)">
<path d="M0.744335 22.1152L0.000864114 2.30507C-0.0236898 1.65082 0.477966 1.09635 1.1314 1.05551L17.9813 0.00239082C18.6464 -0.0391792 19.2193 0.466308 19.2609 1.13143C19.2625 1.15649 19.2632 1.18159 19.2632 1.2067V22.7933C19.2632 23.4598 18.723 24 18.0566 24C18.0385 24 18.0205 23.9996 18.0024 23.9988L1.896 23.2754C1.26872 23.2472 0.767884 22.7427 0.744335 22.1152Z" fill="#FF4785"/>
<path d="M14.2245 2.94998L14.3396 0.181814L16.6536 0L16.7533 2.85472C16.7568 2.95407 16.679 3.03742 16.5797 3.04089C16.5372 3.04237 16.4955 3.02874 16.462 3.00239L15.5697 2.29943L14.5131 3.10087C14.4339 3.16095 14.321 3.14545 14.261 3.06624C14.2357 3.0329 14.2228 2.99179 14.2245 2.94998Z" fill="white"/>
<path d="M11.2652 9.04612C11.2652 9.51558 14.4274 9.29058 14.8519 8.96082C14.8519 5.76391 13.1365 4.08398 9.99535 4.08398C6.85419 4.08398 5.09424 5.79005 5.09424 8.34914C5.09424 12.8062 11.1092 12.8915 11.1092 15.3227C11.1092 16.0051 10.7751 16.4103 10.0399 16.4103C9.08196 16.4103 8.70324 15.9211 8.7478 14.2577C8.7478 13.8968 5.09424 13.7843 4.98285 14.2577C4.69921 18.2887 7.21063 19.4514 10.0845 19.4514C12.8692 19.4514 15.0524 17.9671 15.0524 15.28C15.0524 10.5031 8.9483 10.631 8.9483 8.26384C8.9483 7.30418 9.66118 7.17623 10.0845 7.17623C10.53 7.17623 11.332 7.25476 11.2652 9.04612Z" fill="white"/>
</g>
<path d="M180.104 16L177.864 12.108H176.646V16H175.05V6.27H178.41C179.157 6.27 179.787 6.40067 180.3 6.662C180.823 6.92333 181.21 7.27333 181.462 7.712C181.723 8.15067 181.854 8.64067 181.854 9.182C181.854 9.81667 181.667 10.3953 181.294 10.918C180.93 11.4313 180.365 11.7813 179.6 11.968L182.008 16H180.104ZM176.646 10.834H178.41C179.007 10.834 179.455 10.6847 179.754 10.386C180.062 10.0873 180.216 9.686 180.216 9.182C180.216 8.678 180.067 8.286 179.768 8.006C179.469 7.71667 179.017 7.572 178.41 7.572H176.646V10.834ZM190.966 11.954C190.966 12.2433 190.947 12.5047 190.91 12.738H185.016C185.062 13.354 185.291 13.8487 185.702 14.222C186.112 14.5953 186.616 14.782 187.214 14.782C188.072 14.782 188.679 14.4227 189.034 13.704H190.756C190.522 14.4133 190.098 14.9967 189.482 15.454C188.875 15.902 188.119 16.126 187.214 16.126C186.476 16.126 185.814 15.9627 185.226 15.636C184.647 15.3 184.19 14.8333 183.854 14.236C183.527 13.6293 183.364 12.9293 183.364 12.136C183.364 11.3427 183.522 10.6473 183.84 10.05C184.166 9.44333 184.619 8.97667 185.198 8.65C185.786 8.32333 186.458 8.16 187.214 8.16C187.942 8.16 188.59 8.31867 189.16 8.636C189.729 8.95333 190.172 9.40133 190.49 9.98C190.807 10.5493 190.966 11.2073 190.966 11.954ZM189.3 11.45C189.29 10.862 189.08 10.3907 188.67 10.036C188.259 9.68133 187.75 9.504 187.144 9.504C186.593 9.504 186.122 9.68133 185.73 10.036C185.338 10.3813 185.104 10.8527 185.03 11.45H189.3ZM192.004 12.108C192.004 11.3333 192.163 10.6473 192.48 10.05C192.807 9.45267 193.246 8.99067 193.796 8.664C194.356 8.328 194.972 8.16 195.644 8.16C196.251 8.16 196.778 8.28133 197.226 8.524C197.684 8.75733 198.048 9.05133 198.318 9.406V8.286H199.928V16H198.318V14.852C198.048 15.216 197.679 15.5193 197.212 15.762C196.746 16.0047 196.214 16.126 195.616 16.126C194.954 16.126 194.347 15.958 193.796 15.622C193.246 15.2767 192.807 14.8007 192.48 14.194C192.163 13.578 192.004 12.8827 192.004 12.108ZM198.318 12.136C198.318 11.604 198.206 11.142 197.982 10.75C197.768 10.358 197.483 10.0593 197.128 9.854C196.774 9.64867 196.391 9.546 195.98 9.546C195.57 9.546 195.187 9.64867 194.832 9.854C194.478 10.05 194.188 10.344 193.964 10.736C193.75 11.1187 193.642 11.576 193.642 12.108C193.642 12.64 193.75 13.1067 193.964 13.508C194.188 13.9093 194.478 14.2173 194.832 14.432C195.196 14.6373 195.579 14.74 195.98 14.74C196.391 14.74 196.774 14.6373 197.128 14.432C197.483 14.2267 197.768 13.928 197.982 13.536C198.206 13.1347 198.318 12.668 198.318 12.136ZM201.493 12.136C201.493 11.3427 201.651 10.6473 201.969 10.05C202.295 9.44333 202.743 8.97667 203.313 8.65C203.882 8.32333 204.535 8.16 205.273 8.16C206.206 8.16 206.976 8.384 207.583 8.832C208.199 9.27067 208.614 9.90067 208.829 10.722H207.107C206.967 10.3393 206.743 10.0407 206.435 9.826C206.127 9.61133 205.739 9.504 205.273 9.504C204.619 9.504 204.097 9.73733 203.705 10.204C203.322 10.6613 203.131 11.3053 203.131 12.136C203.131 12.9667 203.322 13.6153 203.705 14.082C204.097 14.5487 204.619 14.782 205.273 14.782C206.197 14.782 206.808 14.376 207.107 13.564H208.829C208.605 14.348 208.185 14.9733 207.569 15.44C206.953 15.8973 206.187 16.126 205.273 16.126C204.535 16.126 203.882 15.9627 203.313 15.636C202.743 15.3 202.295 14.8333 201.969 14.236C201.651 13.6293 201.493 12.9293 201.493 12.136ZM212.281 9.588V13.858C212.281 14.1473 212.346 14.3573 212.477 14.488C212.617 14.6093 212.85 14.67 213.177 14.67H214.157V16H212.897C212.178 16 211.628 15.832 211.245 15.496C210.862 15.16 210.671 14.614 210.671 13.858V9.588H209.761V8.286H210.671V6.368H212.281V8.286H214.157V9.588H212.281ZM224.991 6.27V7.572H220.861V10.442H224.081V11.744H220.861V16H219.265V6.27H224.991ZM227.282 7.264C226.993 7.264 226.75 7.166 226.554 6.97C226.358 6.774 226.26 6.53133 226.26 6.242C226.26 5.95267 226.358 5.71 226.554 5.514C226.75 5.318 226.993 5.22 227.282 5.22C227.562 5.22 227.8 5.318 227.996 5.514C228.192 5.71 228.29 5.95267 228.29 6.242C228.29 6.53133 228.192 6.774 227.996 6.97C227.8 7.166 227.562 7.264 227.282 7.264ZM228.066 8.286V16H226.47V8.286H228.066ZM234.053 8.16C234.66 8.16 235.201 8.286 235.677 8.538C236.163 8.79 236.541 9.16333 236.811 9.658C237.082 10.1527 237.217 10.75 237.217 11.45V16H235.635V11.688C235.635 10.9973 235.463 10.47 235.117 10.106C234.772 9.73267 234.301 9.546 233.703 9.546C233.106 9.546 232.63 9.73267 232.275 10.106C231.93 10.47 231.757 10.9973 231.757 11.688V16H230.161V8.286H231.757V9.168C232.019 8.85067 232.35 8.60333 232.751 8.426C233.162 8.24867 233.596 8.16 234.053 8.16ZM240.849 5.64V16H239.253V5.64H240.849ZM242.413 12.108C242.413 11.3333 242.571 10.6473 242.889 10.05C243.215 9.45267 243.654 8.99067 244.205 8.664C244.765 8.328 245.381 8.16 246.053 8.16C246.659 8.16 247.187 8.28133 247.635 8.524C248.092 8.75733 248.456 9.05133 248.727 9.406V8.286H250.337V16H248.727V14.852C248.456 15.216 248.087 15.5193 247.621 15.762C247.154 16.0047 246.622 16.126 246.025 16.126C245.362 16.126 244.755 15.958 244.205 15.622C243.654 15.2767 243.215 14.8007 242.889 14.194C242.571 13.578 242.413 12.8827 242.413 12.108ZM248.727 12.136C248.727 11.604 248.615 11.142 248.391 10.75C248.176 10.358 247.891 10.0593 247.537 9.854C247.182 9.64867 246.799 9.546 246.389 9.546C245.978 9.546 245.595 9.64867 245.241 9.854C244.886 10.05 244.597 10.344 244.373 10.736C244.158 11.1187 244.051 11.576 244.051 12.108C244.051 12.64 244.158 13.1067 244.373 13.508C244.597 13.9093 244.886 14.2173 245.241 14.432C245.605 14.6373 245.987 14.74 246.389 14.74C246.799 14.74 247.182 14.6373 247.537 14.432C247.891 14.2267 248.176 13.928 248.391 13.536C248.615 13.1347 248.727 12.668 248.727 12.136ZM256.325 8.16C256.931 8.16 257.473 8.286 257.949 8.538C258.434 8.79 258.812 9.16333 259.083 9.658C259.353 10.1527 259.489 10.75 259.489 11.45V16H257.907V11.688C257.907 10.9973 257.734 10.47 257.389 10.106C257.043 9.73267 256.572 9.546 255.975 9.546C255.377 9.546 254.901 9.73267 254.547 10.106C254.201 10.47 254.029 10.9973 254.029 11.688V16H252.433V8.286H254.029V9.168C254.29 8.85067 254.621 8.60333 255.023 8.426C255.433 8.24867 255.867 8.16 256.325 8.16ZM260.993 12.108C260.993 11.3333 261.151 10.6473 261.469 10.05C261.795 9.45267 262.234 8.99067 262.785 8.664C263.345 8.328 263.965 8.16 264.647 8.16C265.151 8.16 265.645 8.272 266.131 8.496C266.625 8.71067 267.017 9 267.307 9.364V5.64H268.917V16H267.307V14.838C267.045 15.2113 266.681 15.5193 266.215 15.762C265.757 16.0047 265.23 16.126 264.633 16.126C263.961 16.126 263.345 15.958 262.785 15.622C262.234 15.2767 261.795 14.8007 261.469 14.194C261.151 13.578 260.993 12.8827 260.993 12.108ZM267.307 12.136C267.307 11.604 267.195 11.142 266.971 10.75C266.756 10.358 266.471 10.0593 266.117 9.854C265.762 9.64867 265.379 9.546 264.969 9.546C264.558 9.546 264.175 9.64867 263.821 9.854C263.466 10.05 263.177 10.344 262.953 10.736C262.738 11.1187 262.631 11.576 262.631 12.108C262.631 12.64 262.738 13.1067 262.953 13.508C263.177 13.9093 263.466 14.2173 263.821 14.432C264.185 14.6373 264.567 14.74 264.969 14.74C265.379 14.74 265.762 14.6373 266.117 14.432C266.471 14.2267 266.756 13.928 266.971 13.536C267.195 13.1347 267.307 12.668 267.307 12.136ZM275.322 13.83C276.218 13.0553 276.922 12.4207 277.436 11.926C277.958 11.422 278.392 10.8993 278.738 10.358C279.083 9.81667 279.256 9.27533 279.256 8.734C279.256 8.174 279.12 7.73533 278.85 7.418C278.588 7.10067 278.173 6.942 277.604 6.942C277.053 6.942 276.624 7.11933 276.316 7.474C276.017 7.81933 275.858 8.286 275.84 8.874H274.3C274.328 7.81 274.645 6.998 275.252 6.438C275.868 5.86867 276.647 5.584 277.59 5.584C278.607 5.584 279.4 5.864 279.97 6.424C280.548 6.984 280.838 7.73067 280.838 8.664C280.838 9.336 280.665 9.98467 280.32 10.61C279.984 11.226 279.578 11.7813 279.102 12.276C278.635 12.7613 278.038 13.326 277.31 13.97L276.68 14.53H281.118V15.86H274.314V14.698L275.322 13.83ZM282.52 10.764C282.52 9.14933 282.79 7.88933 283.332 6.984C283.882 6.06933 284.825 5.612 286.16 5.612C287.494 5.612 288.432 6.06933 288.974 6.984C289.524 7.88933 289.8 9.14933 289.8 10.764C289.8 12.3973 289.524 13.676 288.974 14.6C288.432 15.5147 287.494 15.972 286.16 15.972C284.825 15.972 283.882 15.5147 283.332 14.6C282.79 13.676 282.52 12.3973 282.52 10.764ZM288.232 10.764C288.232 10.008 288.18 9.36867 288.078 8.846C287.984 8.32333 287.788 7.89867 287.49 7.572C287.191 7.236 286.748 7.068 286.16 7.068C285.572 7.068 285.128 7.236 284.83 7.572C284.531 7.89867 284.33 8.32333 284.228 8.846C284.134 9.36867 284.088 10.008 284.088 10.764C284.088 11.548 284.134 12.206 284.228 12.738C284.321 13.27 284.517 13.6993 284.816 14.026C285.124 14.3527 285.572 14.516 286.16 14.516C286.748 14.516 287.191 14.3527 287.49 14.026C287.798 13.6993 287.998 13.27 288.092 12.738C288.185 12.206 288.232 11.548 288.232 10.764ZM292.37 13.83C293.266 13.0553 293.971 12.4207 294.484 11.926C295.007 11.422 295.441 10.8993 295.786 10.358C296.132 9.81667 296.304 9.27533 296.304 8.734C296.304 8.174 296.169 7.73533 295.898 7.418C295.637 7.10067 295.222 6.942 294.652 6.942C294.102 6.942 293.672 7.11933 293.364 7.474C293.066 7.81933 292.907 8.286 292.888 8.874H291.348C291.376 7.81 291.694 6.998 292.3 6.438C292.916 5.86867 293.696 5.584 294.638 5.584C295.656 5.584 296.449 5.864 297.018 6.424C297.597 6.984 297.886 7.73067 297.886 8.664C297.886 9.336 297.714 9.98467 297.368 10.61C297.032 11.226 296.626 11.7813 296.15 12.276C295.684 12.7613 295.086 13.326 294.358 13.97L293.728 14.53H298.166V15.86H291.362V14.698L292.37 13.83ZM299.359 7.25V5.794H302.271V16H300.661V7.25H299.359Z" fill="#374151"/>
<defs>
<clipPath id="clip0">
<rect width="26.4" height="24" fill="white" transform="translate(141)"/>
</clipPath>
</defs>
</svg>
