<svg width="24" height="24" viewBox="0 0 24 24" fill="none" xmlns="http://www.w3.org/2000/svg">
<path d="M6.36778 6.47583H5.90298V3.00679M6.36778 6.47583C6.89963 5.1631 7.85176 4.06379 9.07512 3.35C10.2985 2.6362 11.724 2.34821 13.1285 2.53113C14.533 2.71404 15.8372 3.35753 16.837 4.36085C17.3613 4.88705 17.7863 5.49663 18.0977 6.16011M6.36778 6.47583H9.00464" stroke="#4B5563" stroke-linecap="round" stroke-linejoin="round"/>
<path d="M17.6322 17.532H18.097V21.001M17.6322 17.532C17.1004 18.8447 16.1482 19.944 14.9249 20.6578C13.7015 21.3716 12.276 21.6596 10.8715 21.4767C9.46699 21.2938 8.16278 20.6503 7.16305 19.647C6.63873 19.1208 6.21369 18.5112 5.90234 17.8477M17.6322 17.532H14.9954" stroke="#4B5563" stroke-linecap="round" stroke-linejoin="round"/>
<rect x="2.5" y="9.50391" width="7" height="5" rx="0.5" stroke="#4B5563"/>
<rect x="14.5195" y="9.50391" width="7" height="5" rx="0.5" stroke="#4B5563"/>
</svg>
