<svg width="16" height="16" viewBox="0 0 16 16" fill="none" xmlns="http://www.w3.org/2000/svg">
<path d="M1.33203 12V4C1.33203 3.46957 1.54274 2.96086 1.91782 2.58579C2.29289 2.21071 2.8016 2 3.33203 2H4.66536C5.1958 2 5.70451 2.21071 6.07958 2.58579C6.45465 2.96086 6.66536 3.46957 6.66536 4V12C6.66536 12.5304 6.45465 13.0391 6.07958 13.4142C5.70451 13.7893 5.1958 14 4.66536 14H3.33203C2.8016 14 2.29289 13.7893 1.91782 13.4142C1.54274 13.0391 1.33203 12.5304 1.33203 12Z" stroke="white" stroke-opacity="0.9"/>
<path d="M11.9974 2C12.7046 2 13.3829 2.28095 13.883 2.78105C14.3831 3.28115 14.6641 3.95942 14.6641 4.66667V11.3333C14.6641 12.0406 14.3831 12.7189 13.883 13.219C13.3829 13.719 12.7046 14 11.9974 14M6.66406 8H11.9974M11.9974 8L9.9974 6M11.9974 8L9.9974 10" stroke="white" stroke-opacity="0.9" stroke-linecap="round" stroke-linejoin="round"/>
</svg>
