<svg width="24" height="24" viewBox="0 0 24 24" fill="none" xmlns="http://www.w3.org/2000/svg">
<rect x="3" y="3" width="18" height="18" rx="8" fill="white"/>
<path d="M18.3368 18.3371H15.6698V14.1603C15.6698 13.1643 15.652 11.8822 14.2827 11.8822C12.8936 11.8822 12.681 12.9674 12.681 14.0878V18.3368H10.0141V9.74772H12.5744V10.9215H12.6102C12.8665 10.4834 13.2367 10.123 13.6816 9.87865C14.1264 9.63432 14.6292 9.51522 15.1364 9.53404C17.8396 9.53404 18.338 11.3121 18.338 13.6252L18.3368 18.3371ZM7.00472 8.57371C6.14993 8.57385 5.45686 7.881 5.45672 7.02621C5.45658 6.17142 6.14937 5.47835 7.00416 5.47821C7.85895 5.478 8.55202 6.17086 8.55216 7.02564C8.55223 7.43613 8.38924 7.82984 8.09904 8.12015C7.80884 8.41047 7.41521 8.57362 7.00472 8.57371ZM8.33827 18.3372H5.66843V9.74772H8.3382V18.3371L8.33827 18.3372ZM19.6665 3.00131H4.32827C3.60335 2.99315 3.00886 3.57386 3 4.29879V19.7009C3.00858 20.4262 3.603 21.0075 4.3282 20.9999H19.6665C20.3932 21.0089 20.9899 20.4276 21 19.7009V4.29759C20.9897 3.57126 20.3929 2.99062 19.6665 3.00011" fill="#0A66C2"/>
</svg>
