<svg width="24" height="24" viewBox="0 0 24 24" fill="none" xmlns="http://www.w3.org/2000/svg">
<g clip-path="url(#clip0_7888_80466)">
<path d="M23 5.18678C22.1762 5.55174 21.3024 5.79129 20.4076 5.89748C21.3396 5.33889 22.0552 4.45434 22.3922 3.4004C21.5062 3.92615 20.5369 4.29658 19.5261 4.49567C18.7027 3.61851 17.5297 3.07031 16.2315 3.07031C13.7388 3.07031 11.7178 5.09122 11.7178 7.58375C11.7178 7.93755 11.7577 8.28199 11.8347 8.61242C8.08348 8.42413 4.7577 6.62726 2.53149 3.89652C2.14305 4.56313 1.92048 5.33855 1.92048 6.16561C1.92048 7.73156 2.71738 9.11301 3.92841 9.92245C3.21164 9.9 2.51065 9.70641 1.88395 9.35784C1.8837 9.37675 1.8837 9.39565 1.8837 9.41465C1.8837 11.6015 3.43951 13.4258 5.50424 13.8404C4.83959 14.0212 4.14242 14.0476 3.46598 13.9178C4.0403 15.7109 5.70723 17.0158 7.68224 17.0523C6.13752 18.2629 4.19129 18.9845 2.07671 18.9845C1.71234 18.9845 1.35312 18.9631 1 18.9214C2.99745 20.202 5.36992 20.9493 7.91883 20.9493C16.221 20.9493 20.7608 14.0716 20.7608 8.10719C20.7608 7.91143 20.7565 7.71678 20.7478 7.52325C21.6314 6.88446 22.3941 6.09326 23 5.18678" fill="#55ACEE"/>
</g>
<defs>
<clipPath id="clip0_7888_80466">
<rect width="22" height="17.9609" fill="white" transform="translate(1 3)"/>
</clipPath>
</defs>
</svg>
