<svg width="24" height="24" viewBox="0 0 24 24" fill="none" xmlns="http://www.w3.org/2000/svg">
<path d="M21 12C21 14.3869 20.0518 16.6761 18.364 18.364C16.6761 20.0518 14.3869 21 12 21M21 12C21 9.61305 20.0518 7.32387 18.364 5.63604C16.6761 3.94821 14.3869 3 12 3M21 12H3M12 21C9.61305 21 7.32387 20.0518 5.63604 18.364C3.94821 16.6761 3 14.3869 3 12M12 21C13.657 21 15 16.97 15 12C15 7.03 13.657 3 12 3M12 21C10.343 21 9 16.97 9 12C9 7.03 10.343 3 12 3M12 3C9.61305 3 7.32387 3.94821 5.63604 5.63604C3.94821 7.32387 3 9.61305 3 12" stroke="url(#paint0_linear_9057_86368)" stroke-width="2" stroke-linecap="round" stroke-linejoin="round"/>
<defs>
<linearGradient id="paint0_linear_9057_86368" x1="2.52562" y1="3" x2="21" y2="21" gradientUnits="userSpaceOnUse">
<stop stop-color="#DB1685"/>
<stop offset="0.520833" stop-color="#8165D6"/>
<stop offset="0.958333" stop-color="#48A8F7"/>
</linearGradient>
</defs>
</svg>
