<svg width="115" height="92" viewBox="0 0 115 92" fill="none" xmlns="http://www.w3.org/2000/svg">
<path d="M49.1204 15.3448L33.8153 16.9534L40.0747 2.89443L49.1204 15.3448Z" fill="#5156EA"/>
<path d="M36.1104 44.5658L20.8052 46.1744L27.0647 32.1155L36.1104 44.5658Z" fill="#5156EA"/>
<path d="M42.6154 29.9553L27.3102 31.5639L33.5697 17.5049L42.6154 29.9553Z" fill="#5156EA"/>
<path d="M29.6054 59.1763L14.3002 60.7849L20.5597 46.7259L29.6054 59.1763Z" fill="#5156EA"/>
<path d="M23.1003 73.7869L7.79518 75.3955L14.0546 61.3365L23.1003 73.7869Z" fill="#5156EA"/>
<path d="M33.6925 17.2292L48.9977 15.6205L42.7382 29.6795L33.6925 17.2292Z" fill="#51A3EA"/>
<path d="M20.6824 46.4502L35.9876 44.8416L29.7281 58.9006L20.6824 46.4502Z" fill="#51A3EA"/>
<path d="M27.1875 31.8396L42.4926 30.231L36.2332 44.29L27.1875 31.8396Z" fill="#51A3EA"/>
<path d="M14.1774 61.0608L29.4826 59.4521L23.2231 73.5111L14.1774 61.0608Z" fill="#51A3EA"/>
<path d="M7.6724 75.6713L22.9776 74.0626L16.7181 88.1216L7.6724 75.6713Z" fill="#51A3EA"/>
<path d="M57.9522 74.4399L71.2799 66.7452V82.1346L57.9522 74.4399Z" fill="#5156EA"/>
<path d="M86.3846 58.0025L99.7123 50.3077V65.6972L86.3846 58.0025Z" fill="#5156EA"/>
<path d="M72.1684 65.999L85.496 58.3043V73.6938L72.1684 65.999Z" fill="#5156EA"/>
<path d="M100.601 49.5616L113.928 41.8669V57.2563L100.601 49.5616Z" fill="#5156EA"/>
<path d="M72.1684 33.1241L85.496 25.4294V40.8188L72.1684 33.1241Z" fill="#5156EA"/>
<path d="M86.3846 41.565L99.7123 33.8702V49.2597L86.3846 41.565Z" fill="#5156EA"/>
<path d="M57.9522 25.1275L71.2799 17.4328V32.8223L57.9522 25.1275Z" fill="#5156EA"/>
<path d="M70.8356 82.4365L57.5079 90.1312V74.7418L70.8356 82.4365Z" fill="#51A3EA"/>
<path d="M99.268 65.9991L85.9403 73.6938V58.3043L99.268 65.9991Z" fill="#51A3EA"/>
<path d="M99.268 33.5683L85.9403 41.2631V25.8736L99.268 33.5683Z" fill="#51A3EA"/>
<path d="M70.8356 17.1309L57.5079 24.8256V9.43617L70.8356 17.1309Z" fill="#51A3EA"/>
<path d="M85.0518 73.9956L71.7241 81.6904V66.3009L85.0518 73.9956Z" fill="#51A3EA"/>
<path d="M113.484 57.5582L100.157 65.2529V49.8635L113.484 57.5582Z" fill="#51A3EA"/>
<path d="M113.484 41.565L100.157 49.2597V33.8703L113.484 41.565Z" fill="#51A3EA"/>
<path d="M85.0518 25.1275L71.7241 32.8223V17.4328L85.0518 25.1275Z" fill="#51A3EA"/>
</svg>
