<svg width="89" height="25" viewBox="0 0 89 25" fill="none" xmlns="http://www.w3.org/2000/svg">
<path d="M9.17701 0.801828C8.18994 -0.185244 6.58957 -0.185245 5.6025 0.801828L0.955644 5.44869C-0.0314281 6.43576 -0.0314289 8.03612 0.955644 9.02319L2.20672 10.2743C3.19379 11.2613 3.19379 12.8617 2.20672 13.8488L0.955636 15.0999C-0.0314363 16.0869 -0.0314359 17.6873 0.955636 18.6744L5.60249 23.3212C6.58957 24.3083 8.18993 24.3083 9.177 23.3212L10.4281 22.0701C11.4152 21.0831 13.0155 21.0831 14.0026 22.0701L15.2537 23.3212C16.2407 24.3083 17.8411 24.3083 18.8282 23.3212L23.475 18.6744C24.4621 17.6873 24.4621 16.0869 23.475 15.0999L22.224 13.8488C21.2369 12.8617 21.2369 11.2613 22.2239 10.2743L23.475 9.0232C24.4621 8.03612 24.4621 6.43576 23.475 5.44869L18.8282 0.801829C17.8411 -0.185243 16.2407 -0.185242 15.2537 0.80183L14.0026 2.0529C13.0155 3.03997 11.4152 3.03998 10.4281 2.0529L9.17701 0.801828Z" fill="#F9FAFB" fill-opacity="0.8"/>
<path d="M31.0579 8.86374C30.8824 9.04403 30.6717 9.13417 30.426 9.13417C30.1802 9.13417 29.9652 9.04403 29.7809 8.86374C29.6053 8.67444 29.5176 8.45359 29.5176 8.20118C29.5176 7.94878 29.6053 7.73244 29.7809 7.55215C29.9564 7.36285 30.1714 7.2682 30.426 7.2682C30.6805 7.2682 30.8955 7.36285 31.0711 7.55215C31.2466 7.73244 31.3344 7.94878 31.3344 8.20118C31.3344 8.45359 31.2422 8.67444 31.0579 8.86374ZM29.7151 16.9091V10.1483H31.1369V16.9091H29.7151Z" fill="#F9FAFB" fill-opacity="0.8"/>
<path d="M36.2502 9.97251C37.005 9.97251 37.615 10.2204 38.0802 10.7162C38.5453 11.212 38.7779 11.8926 38.7779 12.7579V16.9091H37.3561V12.9067C37.3561 12.4019 37.2244 12.0143 36.9611 11.7438C36.6978 11.4734 36.338 11.3382 35.8816 11.3382C35.3813 11.3382 34.9776 11.5004 34.6704 11.825C34.3632 12.1405 34.2096 12.6272 34.2096 13.2853V16.9091H32.7878V10.1483H34.2096V11.0137C34.6397 10.3196 35.3199 9.97251 36.2502 9.97251Z" fill="#F9FAFB" fill-opacity="0.8"/>
<path d="M43.4158 17.0848C42.4241 17.0848 41.5947 16.7423 40.9276 16.0572C40.2694 15.3721 39.9402 14.5293 39.9402 13.5287C39.9402 12.5191 40.2694 11.6762 40.9276 11.0001C41.5947 10.3151 42.4241 9.97251 43.4158 9.97251C44.0565 9.97251 44.6402 10.1303 45.1668 10.4458C45.6934 10.7613 46.0884 11.1849 46.3517 11.7168L45.1273 12.447C44.9781 12.1224 44.7499 11.87 44.4427 11.6897C44.1443 11.5004 43.7976 11.4058 43.4027 11.4058C42.8234 11.4058 42.3363 11.6086 41.9413 12.0143C41.5552 12.4199 41.3621 12.9247 41.3621 13.5287C41.3621 14.1326 41.5552 14.6374 41.9413 15.0431C42.3363 15.4487 42.8234 15.6516 43.4027 15.6516C43.7889 15.6516 44.1355 15.5569 44.4427 15.3676C44.7587 15.1783 44.9957 14.9259 45.1536 14.6104L46.378 15.327C46.0971 15.8679 45.6934 16.2961 45.1668 16.6116C44.6402 16.9271 44.0565 17.0848 43.4158 17.0848Z" fill="#F9FAFB" fill-opacity="0.8"/>
<path d="M48.8661 11.005C49.4301 10.3065 49.9083 10.1661 50.8935 10.1661V11.5388C50.3494 11.5028 49.8754 11.7078 49.4717 12.0143C49.068 12.3117 48.8661 12.8075 48.8661 13.5016V16.9091H47.4443V10.1483H48.8661V11.005Z" fill="#F9FAFB" fill-opacity="0.8"/>
<path d="M52.7545 14.1507C52.8599 14.6645 53.1012 15.0611 53.4786 15.3406C53.856 15.611 54.3168 15.7462 54.861 15.7462C55.6158 15.7462 56.1819 15.4668 56.5593 14.9079L57.731 15.611C57.0815 16.5936 56.1204 17.0848 54.8478 17.0848C53.777 17.0848 52.9125 16.7513 52.2543 16.0842C51.596 15.4082 51.2669 14.5563 51.2669 13.5287C51.2669 12.5191 51.5916 11.6762 52.2411 11.0001C52.8906 10.3151 53.7244 9.97251 54.7425 9.97251C55.7079 9.97251 56.4978 10.3196 57.1122 11.0137C57.7354 11.7078 58.0469 12.5506 58.0469 13.5422C58.0469 13.6954 58.0294 13.8983 57.9943 14.1507H52.7545ZM52.7414 12.9608H56.6119C56.5154 12.4109 56.2916 11.9962 55.9405 11.7168C55.5982 11.4373 55.1945 11.2976 54.7293 11.2976C54.2027 11.2976 53.7639 11.4464 53.4128 11.7438C53.0617 12.0413 52.8379 12.4469 52.7414 12.9608Z" fill="#F9FAFB" fill-opacity="0.8"/>
<path d="M64.4728 7.44398H65.8947V16.9091H64.4728V15.9355C63.9375 16.7017 63.1695 17.0848 62.169 17.0848C61.2649 17.0848 60.4926 16.7423 59.8519 16.0572C59.2112 15.3631 58.8908 14.5203 58.8908 13.5287C58.8908 12.5281 59.2112 11.6852 59.8519 11.0001C60.4926 10.3151 61.2649 9.97251 62.169 9.97251C63.1695 9.97251 63.9375 10.3511 64.4728 11.1083V7.44398ZM60.9051 15.0837C61.3001 15.4893 61.7959 15.6921 62.3928 15.6921C62.9896 15.6921 63.4855 15.4893 63.8804 15.0837C64.2754 14.669 64.4728 14.1507 64.4728 13.5287C64.4728 12.9067 64.2754 12.3929 63.8804 11.9872C63.4855 11.5726 62.9896 11.3652 62.3928 11.3652C61.7959 11.3652 61.3001 11.5726 60.9051 11.9872C60.5101 12.3929 60.3127 12.9067 60.3127 13.5287C60.3127 14.1507 60.5101 14.669 60.9051 15.0837Z" fill="#F9FAFB" fill-opacity="0.8"/>
<path d="M68.8948 8.86374C68.7193 9.04403 68.5086 9.13417 68.2629 9.13417C68.0171 9.13417 67.8021 9.04403 67.6178 8.86374C67.4422 8.67444 67.3545 8.45359 67.3545 8.20118C67.3545 7.94878 67.4422 7.73244 67.6178 7.55215C67.7933 7.36285 68.0083 7.2682 68.2629 7.2682C68.5174 7.2682 68.7324 7.36285 68.908 7.55215C69.0835 7.73244 69.1713 7.94878 69.1713 8.20118C69.1713 8.45359 69.0791 8.67444 68.8948 8.86374ZM67.5519 16.9091V10.1483H68.9738V16.9091H67.5519Z" fill="#F9FAFB" fill-opacity="0.8"/>
<path d="M74.3504 9.97251C75.2544 9.97251 76.0268 10.3151 76.6675 11.0001C77.3082 11.6852 77.6285 12.5281 77.6285 13.5287C77.6285 14.5203 77.3082 15.3631 76.6675 16.0572C76.0268 16.7423 75.2544 17.0848 74.3504 17.0848C73.3498 17.0848 72.5819 16.7017 72.0465 15.9355V16.9091H70.6247V7.44398H72.0465V11.1083C72.5819 10.3511 73.3498 9.97251 74.3504 9.97251ZM72.6389 15.0837C73.0339 15.4893 73.5298 15.6921 74.1266 15.6921C74.7234 15.6921 75.2193 15.4893 75.6143 15.0837C76.0092 14.669 76.2067 14.1507 76.2067 13.5287C76.2067 12.9067 76.0092 12.3929 75.6143 11.9872C75.2193 11.5726 74.7234 11.3652 74.1266 11.3652C73.5298 11.3652 73.0339 11.5726 72.6389 11.9872C72.244 12.3929 72.0465 12.9067 72.0465 13.5287C72.0465 14.1507 72.244 14.669 72.6389 15.0837Z" fill="#F9FAFB" fill-opacity="0.8"/>
<path d="M78.9172 16.9091V7.03833H80.339V16.9091H78.9172Z" fill="#F9FAFB" fill-opacity="0.8"/>
<path d="M83.1089 14.1507C83.2142 14.6645 83.4556 15.0611 83.833 15.3406C84.2104 15.611 84.6712 15.7462 85.2153 15.7462C85.9701 15.7462 86.5362 15.4668 86.9136 14.9079L88.0853 15.611C87.4359 16.5936 86.4748 17.0848 85.2022 17.0848C84.1314 17.0848 83.2669 16.7513 82.6086 16.0842C81.9504 15.4082 81.6213 14.5563 81.6213 13.5287C81.6213 12.5191 81.946 11.6762 82.5955 11.0001C83.245 10.3151 84.0787 9.97251 85.0969 9.97251C86.0623 9.97251 86.8522 10.3196 87.4666 11.0137C88.0897 11.7078 88.4013 12.5506 88.4013 13.5422C88.4013 13.6954 88.3837 13.8983 88.3486 14.1507H83.1089ZM83.0958 12.9608H86.9663C86.8698 12.4109 86.6459 11.9962 86.2949 11.7168C85.9526 11.4373 85.5489 11.2976 85.0837 11.2976C84.5571 11.2976 84.1182 11.4464 83.7672 11.7438C83.4161 12.0413 83.1923 12.4469 83.0958 12.9608Z" fill="#F9FAFB" fill-opacity="0.8"/>
</svg>
